<?xml version="1.0" standalone="no"?>
<!DOCTYPE svg PUBLIC "-//W3C//DTD SVG 20010904//EN"
 "http://www.w3.org/TR/2001/REC-SVG-20010904/DTD/svg10.dtd">
<svg version="1.0" xmlns="http://www.w3.org/2000/svg"
 width="725.000000pt" height="147.000000pt" viewBox="0 0 725.000000 147.000000"
 preserveAspectRatio="xMidYMid meet">

<g transform="translate(0.000000,147.000000) scale(0.100000,-0.100000)"
fill="#000000" stroke="none">
<path d="M328 1456 c-109 -31 -199 -112 -249 -222 -31 -68 -34 -81 -20 -103
15 -24 38 1 81 86 56 112 118 164 222 184 73 14 138 3 199 -34 102 -61 143
-144 158 -318 10 -108 28 -152 71 -174 l30 -16 0 31 c0 17 -6 38 -14 46 -8 8
-17 40 -20 71 -21 202 -45 271 -122 353 -25 27 -70 61 -99 75 -64 32 -168 41
-237 21z"/>
<path d="M1542 1350 c-10 -17 -10 -20 6 -20 11 0 27 9 37 20 18 19 17 20 -6
20 -13 0 -30 -9 -37 -20z"/>
<path d="M295 1326 c-50 -23 -117 -87 -129 -122 -4 -11 -17 -48 -29 -84 l-22
-65 -53 -3 c-28 -2 -52 -6 -52 -10 0 -4 -3 -16 -6 -28 -5 -17 0 -22 23 -27 44
-9 105 9 129 37 12 14 32 55 44 93 12 37 33 82 46 99 61 82 219 99 292 32 40
-38 52 -72 63 -180 14 -135 34 -223 59 -257 36 -52 140 -82 154 -45 13 34 6
44 -28 44 -45 0 -83 32 -96 81 -6 22 -17 96 -25 165 -16 142 -38 200 -91 240
-76 59 -192 71 -279 30z"/>
<path d="M2104 1313 c-12 -2 -32 -15 -45 -29 -20 -21 -24 -36 -24 -86 0 -53 3
-62 28 -84 32 -28 97 -33 117 -9 18 22 3 34 -33 28 -43 -7 -67 16 -67 63 0 54
16 76 53 73 33 -3 57 6 57 21 0 6 -60 34 -64 29 -1 -1 -11 -4 -22 -6z"/>
<path d="M6013 1310 c-12 -5 -27 -19 -33 -30 -20 -38 -4 -68 51 -95 28 -14 49
-31 46 -38 -5 -17 -55 -21 -73 -6 -12 10 -17 8 -29 -7 -12 -17 -11 -20 8 -31
12 -7 40 -12 63 -13 52 0 77 24 72 72 -3 28 -10 36 -50 57 -61 30 -65 56 -8
48 27 -3 43 -1 51 9 9 11 5 17 -24 29 -41 17 -44 17 -74 5z"/>
<path d="M1480 1200 l0 -110 70 0 c63 0 70 2 70 20 0 17 -7 20 -45 20 -41 0
-45 2 -45 24 0 21 5 25 37 28 27 2 39 8 41 21 3 14 -4 17 -37 17 -37 0 -41 2
-41 25 0 23 4 25 45 25 38 0 45 3 45 20 0 18 -7 20 -70 20 l-70 0 0 -110z"/>
<path d="M2600 1200 c0 -103 1 -110 20 -110 17 0 20 7 20 40 0 29 4 40 15 40
8 0 24 -18 35 -40 15 -30 26 -40 45 -40 l25 0 -22 44 c-20 41 -20 45 -5 61 23
22 22 78 -1 98 -13 12 -37 17 -75 17 l-57 0 0 -110z m106 55 c9 -21 -14 -45
-42 -45 -20 0 -24 5 -24 30 0 27 3 30 30 30 18 0 33 -6 36 -15z"/>
<path d="M3160 1290 c0 -15 7 -20 25 -20 24 0 25 -2 25 -70 0 -68 -1 -70 -25
-70 -18 0 -25 -5 -25 -20 0 -18 7 -20 75 -20 68 0 75 2 75 20 0 15 -7 20 -25
20 -24 0 -25 2 -25 70 0 68 1 70 25 70 18 0 25 5 25 20 0 18 -7 20 -75 20 -68
0 -75 -2 -75 -20z"/>
<path d="M3710 1290 c0 -16 7 -20 30 -20 l30 0 0 -90 c0 -89 0 -90 25 -90 25
0 25 1 25 90 l0 90 30 0 c23 0 30 4 30 20 0 18 -7 20 -85 20 -78 0 -85 -2 -85
-20z"/>
<path d="M4282 1214 c3 -109 13 -124 79 -124 56 0 69 25 69 132 0 81 -2 88
-20 88 -18 0 -20 -7 -20 -77 0 -86 -8 -107 -36 -101 -17 3 -19 14 -22 91 -3
86 -3 87 -28 87 l-26 0 4 -96z"/>
<path d="M4840 1200 l0 -110 25 0 c23 0 25 4 25 40 0 29 4 40 15 40 8 0 24
-18 35 -40 15 -30 26 -40 45 -40 l25 0 -22 45 c-20 42 -21 45 -5 63 9 10 17
33 17 50 0 43 -30 62 -102 62 l-58 0 0 -110z m113 58 c8 -22 -13 -48 -38 -48
-21 0 -25 5 -25 30 0 26 3 30 29 30 16 0 31 -6 34 -12z"/>
<path d="M5410 1200 l0 -110 75 0 c68 0 75 2 75 20 0 17 -7 20 -50 20 -47 0
-50 2 -50 25 0 23 4 25 40 25 33 0 40 3 40 19 0 16 -8 20 -37 23 -31 2 -39 7
-41 26 -3 20 1 22 42 22 39 0 46 3 46 20 0 18 -7 20 -70 20 l-70 0 0 -110z"/>
<path d="M329 1207 c-34 -23 -46 -48 -69 -144 -21 -84 -81 -125 -202 -138 -57
-6 -58 -7 -58 -37 l0 -31 60 7 c167 19 245 82 266 216 10 61 37 90 84 90 115
0 123 -187 14 -310 -57 -62 -147 -108 -287 -146 -97 -26 -106 -30 -101 -49 4
-11 9 -23 13 -28 10 -11 214 49 291 86 76 36 156 112 189 180 28 58 38 155 21
216 -7 26 -26 59 -45 78 -29 29 -39 33 -88 33 -40 0 -63 -6 -88 -23z"/>
<path d="M372 1104 c-23 -16 -32 -77 -12 -89 15 -9 -17 -59 -67 -105 -40 -38
-104 -63 -251 -100 -38 -10 -42 -14 -36 -33 3 -12 8 -24 10 -26 7 -8 187 43
242 69 59 28 92 61 172 170 47 64 49 81 14 109 -32 25 -43 26 -72 5z m55 -40
c6 -16 -15 -37 -29 -28 -4 3 -8 14 -8 25 0 23 28 26 37 3z"/>
<path d="M540 771 c0 -45 87 -114 185 -147 40 -14 49 -14 56 -3 13 21 11 49
-3 49 -27 0 -134 59 -162 89 -34 36 -76 42 -76 12z"/>
<path d="M3802 778 c-7 -7 -12 -16 -12 -20 0 -15 27 -8 45 12 18 19 17 20 -1
20 -11 0 -25 -5 -32 -12z"/>
<path d="M2040 620 c0 -103 1 -110 20 -110 18 0 20 7 20 73 l1 72 30 -72 c26
-62 35 -73 55 -73 24 0 24 1 24 110 0 103 -1 110 -20 110 -18 0 -20 -7 -21
-77 l0 -78 -31 78 c-26 65 -35 77 -55 77 -23 0 -23 -1 -23 -110z"/>
<path d="M2600 641 c0 -108 15 -135 75 -135 60 0 75 27 75 135 0 82 -1 89 -20
89 -18 0 -20 -7 -20 -74 0 -90 -5 -106 -35 -106 -26 0 -35 29 -35 121 0 52 -2
59 -20 59 -19 0 -20 -7 -20 -89z"/>
<path d="M3160 620 c0 -106 1 -110 21 -110 21 0 22 3 17 83 l-6 82 16 -52 c8
-29 20 -53 27 -53 7 0 19 24 28 53 l15 52 1 -82 c1 -67 4 -83 16 -83 12 0 15
19 15 111 0 108 0 110 -22 107 -17 -2 -26 -15 -37 -53 l-15 -50 -14 53 c-13
44 -19 52 -38 52 -24 0 -24 -1 -24 -110z"/>
<path d="M3730 620 l0 -110 70 0 c63 0 70 2 70 20 0 17 -7 20 -45 20 -41 0
-45 2 -45 25 0 23 4 25 40 25 33 0 40 3 40 20 0 17 -7 20 -40 20 -36 0 -40 3
-40 25 0 23 4 25 45 25 38 0 45 3 45 20 0 18 -7 20 -70 20 l-70 0 0 -110z"/>
<path d="M4280 620 l0 -110 25 0 c23 0 25 4 25 40 0 29 4 40 15 40 8 0 24 -18
35 -40 16 -31 26 -40 45 -40 l25 0 -20 40 c-19 37 -19 43 -5 63 8 12 15 36 15
54 0 45 -30 63 -102 63 l-58 0 0 -110z m114 54 c9 -22 -11 -44 -40 -44 -20 0
-24 5 -24 30 0 26 3 30 29 30 17 0 31 -6 35 -16z"/>
<path d="M4850 710 c0 -15 7 -20 25 -20 24 0 25 -2 25 -70 0 -68 -1 -70 -25
-70 -18 0 -25 -5 -25 -20 0 -18 7 -20 70 -20 63 0 70 2 70 20 0 15 -7 20 -25
20 -26 0 -26 1 -23 68 3 61 5 67 26 70 14 2 22 10 22 23 0 17 -8 19 -70 19
-63 0 -70 -2 -70 -20z"/>
<path d="M5421 704 c-16 -20 -21 -41 -21 -86 0 -59 1 -61 54 -114 42 -42 61
-54 85 -54 24 0 31 4 31 20 0 15 -7 20 -24 20 -34 0 -40 14 -16 35 44 40 46
139 4 186 -27 30 -87 26 -113 -7z m89 -33 c26 -49 3 -127 -35 -120 -41 8 -36
139 5 139 11 0 24 -9 30 -19z"/>
<path d="M5970 641 c0 -108 15 -135 75 -135 60 0 75 27 75 135 0 82 -1 89 -20
89 -18 0 -20 -7 -20 -67 0 -91 -7 -113 -35 -113 -30 0 -35 16 -35 106 0 67 -2
74 -20 74 -19 0 -20 -7 -20 -89z"/>
<path d="M6540 620 l0 -110 70 0 c63 0 70 2 70 20 0 17 -7 20 -45 20 -41 0
-45 2 -45 25 0 22 4 25 35 25 28 0 35 4 35 20 0 16 -7 20 -35 20 -31 0 -35 3
-35 25 0 23 4 25 45 25 38 0 45 3 45 20 0 18 -7 20 -70 20 l-70 0 0 -110z"/>
<path d="M7110 703 c-11 -15 -18 -33 -15 -41 3 -7 5 -18 5 -23 0 -5 23 -20 50
-34 59 -30 66 -55 17 -55 -18 0 -38 5 -43 10 -8 8 -15 6 -23 -4 -17 -20 -8
-32 33 -46 47 -15 102 7 112 46 9 36 -4 55 -57 82 -57 29 -58 48 -2 45 46 -2
66 20 33 37 -37 20 -87 12 -110 -17z"/>
<path d="M340 645 c-282 -84 -272 -80 -251 -114 11 -16 11 -16 214 43 87 25
168 46 181 46 43 0 122 -30 181 -69 60 -40 60 -40 72 -18 16 30 0 45 -90 93
-96 50 -182 56 -307 19z"/>
<path d="M408 550 c-62 -11 -140 -34 -211 -63 -58 -24 -58 -24 -40 -46 l18
-22 125 42 c111 37 131 41 188 36 42 -4 85 -17 124 -37 57 -28 62 -29 74 -12
7 9 14 20 14 24 0 4 -33 23 -72 42 -79 37 -145 48 -220 36z"/>
<path d="M322 420 c-103 -28 -112 -33 -78 -55 25 -16 30 -17 84 -1 73 20 142
20 189 1 32 -14 39 -14 60 0 12 9 23 18 23 21 0 3 -20 14 -44 25 -67 29 -148
33 -234 9z"/>
<path d="M2180 89 c0 -95 16 -116 22 -29 3 40 6 45 28 45 23 0 25 -4 28 -53 4
-62 22 -61 22 2 0 55 -18 81 -53 74 -23 -4 -27 -2 -27 18 0 12 -4 26 -10 29
-6 4 -10 -27 -10 -86z"/>
<path d="M2450 170 c0 -5 5 -10 10 -10 6 0 10 5 10 10 0 6 -4 10 -10 10 -5 0
-10 -4 -10 -10z"/>
<path d="M2889 143 c-1 -21 -2 -53 -3 -72 -1 -37 -23 -58 -50 -48 -13 5 -16
16 -14 44 3 33 7 38 31 41 30 4 28 22 -3 22 -28 0 -50 -28 -50 -64 0 -51 48
-84 78 -54 9 9 12 9 12 0 0 -7 5 -12 10 -12 6 0 10 37 10 90 0 53 -4 90 -10
90 -5 0 -11 -17 -11 -37z"/>
<path d="M3513 90 c0 -67 2 -82 6 -50 8 55 17 70 41 70 20 0 26 -15 33 -80 3
-19 4 -6 3 30 -1 60 -3 65 -24 68 -13 2 -29 -2 -37 -8 -11 -9 -14 -4 -18 27
-2 21 -4 -5 -4 -57z"/>
<path d="M4003 90 c0 -67 2 -82 6 -50 8 55 17 70 41 70 20 0 26 -15 33 -80 3
-19 4 -6 3 30 -1 60 -3 65 -24 68 -13 2 -29 -2 -37 -8 -11 -9 -14 -4 -18 27
-2 21 -4 -5 -4 -57z"/>
<path d="M4430 149 c0 -26 -3 -29 -20 -24 -52 16 -91 -33 -69 -87 13 -32 40
-43 68 -29 14 8 21 8 24 -2 3 -6 6 30 6 81 1 50 -1 92 -4 92 -3 0 -5 -14 -5
-31z m-7 -61 c15 -23 -6 -68 -33 -68 -28 0 -46 40 -30 69 13 26 47 25 63 -1z"/>
<path d="M5339 143 c-1 -21 -2 -53 -3 -72 -1 -37 -23 -58 -50 -48 -13 5 -16
16 -14 44 3 33 7 38 31 41 29 4 28 22 -2 22 -46 0 -69 -81 -33 -113 22 -20 43
-22 60 -5 9 9 12 9 12 0 0 -7 5 -12 10 -12 6 0 10 37 10 90 0 53 -4 90 -10 90
-5 0 -11 -17 -11 -37z"/>
<path d="M2041 146 c-60 -64 3 -171 83 -140 28 11 17 20 -18 16 -27 -3 -37 1
-55 24 -39 49 -9 109 54 107 19 -1 35 3 35 8 0 5 -17 9 -38 9 -28 0 -45 -7
-61 -24z"/>
<path d="M4720 150 c-11 -11 -23 -32 -26 -47 -14 -53 46 -113 99 -99 39 9 33
23 -7 18 -64 -7 -98 58 -57 109 13 17 28 23 55 22 20 -1 33 3 30 8 -10 17 -73
10 -94 -11z"/>
<path d="M2325 121 c-3 -5 9 -11 27 -13 41 -4 47 -24 9 -33 -75 -16 -58 -79
19 -71 23 3 25 6 24 56 -1 32 -7 56 -15 61 -19 12 -56 11 -64 0z m63 -78 c-4
-20 -35 -30 -50 -15 -15 15 0 32 28 32 19 0 25 -5 22 -17z"/>
<path d="M2450 64 c0 -41 4 -63 10 -59 6 3 10 33 10 66 0 33 -4 59 -10 59 -6
0 -10 -29 -10 -66z"/>
<path d="M2510 71 c0 -75 17 -89 22 -18 5 56 1 77 -13 77 -5 0 -9 -27 -9 -59z"/>
<path d="M2545 120 c-3 -5 1 -10 9 -10 9 0 16 5 16 10 0 6 -4 10 -9 10 -6 0
-13 -4 -16 -10z"/>
<path d="M2617 118 c-9 -7 -19 -25 -22 -40 -5 -21 -1 -33 19 -52 26 -27 60
-34 71 -16 4 6 -6 10 -24 10 -20 0 -34 7 -41 20 -10 19 -8 20 35 20 38 0 45 3
45 19 0 42 -49 64 -83 39z m61 -30 c3 -15 -4 -18 -32 -18 -38 0 -44 8 -24 28
17 17 52 11 56 -10z"/>
<path d="M2965 114 c-25 -26 -16 -85 16 -103 17 -9 33 -11 45 -6 16 7 13 9
-16 14 -22 4 -36 12 -38 24 -3 14 4 17 37 17 34 0 41 3 41 19 0 44 -54 66 -85
35z m63 -26 c3 -14 -3 -18 -27 -18 -29 0 -41 17 -24 34 13 13 48 1 51 -16z"/>
<path d="M3161 60 l1 -65 8 47 c10 55 16 68 36 68 8 0 14 4 14 10 0 5 -13 8
-30 7 l-30 -2 1 -65z"/>
<path d="M3257 112 c-44 -48 -1 -124 60 -107 24 7 25 9 8 12 -56 11 -65 15
-65 28 0 11 11 15 40 15 35 0 40 3 40 23 0 46 -52 64 -83 29z m66 -16 c8 -19
-1 -26 -35 -26 -26 0 -37 17 -21 33 12 12 51 7 56 -7z"/>
<path d="M3395 110 c-24 -27 -22 -70 5 -92 24 -20 55 -24 65 -8 4 6 -6 10 -24
10 -39 0 -58 31 -42 66 8 18 19 24 41 24 18 0 29 4 25 10 -10 17 -51 11 -70
-10z"/>
<path d="M3657 112 c-47 -52 15 -139 73 -102 11 7 8 10 -15 10 -30 0 -55 15
-55 32 0 4 21 8 46 8 42 0 45 1 38 23 -15 50 -56 63 -87 29z m63 -6 c0 -2 3
-11 6 -20 5 -13 -1 -16 -30 -16 -34 0 -47 15 -29 33 7 8 53 10 53 3z"/>
<path d="M3780 71 c0 -75 17 -89 22 -18 5 56 1 77 -13 77 -5 0 -9 -27 -9 -59z"/>
<path d="M3815 120 c-3 -5 1 -10 9 -10 9 0 16 5 16 10 0 6 -4 10 -9 10 -6 0
-13 -4 -16 -10z"/>
<path d="M3885 110 c-24 -27 -22 -70 5 -92 24 -20 55 -24 65 -8 4 6 -6 10 -24
10 -39 0 -58 31 -42 66 8 18 19 24 41 24 18 0 29 4 25 10 -10 17 -51 11 -70
-10z"/>
<path d="M4146 108 c-41 -58 17 -135 74 -98 11 7 8 10 -15 10 -30 0 -55 15
-55 32 0 4 20 8 45 8 49 0 56 10 29 48 -20 28 -58 28 -78 0z m72 -20 c3 -15
-4 -18 -32 -18 -34 0 -47 15 -29 34 13 13 58 1 61 -16z"/>
<path d="M4490 76 c0 -64 17 -85 55 -68 17 8 25 8 25 1 0 -6 5 -7 10 -4 6 3
10 33 10 66 0 33 -4 59 -10 59 -5 0 -10 -20 -10 -44 0 -46 -19 -72 -45 -62
-11 4 -15 20 -15 56 0 27 -4 50 -10 50 -5 0 -10 -24 -10 -54z"/>
<path d="M4865 120 c-4 -6 7 -10 24 -10 41 0 41 -26 0 -35 -60 -13 -48 -70 15
-70 l36 0 0 51 c0 27 -5 55 -12 62 -15 15 -54 16 -63 2z m53 -77 c-4 -22 -48
-31 -48 -10 0 19 10 27 32 27 13 0 18 -6 16 -17z"/>
<path d="M4987 124 c-11 -11 -8 -112 3 -119 6 -4 10 11 10 37 0 47 13 68 42
68 17 0 18 -5 31 -90 3 -14 5 3 6 37 1 59 0 63 -24 69 -14 3 -31 1 -39 -5 -10
-9 -15 -9 -18 -1 -2 6 -7 8 -11 4z"/>
<path d="M5135 120 c-4 -6 7 -10 24 -10 41 0 41 -26 0 -35 -60 -13 -48 -70 15
-70 l36 0 0 51 c0 27 -5 55 -12 62 -15 15 -54 16 -63 2z m53 -77 c-4 -22 -48
-31 -48 -10 0 19 10 27 32 27 13 0 18 -6 16 -17z"/>
<path d="M5410 120 c0 -5 14 -10 30 -10 40 0 40 -26 -1 -35 -60 -13 -48 -69
15 -71 l36 -1 0 51 c0 29 -5 57 -12 64 -14 14 -68 16 -68 2z m58 -77 c-2 -10
-13 -19 -26 -21 -17 -3 -22 2 -22 17 0 16 6 21 26 21 19 0 25 -5 22 -17z"/>
</g>
</svg>
