<?xml version="1.0" standalone="no"?>
<!DOCTYPE svg PUBLIC "-//W3C//DTD SVG 20010904//EN"
 "http://www.w3.org/TR/2001/REC-SVG-20010904/DTD/svg10.dtd">
<svg version="1.0" xmlns="http://www.w3.org/2000/svg"
 width="394.000000pt" height="500.000000pt" viewBox="0 0 394.000000 500.000000"
 preserveAspectRatio="xMidYMid meet">
<g transform="translate(0.000000,500.000000) scale(0.100000,-0.100000)"
fill="#FFFFFF" stroke="none">
<path d="M2150 3963 c0 -7 -6 -10 -14 -7 -8 3 -17 1 -20 -5 -4 -6 -12 -8 -20
-5 -17 7 -37 -40 -44 -106 -5 -44 -7 -50 -13 -30 -6 22 -7 23 -8 4 -1 -12 7
-31 17 -43 17 -21 17 -21 18 39 1 34 6 66 13 73 6 6 11 20 11 32 0 16 2 17 10
5 7 -12 10 -11 17 7 6 15 12 20 22 14 10 -7 11 -13 1 -31 -6 -12 -9 -24 -7
-27 3 -3 13 9 22 26 11 23 13 36 6 49 -6 9 -11 12 -11 5z"/>
<path d="M1936 3949 c3 -5 -2 -9 -10 -9 -9 0 -16 -5 -16 -11 0 -5 -4 -8 -9 -4
-5 3 -13 0 -16 -5 -5 -8 -14 -5 -28 7 -11 10 -18 13 -14 7 4 -6 2 -25 -2 -42
-6 -20 -5 -34 2 -41 12 -12 -3 -15 -19 -3 -5 4 -2 0 8 -9 17 -16 16 -17 -17
-23 -19 -4 -36 -10 -38 -14 -2 -4 -1 -29 3 -57 4 -27 8 -38 9 -23 0 15 6 39
11 53 l10 26 24 -28 c13 -15 29 -44 35 -63 7 -19 21 -48 32 -65 29 -46 49 -92
49 -116 0 -11 9 -32 20 -46 17 -22 20 -23 20 -7 0 61 -98 291 -134 316 -6 4
-7 10 -4 14 4 3 19 -6 33 -21 32 -31 46 -26 16 6 -12 13 -21 27 -21 31 0 5 -4
7 -8 4 -4 -2 -8 3 -9 12 -1 9 -5 29 -9 45 -12 49 11 29 46 -40 38 -76 40 -83
28 -99 -5 -7 -2 -17 7 -24 8 -7 12 -17 8 -23 -3 -6 -1 -7 5 -3 9 5 9 13 2 26
-13 24 -13 33 0 25 13 -8 13 1 -1 27 -7 12 -18 49 -26 81 -10 46 -11 63 -2 71
8 7 10 7 6 1 -3 -6 -2 -17 4 -25 7 -12 9 -10 9 7 0 12 5 25 11 28 7 5 9 -8 6
-41 -2 -27 0 -62 5 -79 17 -59 40 -191 44 -250 1 -33 6 -113 10 -178 4 -69 11
-114 16 -109 5 5 17 55 27 111 18 102 17 128 -10 217 -5 17 -9 40 -9 52 0 12
-11 50 -24 86 -14 35 -22 66 -19 69 2 3 -3 19 -11 36 -9 16 -16 45 -16 64 0
26 -5 36 -20 40 -11 3 -18 1 -14 -4z"/>
<path d="M2170 3914 c-15 -39 -30 -149 -30 -225 0 -36 -7 -88 -15 -115 -9 -27
-20 -63 -25 -80 -6 -17 -12 -51 -15 -75 l-5 -44 32 65 c22 45 33 82 35 119 3
73 10 125 29 196 9 33 18 78 21 100 5 37 5 39 -13 25 -13 -9 -15 -10 -7 -1 6
7 9 21 6 30 -3 9 5 5 18 -10 13 -14 30 -24 38 -21 8 3 4 -8 -10 -27 -12 -17
-19 -34 -15 -38 4 -4 9 3 13 16 3 13 11 20 19 17 9 -4 14 2 14 15 0 13 -8 23
-21 26 -12 4 -18 11 -15 20 3 8 2 12 -3 8 -5 -3 -16 2 -25 11 -15 14 -17 13
-26 -12z"/>
<path d="M2016 3878 c-6 -23 -7 -23 -21 -4 -8 11 -15 15 -15 9 0 -5 9 -20 20
-32 l19 -23 7 26 c3 14 10 23 15 20 5 -3 6 2 3 10 -9 23 -21 20 -28 -6z"/>
<path d="M2093 3838 c-6 -35 -8 -88 -5 -118 3 -30 6 -67 6 -82 1 -43 26 -34
27 10 1 20 0 41 -1 47 -18 92 -20 122 -12 161 5 24 6 44 2 44 -4 0 -12 -28
-17 -62z"/>
<path d="M2326 3868 c-10 -11 -29 -55 -43 -97 -23 -74 -56 -222 -50 -228 4 -3
18 41 37 107 6 25 16 53 21 63 11 20 33 88 44 132 4 17 10 24 12 17 4 -10 8
-10 21 0 8 7 13 9 11 3 -3 -5 -11 -23 -18 -40 -7 -16 -22 -48 -33 -71 -12 -22
-19 -46 -17 -53 3 -7 22 24 44 68 37 74 55 97 55 70 0 -5 5 -7 11 -3 6 3 -5
16 -28 30 -47 29 -45 29 -67 2z"/>
<path d="M2277 3856 c-10 -11 -17 -27 -18 -36 0 -11 -2 -11 -8 3 -4 12 -10 -3
-17 -47 -5 -36 -6 -66 -2 -66 5 0 8 12 8 28 0 34 19 68 21 37 0 -11 6 -1 14
23 7 24 21 52 29 61 13 14 13 18 3 18 -8 0 -21 -9 -30 -21z"/>
<path d="M2428 3864 c9 -17 9 -24 -3 -34 -8 -7 -15 -9 -15 -4 0 5 -5 1 -11 -9
-17 -29 -1 -33 26 -7 29 27 31 42 8 61 -15 13 -15 12 -5 -7z"/>
<path d="M1764 3833 c-6 -9 -27 -16 -57 -17 -27 -2 -52 -8 -57 -16 -4 -7 -13
-9 -19 -6 -6 4 -11 2 -11 -4 0 -6 -5 -8 -12 -3 -22 13 -36 12 -42 -3 -3 -8
-11 -14 -18 -13 -23 4 -47 -12 -41 -27 3 -8 -1 -14 -8 -14 -8 0 -6 -5 6 -13
10 -8 15 -19 11 -25 -5 -8 -2 -10 9 -6 13 5 13 9 3 23 -10 14 -10 14 6 -1 18
-15 18 -18 2 -33 -20 -20 -21 -32 -2 -16 10 9 15 8 19 -4 4 -8 2 -14 -2 -12
-5 1 -9 -2 -9 -8 0 -5 4 -9 8 -8 5 2 7 -5 5 -15 -2 -10 7 -28 20 -40 l24 -23
-4 32 c-3 17 -11 42 -20 55 -8 13 -12 29 -9 37 3 8 -7 28 -21 45 -26 31 -27
64 -1 43 7 -6 15 -9 18 -6 3 3 11 -3 19 -12 13 -16 12 -17 -3 -4 -32 24 -21
-12 17 -62 39 -51 46 -70 15 -42 -11 10 -20 13 -20 8 0 -22 28 -35 50 -23 24
13 40 6 40 -17 0 -13 -3 -13 -16 -2 -11 9 -9 0 7 -34 12 -25 26 -44 31 -41 4
3 1 15 -7 27 -18 25 -20 41 -4 31 20 -12 -1 40 -22 55 -10 7 -19 22 -19 32 0
10 -5 21 -11 24 -6 4 -8 14 -5 22 3 8 2 12 -3 9 -12 -8 -43 29 -34 39 5 4 2 5
-4 1 -7 -4 -13 -3 -13 3 0 18 17 21 30 6 7 -8 18 -15 24 -15 6 0 22 -16 35
-35 13 -19 28 -35 34 -35 6 0 6 4 -1 13 -5 6 -13 27 -17 45 -3 17 -11 32 -16
32 -5 0 -9 4 -9 9 0 6 9 9 20 8 16 -1 20 -8 20 -39 0 -20 5 -40 12 -44 8 -5 9
-2 5 10 -5 13 -3 17 7 13 12 -5 13 0 5 25 -8 29 -5 48 5 37 7 -6 16 -60 20
-122 7 -83 16 -111 47 -146 31 -36 38 -35 14 2 -16 25 -55 201 -55 249 0 17 7
36 17 43 9 7 12 15 7 18 -6 3 -14 -1 -20 -10z"/>
<path d="M2403 3774 c-29 -25 -53 -51 -53 -57 0 -7 -18 -35 -40 -64 -21 -29
-44 -70 -49 -91 -6 -22 -27 -60 -46 -86 -20 -25 -32 -46 -26 -46 14 0 55 52
70 89 8 17 17 28 22 25 5 -3 6 1 4 9 -3 7 10 34 30 60 19 25 35 50 35 54 0 12
63 73 75 73 6 1 23 11 39 24 16 14 36 21 47 19 15 -4 2 -17 -57 -55 -42 -27
-73 -52 -70 -55 3 -3 11 -1 18 5 7 5 30 19 51 31 21 12 49 29 63 37 15 10 24
12 24 5 0 -6 -6 -11 -12 -12 -7 0 -4 -4 7 -9 l20 -8 -20 -7 c-53 -18 -85 -36
-80 -45 8 -14 26 -13 23 1 -2 6 4 14 12 16 13 4 13 3 0 -6 -12 -8 -8 -10 17
-8 34 2 43 11 21 20 -8 4 -7 6 3 6 22 1 32 28 19 51 -13 25 -13 32 3 25 6 -4
4 0 -6 9 -11 8 -25 12 -33 9 -10 -4 -12 0 -8 11 3 9 1 16 -5 16 -6 0 -11 -5
-11 -11 0 -5 -5 -7 -12 -3 -6 4 -9 3 -5 -2 3 -5 -5 -14 -18 -20 -23 -11 -24
-11 -8 12 21 33 16 30 -44 -22z"/>
<path d="M1809 3743 c-6 -140 -5 -144 49 -243 l51 -96 -3 -99 c-3 -121 11
-257 31 -305 l15 -35 19 70 c26 91 39 240 29 321 -12 93 -73 181 -107 152 -9
-7 -13 -7 -13 0 0 6 5 12 11 14 12 4 -7 40 -49 97 -28 37 -12 42 16 6 17 -21
21 -22 26 -9 4 10 -5 29 -24 50 -27 31 -34 51 -33 92 1 6 -3 12 -8 12 -5 0
-10 -12 -10 -27z m99 -262 c13 -8 25 -61 13 -61 -9 1 -42 70 -33 70 4 0 13 -4
20 -9z m68 -74 c4 -4 2 -7 -4 -7 -7 0 -12 -5 -12 -11 0 -5 5 -7 12 -3 7 5 9 2
5 -9 -3 -9 -1 -18 6 -20 8 -3 5 -10 -8 -21 -14 -11 -15 -15 -5 -14 11 2 16 -8
18 -34 3 -33 0 -38 -17 -38 -25 0 -27 -13 -6 -30 8 -7 15 -22 14 -34 0 -20 -1
-21 -9 -1 -8 18 -9 17 -9 -8 -1 -16 3 -26 9 -22 6 3 10 2 10 -4 0 -5 -6 -12
-12 -14 -10 -4 -10 -7 0 -15 10 -7 10 -11 -3 -22 -9 -7 -14 -19 -11 -27 3 -8
2 -12 -3 -9 -4 3 -8 25 -8 48 0 23 -5 44 -12 46 -13 4 -15 82 -3 82 5 0 6 21
2 47 -8 54 -3 86 14 76 6 -3 3 3 -7 15 -11 11 -16 25 -12 31 6 11 40 10 51 -2z"/>
<path d="M2192 3723 c-19 -44 -40 -153 -29 -153 8 0 45 113 51 158 3 23 5 42
3 42 -2 0 -13 -21 -25 -47z"/>
<path d="M2040 3744 c0 -20 34 -117 37 -107 5 13 -25 113 -33 113 -2 0 -4 -3
-4 -6z"/>
<path d="M1380 3682 c0 -11 -5 -24 -11 -27 -6 -4 -8 -14 -5 -22 3 -8 1 -11 -4
-8 -45 28 66 -124 119 -163 17 -13 36 -20 41 -17 5 3 12 0 16 -6 5 -8 3 -9 -7
-4 -11 6 -12 5 -1 -6 20 -22 14 -34 -8 -14 -11 10 -20 13 -20 8 0 -6 7 -13 15
-17 8 -3 15 -11 15 -17 0 -8 -5 -7 -17 2 -15 13 -15 12 -5 -8 15 -28 15 -36 0
-27 -7 4 -8 3 -4 -4 4 -6 13 -9 20 -6 8 3 20 -3 27 -13 8 -10 33 -31 57 -46
25 -16 40 -32 36 -39 -5 -7 -3 -8 5 -4 7 5 35 -7 68 -29 30 -20 57 -34 60 -32
14 15 -111 117 -180 146 -51 22 -69 41 -57 61 7 12 12 11 32 -5 14 -12 12 -7
-6 13 -52 56 -17 35 61 -38 41 -38 79 -70 84 -70 18 0 -36 62 -83 96 -28 21
-45 40 -42 48 3 8 0 17 -7 22 -9 5 -10 2 -6 -9 8 -22 1 -21 -31 3 -17 14 -28
17 -32 9 -6 -9 -21 11 -24 33 -1 3 -5 10 -10 15 -5 5 -6 3 -2 -4 11 -20 -9
-15 -28 6 -10 11 -15 25 -10 32 4 8 3 10 -5 5 -15 -10 -41 52 -40 96 0 33 1
33 11 8 30 -70 55 -113 68 -118 23 -8 50 -34 45 -42 -3 -4 2 -10 10 -13 10 -4
12 -1 8 10 -6 15 -16 28 -59 75 -9 9 -13 21 -9 27 3 7 0 8 -9 5 -11 -4 -13 0
-9 18 4 18 3 20 -6 8 -9 -12 -11 -11 -11 7 0 12 -11 34 -25 49 -23 25 -25 26
-25 6z"/>
<path d="M2217 3658 c-48 -132 -73 -192 -132 -312 -60 -123 -81 -196 -55 -196
16 0 57 81 88 172 17 48 39 100 49 115 11 15 26 46 35 68 16 41 42 185 34 192
-2 2 -11 -15 -19 -39z"/>
<path d="M1950 3677 c0 -15 43 -137 47 -133 6 5 -27 119 -38 131 -5 5 -9 6 -9
2z"/>
<path d="M2550 3669 c0 -5 -8 -9 -17 -8 -32 3 -42 -1 -38 -13 7 -18 -11 -42
-24 -34 -6 4 -11 16 -11 27 0 30 -21 32 -69 7 -29 -16 -51 -37 -66 -66 -13
-24 -30 -51 -38 -60 -28 -33 -31 -45 -10 -33 13 7 23 7 30 0 7 -7 14 1 23 23
7 18 20 41 28 51 12 13 13 20 4 29 -13 13 2 38 22 38 6 0 3 -7 -7 -14 -13 -10
-15 -16 -7 -21 7 -4 27 7 46 26 19 18 34 28 34 23 0 -5 -18 -28 -41 -49 -22
-22 -50 -58 -60 -80 -13 -26 -14 -33 -4 -21 8 11 15 24 15 29 0 4 4 6 10 2 5
-3 16 7 24 22 14 27 56 72 56 60 0 -13 -61 -102 -75 -110 -9 -4 -13 -12 -10
-16 5 -9 -13 -28 -27 -30 -21 -3 -38 -14 -38 -24 0 -5 10 -2 22 9 19 17 21 17
15 2 -4 -10 -4 -18 -1 -18 10 0 43 44 44 58 0 6 4 12 8 12 5 0 18 18 31 40 23
41 50 67 38 37 -4 -10 -2 -16 5 -14 7 1 13 -10 13 -24 1 -16 -4 -25 -10 -22
-7 2 -18 -3 -25 -12 -11 -13 -9 -15 9 -15 21 0 21 -1 4 -26 -15 -24 -17 -25
-24 -8 -4 11 -8 13 -8 6 -1 -7 -6 -10 -12 -7 -6 4 -28 -7 -49 -24 -21 -17 -46
-31 -54 -31 -31 0 -62 -23 -96 -71 -19 -27 -48 -59 -65 -71 -49 -35 -132 -142
-149 -192 -16 -48 -33 -186 -23 -186 15 0 157 148 157 163 0 19 45 114 79 167
16 25 21 28 16 11 -5 -16 -4 -21 4 -17 14 9 14 59 0 73 -6 6 -9 17 -7 24 2 7
12 -4 22 -24 9 -20 19 -37 21 -37 3 0 12 15 20 33 8 17 30 51 47 73 18 23 41
56 51 74 10 18 21 30 24 26 4 -3 1 -12 -5 -18 -7 -7 -12 -17 -12 -23 1 -5 10
1 20 14 11 13 20 20 20 15 0 -4 5 -3 12 4 19 19 29 14 16 -7 -7 -11 -16 -17
-22 -14 -5 4 -6 1 -1 -6 4 -7 -1 -22 -14 -34 -11 -12 -31 -43 -45 -69 -14 -26
-32 -59 -42 -73 -10 -15 -12 -25 -5 -25 6 0 11 3 11 8 0 4 21 34 46 67 25 33
52 77 61 98 11 28 18 35 24 25 6 -10 9 -8 9 7 0 32 58 189 71 194 7 2 9 -2 5
-10 -4 -8 0 -5 8 5 21 26 20 32 -5 32 -14 0 -30 -14 -46 -39 -18 -29 -28 -36
-36 -28 -8 8 -5 19 11 41 12 16 22 34 22 40 0 5 5 10 11 10 5 0 8 -4 5 -8 -2
-4 3 -8 12 -8 11 0 18 9 18 23 1 13 0 23 -2 23 -2 0 -4 -5 -4 -11z m-246 -320
c24 3 27 -1 11 -19 -10 -12 -25 -18 -32 -16 -8 3 -13 0 -12 -7 4 -32 -1 -38
-17 -22 -13 12 -14 19 -5 28 6 6 11 16 11 22 0 5 -5 3 -11 -5 -9 -13 -10 -13
-6 0 2 8 10 14 16 12 6 -1 14 5 18 14 4 11 8 12 13 4 4 -6 10 -11 14 -11z
m-109 -119 c1 -10 -3 -16 -8 -13 -6 4 -8 -1 -4 -11 9 -23 -22 -34 -38 -13 -7
9 -15 15 -18 12 -4 -3 -5 -2 -3 1 2 3 7 4 11 2 4 -1 13 8 20 22 9 16 14 19 15
10 0 -9 -5 -21 -11 -27 -8 -8 -7 -13 2 -18 7 -5 10 -4 5 3 -3 6 -2 13 4 17 5
3 10 16 10 27 0 26 13 15 15 -12z m-68 -54 c-1 -6 9 -10 23 -10 20 1 21 0 10
-10 -8 -6 -15 -15 -16 -21 -1 -21 -24 -65 -34 -65 -14 0 -13 17 2 22 8 3 9 6
1 11 -5 3 -15 -5 -22 -19 -6 -15 -7 -23 -1 -19 5 3 10 -2 10 -12 0 -15 2 -16
10 -3 7 10 10 11 10 2 0 -7 -7 -15 -15 -18 -8 -4 -13 -10 -10 -14 3 -5 -11
-26 -31 -48 -26 -30 -41 -38 -56 -34 -16 4 -19 2 -13 -8 5 -9 4 -11 -3 -6 -9
5 -9 13 -2 26 6 11 9 23 8 27 -3 12 23 86 36 102 8 11 8 13 -1 7 -9 -5 -11 -2
-7 9 5 12 9 13 20 4 11 -9 14 -8 14 1 0 8 3 10 7 7 9 -10 33 13 32 32 0 13 -2
12 -8 -3 -4 -11 -15 -20 -24 -22 -13 -2 -11 5 9 35 23 35 55 52 51 27z"/>
<path d="M1724 3645 c-4 -8 -3 -32 0 -53 3 -20 7 -43 8 -50 1 -7 34 -51 74
-98 40 -46 74 -90 77 -97 2 -6 7 -9 11 -6 19 18 -38 139 -65 139 -34 0 -103
115 -94 159 4 24 -3 28 -11 6z"/>
<path d="M1484 3620 c1 -8 7 -19 14 -23 6 -4 12 -13 12 -19 0 -7 -5 -6 -15 2
-32 27 -13 -8 26 -45 l40 -40 -17 40 c-9 22 -23 49 -30 60 -20 28 -17 41 4 22
26 -23 39 -21 18 2 -21 23 -54 24 -52 1z"/>
<path d="M1290 3619 c-12 -7 -12 -9 3 -9 11 0 15 -4 11 -12 -5 -7 -3 -8 6 -3
10 6 12 3 8 -13 -4 -13 0 -26 11 -34 14 -12 15 -11 2 5 -7 9 -9 17 -5 17 5 0
15 -9 22 -21 8 -12 9 -18 3 -14 -6 3 -11 2 -11 -2 0 -11 92 -78 103 -75 4 1 7
-2 7 -8 0 -5 8 -10 17 -10 19 0 7 17 -16 22 -21 4 -58 45 -96 104 -39 60 -46
66 -65 53z"/>
<path d="M2070 3595 c5 -14 10 -40 10 -58 0 -23 3 -28 12 -19 14 14 -1 93 -20
100 -9 3 -10 -3 -2 -23z"/>
<path d="M1890 3591 c0 -25 39 -74 40 -49 0 22 -21 68 -32 68 -4 0 -8 -9 -8
-19z"/>
<path d="M2595 3602 c-18 -12 -73 -125 -85 -174 -7 -27 -16 -48 -21 -48 -5 0
-9 -6 -9 -12 0 -7 -23 -38 -50 -68 -27 -30 -50 -59 -50 -63 0 -16 -146 -159
-188 -184 -40 -24 -69 -58 -64 -76 1 -5 -2 -6 -6 -3 -5 3 -18 -4 -28 -16 -15
-16 -15 -20 -3 -16 8 3 43 14 77 23 61 17 152 82 152 107 0 6 18 39 40 74 22
35 40 68 40 74 0 19 30 70 41 70 8 0 8 -4 2 -12 -11 -15 -24 -48 -19 -48 10 0
45 72 40 83 -3 8 2 19 10 26 13 11 15 9 11 -18 -2 -17 1 -31 6 -31 6 0 7 -4 4
-10 -8 -13 4 -32 16 -24 5 3 6 12 1 20 -6 11 1 25 26 50 39 39 42 40 42 17 0
-12 8 -6 22 17 11 19 27 46 35 58 8 13 17 21 21 17 4 -3 2 -9 -3 -13 -6 -4
-26 -40 -46 -80 -20 -40 -31 -67 -24 -62 7 6 25 34 39 63 14 29 47 76 74 105
40 42 46 54 35 63 -9 9 -13 8 -13 0 0 -6 -11 -16 -25 -21 -14 -5 -25 -15 -25
-22 0 -9 3 -8 10 2 5 8 10 11 10 5 0 -5 -4 -16 -9 -23 -6 -10 -10 -10 -21 2
-13 16 -35 12 -25 -5 3 -5 -3 -19 -14 -31 -12 -12 -21 -27 -21 -34 0 -7 -5
-16 -11 -19 -16 -10 -7 28 11 43 13 12 12 13 -8 9 -19 -5 -21 -3 -11 9 6 8 8
14 4 14 -4 0 -2 7 5 15 7 9 14 25 15 38 4 37 5 38 17 31 8 -5 9 -2 4 12 -5 10
-9 24 -9 31 0 6 -6 9 -14 6 -9 -4 -11 0 -7 11 4 10 13 15 21 12 8 -3 11 -1 8
4 -7 12 -16 12 -30 2z m1 -88 c-29 -59 -37 -81 -40 -108 -3 -28 -26 -62 -26
-39 0 7 5 15 10 18 6 3 10 11 10 18 0 8 -3 8 -11 0 -14 -14 -21 -65 -8 -57 15
9 10 -13 -6 -26 -38 -32 -37 29 3 107 12 23 22 47 22 52 0 5 10 25 23 44 26
41 45 34 23 -9z m-286 -414 c-6 -11 -16 -17 -25 -14 -8 4 -15 1 -15 -5 0 -6 5
-11 10 -11 6 0 10 -5 10 -12 0 -6 -3 -8 -7 -5 -9 10 -34 -14 -26 -26 4 -6 1
-7 -6 -2 -7 4 -22 -2 -35 -14 -18 -17 -23 -18 -23 -6 0 8 6 15 13 15 7 0 15 4
18 9 4 5 -4 7 -16 4 -14 -4 -20 -2 -15 3 5 5 12 9 15 9 4 0 13 4 20 8 7 5 12
4 12 -3 0 -6 4 -9 10 -5 5 3 7 12 4 20 -4 9 7 22 28 35 41 25 41 25 28 0z"/>
<path d="M1616 3559 c8 -42 21 -59 45 -59 24 0 24 6 -1 37 -11 14 -17 30 -13
37 3 6 3 8 -2 4 -4 -4 -14 -3 -22 3 -11 9 -12 5 -7 -22z"/>
<path d="M1559 3541 c12 -23 24 -41 27 -38 8 7 -13 52 -31 67 -15 12 -14 7 4
-29z"/>
<path d="M1301 3539 c-1 -9 6 -19 14 -23 8 -3 15 -10 15 -16 0 -6 -4 -8 -10
-5 -6 3 -7 -1 -4 -9 3 -9 10 -13 15 -10 5 3 9 2 8 -3 -3 -20 2 -34 11 -28 6 3
10 1 10 -5 0 -6 4 -9 8 -6 5 3 9 -1 9 -8 0 -7 -6 -13 -13 -13 -7 0 -11 4 -8 8
2 4 -5 7 -16 6 -19 -1 -19 -2 3 -26 12 -14 33 -34 45 -44 15 -13 20 -22 13
-27 -8 -4 -4 -13 11 -26 20 -17 21 -17 8 -1 -8 11 -10 21 -4 25 15 11 14 44
-1 38 -9 -3 -12 0 -8 10 7 19 28 2 28 -23 0 -9 5 -18 11 -20 14 -5 11 31 -4
50 -7 7 -9 17 -5 21 4 4 0 4 -10 0 -9 -3 -17 -2 -17 4 0 6 -15 28 -32 50 -18
21 -43 52 -55 68 -16 21 -22 24 -22 13z"/>
<path d="M1734 3486 c18 -24 22 -36 13 -39 -9 -3 -8 -9 4 -23 9 -10 31 -44 48
-74 17 -30 44 -71 61 -90 l29 -35 1 40 c0 23 -9 54 -20 73 -20 33 -37 44 -26
16 3 -9 2 -12 -5 -9 -5 4 -7 15 -4 25 5 14 -4 26 -34 45 -22 15 -38 32 -36 38
4 12 -38 67 -51 67 -3 0 5 -15 20 -34z"/>
<path d="M1586 3482 c-3 -5 0 -9 7 -9 7 -1 28 -4 47 -8 35 -6 35 -6 10 9 -28
17 -56 20 -64 8z"/>
<path d="M2690 3409 c-33 -44 -60 -85 -60 -90 0 -19 17 1 61 71 40 63 59 84
59 62 0 -4 -14 -30 -30 -56 -27 -42 -28 -47 -10 -41 26 8 57 -2 64 -21 5 -12
2 -12 -15 -3 -30 15 -60 5 -115 -40 -26 -22 -51 -38 -55 -35 -4 2 -11 -1 -15
-7 -4 -8 -3 -9 4 -5 7 4 12 3 12 -3 0 -5 -20 -26 -45 -47 -59 -48 -51 -55 13
-10 27 19 53 32 58 28 4 -4 4 -1 -1 7 -5 9 6 26 35 52 24 22 46 36 49 33 3 -3
-11 -21 -31 -40 -21 -19 -34 -34 -28 -34 5 0 11 4 15 10 3 5 12 7 20 4 8 -4
12 -11 8 -17 -4 -7 1 -8 13 -4 18 6 18 6 1 -6 -23 -15 -115 -82 -142 -102 -10
-8 -16 -15 -12 -15 14 0 63 28 76 44 7 8 18 13 25 10 19 -7 63 32 75 67 10 28
9 30 -12 24 -21 -6 -21 -5 -4 8 13 11 15 16 5 20 -16 6 53 37 82 37 33 0 23
-19 -15 -26 -19 -3 -38 -11 -41 -16 -4 -6 2 -8 15 -3 19 6 20 4 11 -21 -17
-43 -43 -83 -51 -78 -4 2 -11 -1 -15 -7 -4 -8 -3 -9 4 -5 23 14 12 -7 -29 -55
-47 -56 -41 -64 11 -16 98 90 130 117 140 117 24 0 -15 -43 -118 -128 -60 -49
-123 -109 -141 -133 -31 -41 -30 -41 16 9 48 51 85 74 47 30 l-19 -23 22 19
c13 10 20 22 17 27 -2 5 12 19 33 33 21 13 51 38 67 55 16 16 33 28 38 25 14
-9 9 -22 -12 -29 -11 -3 -20 -10 -20 -15 0 -5 20 2 44 16 24 13 65 27 92 29
49 5 73 15 36 15 -12 0 -22 6 -22 13 0 8 -4 7 -10 -3 -5 -8 -10 -11 -10 -7 0
4 -10 3 -22 -3 -22 -11 -22 -10 -4 4 11 9 16 16 10 16 -5 0 0 8 11 16 14 11
16 18 7 21 -6 3 -10 9 -7 13 3 5 0 12 -6 16 -8 4 -9 3 -5 -4 4 -7 1 -12 -9
-12 -11 0 -15 5 -11 15 4 12 2 14 -11 6 -11 -6 -25 -6 -38 0 -20 10 -20 10 -1
-5 11 -9 15 -16 9 -16 -7 0 -15 5 -18 10 -4 6 -10 8 -15 5 -4 -3 -3 6 3 19 6
13 16 22 22 20 6 -3 19 12 28 31 10 20 13 33 7 30 -15 -9 -67 49 -73 82 -7 36
-1 42 18 17 8 -10 15 -14 15 -7 0 6 -4 14 -10 18 -5 3 -7 13 -4 23 5 14 4 15
-5 2 -6 -8 -11 -10 -11 -4 0 5 5 15 11 21 7 7 6 12 -6 16 -11 5 -32 -16 -75
-74z m180 -223 c0 -2 -16 -20 -36 -41 -24 -25 -39 -34 -45 -28 -7 7 2 21 28
42 34 28 53 38 53 27z"/>
<path d="M2235 3436 c-32 -25 -64 -54 -71 -64 -17 -24 -43 -100 -37 -106 6 -6
117 116 150 167 14 20 24 40 21 42 -3 3 -31 -15 -63 -39z"/>
<path d="M1246 3461 c-6 -10 -64 -25 -86 -22 -13 2 -13 1 0 -8 8 -6 11 -11 5
-11 -5 0 1 -7 13 -16 12 -8 20 -20 17 -25 -4 -5 2 -9 12 -10 16 0 16 -1 -2 -8
-25 -11 -35 -5 -30 17 2 14 -3 18 -27 16 -16 -1 -32 -5 -36 -9 -4 -4 0 -6 8
-5 27 4 37 0 37 -15 0 -11 -3 -12 -14 -3 -11 8 -18 6 -33 -10 -19 -20 -19 -21
-1 -19 12 1 17 6 13 17 -3 8 9 2 26 -14 18 -17 32 -24 32 -18 0 7 -4 12 -10
12 -5 0 -10 4 -10 10 0 14 55 4 86 -17 l29 -18 -24 34 c-24 33 -24 34 -6 47
10 8 14 14 9 14 -6 0 -15 -5 -20 -10 -13 -13 -46 21 -36 37 5 8 18 6 44 -7
l37 -18 -15 29 c-20 39 -4 37 19 -2 10 -18 20 -29 24 -26 3 4 1 13 -6 20 -9
12 -7 14 13 12 18 -2 23 1 19 12 -5 12 -7 12 -14 1 -6 -9 -9 -10 -9 -1 0 7 -7
10 -15 7 -8 -4 -15 -1 -15 5 0 13 -26 15 -34 2z"/>
<path d="M1600 3450 c0 -5 4 -9 8 -7 10 3 132 -127 132 -141 0 -13 116 -186
136 -202 22 -19 23 -11 12 50 -12 58 -47 118 -95 160 -15 14 -40 47 -55 73
-19 33 -35 48 -55 52 -15 4 -36 10 -45 16 -23 12 -38 12 -38 -1z m243 -220
c10 -16 15 -30 12 -30 -3 0 -1 -8 4 -18 7 -14 6 -19 -4 -19 -8 0 -12 4 -9 8 2
4 -6 18 -18 30 -17 16 -18 20 -6 16 12 -4 15 -2 11 8 -3 8 -9 12 -14 9 -5 -3
-9 2 -9 10 0 25 14 19 33 -14z"/>
<path d="M1250 3375 c0 -29 117 -135 149 -135 5 0 11 -3 13 -7 2 -5 16 -19 32
-33 l29 -25 -16 25 c-30 43 -18 45 18 3 35 -41 105 -90 105 -74 0 5 -17 21
-37 37 -21 15 -56 46 -77 68 -22 22 -37 32 -33 23 3 -9 2 -19 -2 -22 -10 -6
-23 23 -16 34 5 10 -80 101 -95 101 -17 0 -11 -18 8 -24 21 -7 91 -76 76 -76
-5 0 -42 25 -81 55 -40 30 -73 52 -73 50z"/>
<path d="M1461 3353 c0 -4 4 -17 9 -28 6 -14 9 -15 10 -5 0 8 7 2 14 -15 14
-31 11 -59 -5 -49 -6 3 -7 15 -3 26 5 17 3 20 -10 15 -10 -4 -14 -3 -11 3 3 5
-4 14 -16 20 -50 27 -2 -40 110 -151 95 -95 136 -127 225 -180 60 -35 125 -78
143 -97 l33 -33 -6 43 c-8 47 -58 139 -112 205 -23 29 -47 47 -76 55 -22 7
-67 27 -98 45 -31 18 -61 33 -67 33 -16 0 -81 33 -81 41 0 9 41 -1 58 -14 8
-6 12 -6 12 0 0 6 -24 25 -52 44 -29 18 -59 37 -65 42 -7 4 -13 4 -12 0z m131
-146 c11 -20 34 -22 42 -4 4 6 5 3 3 -8 -3 -16 1 -21 17 -22 12 -1 15 1 9 4
-7 3 -13 10 -13 16 1 7 9 2 19 -10 20 -24 38 -32 25 -11 -8 13 12 3 38 -20 9
-7 21 -11 26 -8 6 3 12 -1 15 -9 4 -8 1 -13 -6 -11 -7 1 -9 1 -4 -1 4 -3 5
-10 1 -16 -3 -7 3 -2 14 10 19 22 20 22 37 3 11 -12 13 -20 7 -20 -7 0 -12 5
-12 10 0 6 -5 10 -12 10 -6 0 -3 -8 7 -20 10 -11 22 -17 28 -13 5 3 7 1 4 -4
-4 -6 5 -18 19 -28 15 -10 23 -22 20 -31 -3 -8 1 -14 9 -14 20 0 19 -10 -2
-26 -15 -12 -16 -13 -2 -8 10 3 19 1 22 -3 9 -15 -31 -12 -43 3 -7 7 -16 11
-21 8 -5 -3 -9 -1 -9 5 0 5 8 15 18 20 9 6 12 11 6 11 -6 0 -17 -7 -24 -15
-13 -16 -35 -21 -25 -6 3 5 -4 12 -15 16 -11 3 -20 13 -20 22 0 11 -6 14 -26
9 -16 -4 -23 -3 -20 3 4 5 2 12 -3 16 -6 3 -7 13 -4 23 6 16 6 16 -11 0 -21
-22 -40 -23 -32 -3 3 8 1 15 -4 15 -6 0 -10 5 -10 11 0 5 6 7 13 3 7 -5 6 2
-4 16 -11 16 -25 24 -45 24 -34 0 -64 23 -64 49 0 11 -4 15 -12 11 -6 -4 -8
-3 -5 4 10 15 38 9 49 -11z"/>
<path d="M1120 3320 c-7 -4 -20 -6 -29 -3 -14 4 -14 3 -1 -5 8 -6 18 -8 22 -6
4 3 5 -2 2 -10 -3 -9 -12 -12 -21 -9 -11 4 -14 2 -9 -5 4 -7 3 -12 -3 -12 -5
0 -13 9 -16 21 -4 11 -9 18 -11 16 -3 -2 0 -16 7 -30 12 -27 55 -53 61 -36 2
6 11 7 21 4 9 -4 14 -11 11 -16 -3 -5 3 -6 12 -2 10 4 15 2 11 -3 -3 -5 6 -11
21 -12 31 -2 23 5 -41 39 -21 11 -37 25 -34 32 5 17 29 16 50 -2 15 -12 17
-13 12 0 -10 23 -50 48 -65 39z"/>
<path d="M1193 3315 c-3 -9 3 -25 12 -35 14 -16 15 -20 4 -20 -24 -1 54 -60
93 -71 20 -5 44 -16 52 -24 17 -17 36 -20 36 -4 0 5 5 7 10 4 6 -4 8 -10 5
-15 -3 -5 0 -12 6 -16 8 -4 9 -3 5 4 -11 18 0 14 45 -13 22 -14 45 -23 51 -19
7 5 8 3 3 -5 -4 -7 -16 -11 -26 -8 -11 3 -19 1 -19 -4 0 -5 9 -9 21 -9 13 0
18 -4 13 -12 -4 -7 -3 -8 5 -4 6 4 9 11 6 16 -3 5 -1 11 4 14 13 9 38 -3 45
-20 4 -11 1 -14 -13 -9 -11 3 -22 2 -25 -3 -3 -5 13 -9 35 -8 35 0 38 2 23 13
-10 7 -15 15 -12 18 3 3 17 -4 32 -16 21 -16 24 -24 15 -30 -7 -4 -16 -6 -19
-4 -4 2 -7 -2 -7 -10 0 -10 4 -12 12 -5 7 6 16 5 25 -3 10 -10 12 -9 7 4 -3 9
-2 20 1 25 4 5 6 8 4 8 -2 -1 -14 9 -28 23 -14 14 -31 23 -37 20 -17 -6 -93
47 -89 62 1 7 -2 10 -8 6 -6 -4 -24 5 -41 19 -17 15 -35 23 -41 20 -5 -3 -16
2 -24 12 -14 18 -14 17 -4 -4 6 -13 17 -21 24 -19 8 3 35 -12 61 -34 56 -47
53 -50 -9 -9 -24 17 -48 29 -53 28 -4 -2 -33 9 -63 23 -30 15 -68 32 -84 38
-22 9 -26 15 -17 21 11 6 8 11 -9 20 -15 8 -20 18 -17 31 6 23 -1 26 -10 4z"/>
<path d="M2338 3303 c-9 -16 -35 -48 -58 -73 -23 -25 -51 -62 -62 -83 -11 -22
-22 -37 -24 -34 -3 3 2 19 11 36 8 17 13 31 11 31 -3 0 -11 -10 -17 -22 -16
-30 -20 -88 -6 -88 14 0 97 87 97 103 0 12 8 29 54 110 28 49 22 68 -6 20z"/>
<path d="M2539 3304 c-13 -14 -19 -25 -14 -24 26 6 26 -2 0 -30 -21 -22 -32
-27 -41 -19 -15 12 -54 -24 -99 -91 -49 -72 -49 -78 -1 -25 34 37 45 44 41 27
-2 -12 -16 -34 -32 -48 -45 -43 7 -4 62 46 28 25 64 55 80 68 26 19 27 22 8
17 -13 -4 -23 -2 -23 3 0 13 25 33 32 27 3 -3 5 2 5 12 0 35 3 44 13 38 6 -3
7 1 4 9 -8 20 -6 21 -35 -10z m-59 -95 c0 -8 5 -7 15 1 9 7 18 11 20 8 3 -3
-14 -21 -38 -41 -33 -27 -44 -32 -43 -19 3 38 46 85 46 51z"/>
<path d="M1220 3312 c0 -8 71 -52 85 -52 4 0 -7 10 -26 23 -53 36 -59 39 -59
29z"/>
<path d="M1035 3268 c4 -11 -5 -20 -32 -32 -21 -9 -28 -15 -15 -12 19 4 22 1
17 -15 -5 -14 -3 -17 9 -13 9 4 18 0 22 -9 5 -15 74 -21 74 -6 0 4 -13 6 -30
4 -16 -2 -32 0 -35 6 -4 5 -1 9 6 9 6 0 1 9 -12 20 -29 23 -22 25 17 5 41 -21
64 -19 34 2 -14 10 -29 17 -33 15 -5 -1 -6 2 -3 7 3 5 -1 14 -9 21 -13 11 -14
10 -10 -2z"/>
<path d="M2632 3205 c-17 -14 -34 -25 -40 -25 -5 0 -15 -7 -22 -15 -7 -8 -29
-20 -50 -26 -30 -9 -145 -99 -127 -99 18 0 124 55 135 71 7 10 40 37 72 59 32
22 62 44 65 50 10 17 -2 11 -33 -15z"/>
<path d="M977 3203 c-4 -3 -2 -12 4 -19 6 -8 9 -20 6 -28 -4 -10 -1 -13 8 -10
14 6 14 -2 3 -45 -1 -7 6 -15 17 -17 11 -2 34 -6 51 -10 18 -3 34 -2 37 3 3 4
-6 9 -19 10 -46 4 -52 6 -47 20 3 7 0 13 -6 13 -6 0 -11 4 -11 10 0 5 8 7 18
4 16 -5 16 -5 0 9 -10 8 -18 20 -18 28 0 12 -2 12 -9 1 -6 -11 -10 -10 -16 5
-5 10 -7 21 -7 26 2 9 -3 9 -11 0z"/>
<path d="M1141 3179 c21 -8 25 -15 22 -37 -3 -19 -2 -23 5 -13 8 10 14 11 32
1 12 -6 35 -13 52 -16 17 -2 36 -9 44 -15 23 -19 16 6 -8 27 -12 10 -18 13
-14 7 9 -16 -46 -7 -84 13 -22 12 -23 13 -5 14 15 1 11 5 -14 15 -18 8 -38 15
-45 14 -6 0 1 -5 15 -10z"/>
<path d="M2990 3154 c0 -8 -4 -12 -10 -9 -5 3 -10 1 -10 -6 0 -7 -2 -10 -5 -7
-3 3 -17 -4 -30 -16 -14 -12 -20 -25 -15 -30 5 -5 24 4 45 23 20 17 40 31 45
31 22 0 7 -22 -35 -52 -52 -37 -52 -45 0 -23 21 8 40 13 42 11 6 -6 -51 -35
-75 -39 -10 -1 -36 -17 -57 -34 -21 -18 -43 -29 -49 -26 -6 3 -6 0 1 -7 10
-11 29 -3 100 37 98 56 149 83 158 83 16 0 -11 -23 -53 -45 -26 -13 -42 -24
-37 -24 22 -1 109 55 111 71 1 11 -3 15 -12 11 -8 -3 -14 1 -14 8 -1 9 -4 8
-11 -3 -5 -10 -14 -18 -19 -18 -5 0 -7 8 -4 18 5 14 4 14 -4 2 -6 -8 -8 -18
-6 -22 3 -4 0 -8 -5 -8 -11 0 -13 11 -14 57 0 15 -4 20 -15 15 -10 -3 -13 -1
-8 6 4 7 2 12 -3 12 -6 0 -11 -7 -11 -16z"/>
<path d="M1280 3157 c7 -7 112 -47 125 -47 16 0 -29 27 -55 33 -14 3 -36 9
-50 13 -14 4 -23 4 -20 1z"/>
<path d="M2641 3131 c-19 -10 -35 -25 -37 -33 -6 -43 -43 -93 -116 -155 -119
-101 -130 -112 -122 -125 4 -6 3 -8 -3 -5 -5 3 -27 -12 -48 -33 -46 -47 -35
-53 16 -11 20 17 48 33 62 36 14 4 46 28 69 53 24 26 47 46 51 44 5 -1 6 1 3
6 -3 5 6 20 19 32 14 13 25 27 25 32 0 12 47 84 88 136 19 23 33 42 31 42 -2
-1 -19 -9 -38 -19z"/>
<path d="M2870 3094 c-14 -7 -19 -13 -11 -14 24 0 -5 -24 -79 -65 -38 -21 -78
-48 -87 -59 l-18 -20 30 18 c17 11 46 30 65 43 41 28 60 30 37 5 -10 -10 -14
-22 -10 -27 5 -4 3 -5 -3 -2 -13 7 -120 -48 -199 -103 -51 -35 -48 -45 9 -38
23 2 32 0 29 -8 -3 -7 -36 -14 -86 -17 -45 -2 -93 -7 -107 -11 -14 -3 -37 -8
-52 -11 -25 -6 -60 -35 -42 -35 5 0 45 -3 90 -6 112 -9 160 12 285 122 13 11
63 63 110 115 73 80 85 98 75 111 -10 14 -15 14 -36 2z m-154 -196 c-9 -5 -16
-15 -16 -23 0 -8 -9 -19 -20 -25 -13 -7 -20 -7 -20 -1 0 6 -6 8 -14 5 -20 -8
-28 12 -11 26 8 7 15 9 15 4 0 -5 4 -2 10 6 5 8 12 11 16 7 4 -3 1 -13 -6 -22
-10 -12 -10 -15 4 -15 14 0 21 18 17 43 -1 5 3 6 8 3 5 -3 12 2 16 12 6 13 8
14 12 3 3 -8 -2 -18 -11 -23z m-180 -124 c-3 -9 -12 -14 -21 -10 -8 3 -15 2
-15 -3 0 -17 -26 -7 -27 11 -1 10 3 18 8 18 6 0 7 -4 4 -10 -3 -5 -1 -10 4
-10 6 0 11 6 12 13 0 10 2 10 6 0 7 -19 23 -16 23 4 0 9 3 14 6 10 4 -3 4 -14
0 -23z"/>
<path d="M1382 3090 c5 -16 102 -59 161 -70 58 -11 43 6 -20 22 -72 19 -125
40 -136 53 -5 6 -7 4 -5 -5z"/>
<path d="M2560 3090 c-14 -4 -53 -21 -87 -38 -67 -34 -324 -122 -357 -122 -32
0 -103 -39 -121 -66 -15 -23 -15 -29 1 -82 10 -31 18 -67 19 -79 1 -32 8 -35
41 -18 16 8 39 15 50 15 30 0 155 48 177 68 25 23 107 138 107 151 0 6 5 11
10 11 14 0 12 -23 -2 -40 -20 -22 93 79 127 114 32 32 69 86 63 90 -2 2 -14 0
-28 -4z m-10 -47 c0 -3 -7 -3 -15 1 -8 3 -15 1 -15 -4 0 -5 -7 -7 -16 -3 -14
5 -15 3 -5 -15 7 -12 9 -23 6 -23 -3 -1 -9 -2 -15 -3 -5 0 -16 -10 -24 -21 -8
-11 -20 -20 -28 -20 -7 -1 -12 -7 -10 -15 3 -11 0 -11 -12 -1 -11 10 -19 9
-35 -1 -11 -7 -23 -19 -26 -26 -2 -7 0 -10 5 -7 15 9 12 0 -7 -22 -10 -11 -24
-18 -31 -15 -9 3 -11 -4 -8 -21 3 -18 -4 -33 -28 -56 -22 -21 -33 -27 -33 -17
0 8 4 13 9 10 4 -3 8 -3 8 0 0 3 -5 8 -10 11 -6 3 -14 -5 -20 -19 -10 -28 -30
-35 -30 -11 0 13 -2 14 -14 3 -8 -7 -12 -16 -9 -20 2 -4 -4 -5 -13 -1 -12 5
-15 3 -9 -6 6 -10 2 -11 -15 -6 -17 5 -21 4 -15 -6 6 -9 3 -10 -10 -5 -11 4
-22 2 -26 -6 -7 -10 -11 -10 -21 0 -6 6 -17 12 -22 12 -6 0 -4 -5 4 -10 12 -7
10 -9 -8 -7 -16 1 -21 6 -16 19 3 10 0 26 -6 35 -10 16 -11 16 -5 -2 5 -15 3
-17 -5 -9 -13 13 -4 104 10 104 4 0 10 10 13 22 4 12 9 19 12 16 3 -3 33 3 66
13 34 11 65 17 69 14 5 -3 10 -1 12 3 1 5 16 12 31 16 19 4 26 3 22 -4 -3 -5
-1 -10 4 -10 6 0 11 8 11 18 0 13 2 14 9 3 7 -11 11 -10 21 5 8 14 10 15 7 3
-7 -22 29 -13 46 11 15 22 63 39 53 19 -4 -8 -1 -6 6 3 33 39 138 78 138 51z"/>
<path d="M2464 3018 c-14 -6 -21 -19 -21 -35 0 -24 0 -24 10 -7 6 10 10 21 8
22 -1 2 6 10 16 18 21 16 16 17 -13 2z"/>
<path d="M1200 3079 c0 -5 7 -9 15 -9 9 0 28 -6 43 -14 29 -15 162 -28 162
-16 0 4 -21 10 -46 14 -26 3 -53 11 -60 17 -17 14 -114 21 -114 8z"/>
<path d="M3104 3051 c-21 -15 -68 -38 -104 -49 -105 -33 -193 -77 -225 -112
l-30 -32 35 7 c44 9 80 26 150 70 58 38 93 47 48 14 -15 -11 -31 -20 -35 -20
-4 0 -16 -8 -25 -16 -17 -15 -17 -17 0 -29 15 -12 14 -13 -14 -14 -17 0 -53
-6 -80 -14 -27 -8 -60 -16 -74 -20 -14 -3 -41 -17 -60 -32 l-35 -26 63 6 c37
3 75 14 90 25 27 18 67 37 130 61 38 15 68 49 77 90 8 36 30 57 38 36 3 -8
-10 -41 -29 -73 l-35 -58 29 28 c22 21 31 25 35 15 4 -9 6 -8 6 4 1 20 56 53
102 63 22 4 29 3 21 -3 -11 -7 -10 -10 3 -16 25 -9 43 -8 27 3 -7 4 -14 17
-15 28 -1 20 -1 20 -44 2 -24 -10 -43 -14 -43 -9 0 6 -5 10 -11 10 -5 0 -7 -4
-4 -10 7 -11 -8 -14 -18 -4 -10 10 4 34 21 34 8 0 13 3 9 6 -3 3 5 17 19 31
22 22 29 33 21 33 -2 0 -21 -13 -43 -29z"/>
<path d="M1045 3041 c0 -24 5 -27 58 -35 62 -10 80 -28 20 -20 -80 10 -78 11
-75 -15 1 -14 -3 -28 -10 -32 -9 -6 -2 -11 19 -15 18 -4 30 -10 27 -15 -3 -5
-9 -7 -14 -4 -4 3 -11 -2 -14 -10 -5 -14 -8 -14 -31 1 -14 9 -25 21 -25 26 0
5 7 2 16 -6 8 -9 20 -16 27 -16 6 0 -4 11 -22 25 -19 13 -43 38 -55 54 -24 36
-61 43 -53 11 5 -20 -7 -28 -18 -10 -3 5 -13 6 -22 3 -12 -5 -14 -3 -8 8 7 12
6 12 -7 1 -9 -7 -18 -9 -20 -4 -1 5 -12 0 -23 -11 -20 -20 -20 -20 0 -9 17 9
23 6 37 -18 13 -23 13 -28 2 -23 -11 4 -13 -2 -8 -26 4 -17 3 -31 -2 -31 -16
1 -41 25 -38 38 1 7 0 8 -2 3 -3 -6 -13 -7 -22 -4 -15 4 -15 3 -2 -6 10 -8 12
-13 4 -18 -6 -5 -10 -16 -8 -25 1 -10 -2 -18 -7 -18 -5 0 -9 -11 -9 -25 0 -14
-7 -28 -15 -31 -8 -4 -15 -13 -15 -22 0 -13 3 -12 15 4 19 25 19 11 0 -26 -14
-27 -14 -29 2 -23 16 6 17 5 3 -13 -11 -15 -11 -16 0 -6 20 18 29 15 25 -8 -2
-12 0 -18 6 -15 5 4 7 11 4 16 -9 14 27 10 55 -6 28 -16 19 -20 -11 -5 -13 7
-19 7 -19 1 0 -6 -11 -13 -24 -17 -14 -3 -32 -15 -42 -25 -17 -19 -17 -20 1
-13 12 5 16 4 12 -3 -5 -8 4 -8 29 -3 48 11 58 24 12 16 -21 -4 -38 -3 -38 2
0 11 57 22 111 22 25 0 36 4 36 15 0 8 -3 15 -6 16 -23 3 -52 9 -86 20 -69 20
-71 21 -57 26 6 3 9 10 5 16 -4 7 0 8 10 4 46 -19 50 -17 22 7 -32 27 -23 37
11 11 10 -8 23 -15 29 -15 5 0 -7 12 -28 27 -35 25 -47 43 -28 43 5 0 14 -7
21 -15 7 -9 19 -14 26 -11 8 3 11 0 7 -10 -3 -8 -2 -14 3 -13 19 3 35 -1 30
-9 -2 -4 4 -8 15 -8 10 0 19 4 19 8 0 4 5 8 11 8 6 0 9 -7 5 -15 -3 -8 -2 -15
3 -15 5 0 11 10 14 21 4 16 11 20 27 16 17 -4 19 -3 9 9 -13 16 -44 20 -34 4
11 -19 -53 -3 -99 24 -45 26 -62 44 -30 32 14 -5 15 -4 4 9 -18 22 -4 18 37
-9 19 -14 41 -22 48 -20 7 3 31 -4 54 -16 58 -29 51 -17 -16 27 -81 53 -80 52
-64 62 11 7 11 13 -3 32 -23 34 -20 39 14 23 32 -17 45 -31 45 -54 0 -21 24
-50 70 -86 74 -57 111 -68 135 -39 9 10 9 15 1 15 -6 0 -11 -5 -11 -11 0 -8
-5 -8 -15 1 -9 7 -15 8 -15 2 0 -5 -9 -8 -20 -5 -22 6 -22 24 0 31 7 3 10 0 7
-5 -4 -5 7 -7 26 -4 l32 5 -30 6 c-17 3 -29 12 -27 19 1 7 -1 10 -6 7 -4 -2
-14 -1 -22 5 -11 6 -7 9 15 10 17 0 24 3 18 6 -19 7 -16 19 10 30 24 11 105
-5 167 -34 24 -11 35 -12 38 -5 3 9 9 9 23 2 10 -6 19 -8 19 -4 0 3 7 1 15 -6
10 -9 15 -9 15 -1 0 6 7 11 15 11 8 0 15 -7 15 -15 0 -8 5 -15 11 -15 5 0 7 5
4 10 -7 11 23 9 42 -3 6 -4 17 -6 25 -4 7 2 9 2 5 -1 -9 -5 51 -77 139 -165
34 -34 76 -89 94 -122 40 -73 32 -65 74 -75 32 -7 41 -4 88 31 39 29 61 39 90
39 44 0 42 -7 23 120 -23 150 -29 169 -78 218 -59 59 -118 73 -254 62 -54 -5
-125 -15 -158 -24 -69 -18 -115 -22 -165 -13 -19 4 -71 13 -114 21 -53 10 -87
11 -104 5 -20 -8 -23 -7 -18 6 4 13 2 14 -14 5 -23 -12 -30 -13 -30 -1 0 10
61 34 68 26 7 -7 62 24 62 35 0 6 23 10 52 10 58 0 61 7 5 14 -20 2 -40 7 -46
10 -5 3 -11 -4 -14 -15 -4 -16 -10 -20 -24 -14 -10 4 -37 10 -61 12 -23 3 -45
10 -49 16 -4 7 6 8 28 3 36 -7 30 3 -11 21 -24 10 -26 9 -25 -16z m-99 -56 c8
-8 26 -39 40 -70 14 -31 37 -63 50 -72 15 -10 21 -20 16 -25 -9 -9 -94 42
-109 65 -18 29 -10 38 14 16 26 -24 24 -15 -8 31 -19 28 -34 70 -24 70 4 0 13
-7 21 -15z m767 -67 c-5 -10 11 -10 21 -1 11 11 36 12 36 1 0 -7 5 -6 14 1 8
7 16 8 18 2 1 -5 17 -10 33 -12 17 -2 38 -10 48 -18 17 -14 17 -16 -3 -31
l-21 -16 25 1 c13 0 28 4 32 8 5 4 0 5 -11 2 -16 -5 -17 -5 -5 3 16 12 33 5
24 -9 -3 -6 2 -17 12 -24 17 -13 17 -16 4 -25 -13 -8 -13 -10 2 -10 11 0 15
-5 12 -15 -4 -9 0 -15 7 -15 11 0 11 -3 -1 -10 -10 -6 -11 -10 -3 -10 13 0 14
-11 13 -84 0 -21 5 -46 12 -54 10 -13 10 -14 1 -8 -7 4 -13 2 -13 -3 0 -6 5
-11 12 -11 6 0 8 -3 5 -7 -4 -3 -17 2 -28 13 -22 19 -22 19 -11 -3 9 -16 9
-22 -2 -26 -7 -3 -19 0 -26 6 -10 9 -11 9 -8 -3 5 -15 -58 -67 -74 -62 -5 1
-8 -3 -8 -10 0 -6 -9 -1 -20 12 -18 20 -20 21 -20 5 0 -18 -1 -18 -16 1 -8 10
-13 13 -9 7 3 -7 4 -13 1 -13 -12 0 -66 121 -60 132 4 6 3 8 -3 5 -6 -4 -28 7
-48 23 -21 17 -32 30 -24 31 11 0 11 2 -1 6 -8 4 -21 13 -28 22 -8 10 -11 10
-6 2 4 -9 3 -12 -4 -7 -16 9 -3 36 14 29 7 -3 1 9 -14 25 -27 30 -46 36 -22 7
11 -13 10 -14 -4 -9 -9 3 -19 17 -22 30 -3 13 -10 24 -16 24 -5 0 -6 -6 -2
-12 5 -9 2 -8 -10 1 -13 11 -14 16 -4 22 6 4 16 5 22 2 5 -3 6 -1 2 6 -4 6
-12 9 -17 5 -5 -3 -15 -1 -22 4 -7 6 -22 12 -35 14 -24 3 -31 20 -11 27 7 2 9
-1 5 -8 -4 -6 -3 -11 3 -11 5 0 14 6 18 14 4 8 26 17 48 20 55 8 87 15 91 18
6 7 102 2 97 -4z"/>
<path d="M2751 3045 c-32 -14 -99 -64 -199 -148 -24 -21 -56 -45 -69 -54 -13
-9 -21 -18 -19 -21 11 -10 147 80 221 148 46 42 84 69 92 66 8 -3 12 -2 8 3
-3 5 1 12 7 14 7 3 9 6 3 6 -5 0 -25 -6 -44 -14z"/>
<path d="M1330 3010 c0 -7 70 -18 160 -25 100 -8 177 -16 204 -21 18 -4 26 -2
22 4 -6 11 -55 21 -125 28 -26 2 -64 7 -86 10 -57 10 -175 12 -175 4z"/>
<path d="M1650 3016 c0 -6 122 -48 127 -43 2 3 -12 11 -31 18 -20 7 -36 15
-36 19 0 3 -14 6 -30 7 -17 1 -30 1 -30 -1z"/>
<path d="M1267 2973 c-14 -13 -6 -22 29 -33 43 -14 129 -14 203 0 87 16 73 21
-46 14 -115 -7 -188 0 -178 17 7 10 2 12 -8 2z"/>
<path d="M3121 2936 c-17 -9 -20 -15 -11 -21 8 -5 -7 -21 -44 -47 -31 -22 -56
-41 -56 -43 0 -2 17 2 38 9 20 7 57 17 82 21 43 7 107 34 83 35 -6 0 -19 3
-29 7 -12 5 -15 3 -9 -6 6 -10 2 -11 -15 -6 -15 5 -20 4 -16 -4 4 -6 1 -11 -8
-11 -8 0 -18 5 -22 12 -4 7 -3 8 4 4 7 -4 12 -1 12 9 0 11 5 15 14 12 10 -4
13 -1 9 9 -4 10 3 14 23 15 25 0 26 1 9 9 -28 12 -36 11 -64 -4z"/>
<path d="M3021 2876 c-6 -8 -50 -26 -97 -41 -46 -16 -92 -34 -102 -41 -15 -12
-15 -13 8 -14 14 0 40 4 59 10 43 12 139 69 145 87 7 17 1 17 -13 -1z"/>
<path d="M1181 2872 c-1 -10 -11 -12 -33 -8 l-33 6 30 -11 c53 -19 74 -32 68
-42 -3 -6 -1 -7 5 -3 6 3 13 -2 15 -11 4 -17 5 -17 6 -1 0 10 -10 25 -23 34
-14 8 -27 23 -29 32 -3 10 -5 11 -6 4z"/>
<path d="M3210 2855 c0 -8 -12 -17 -27 -21 -16 -3 -43 -10 -61 -14 -19 -5 -40
-6 -47 -4 -7 3 -19 -4 -25 -16 -8 -15 -8 -20 -1 -16 6 4 11 3 11 -2 0 -10
-130 -77 -165 -85 -11 -3 -4 -5 16 -6 23 -1 46 7 63 20 15 12 29 19 32 16 3
-2 -6 -14 -20 -25 l-26 -20 39 -6 c39 -6 70 -29 53 -40 -5 -3 -47 -2 -93 2
-91 9 -99 9 -206 -9 -66 -11 -73 -10 -100 9 -15 11 -47 25 -70 31 -23 6 -45
16 -48 21 -3 5 -31 14 -63 21 -31 7 -64 14 -72 16 -42 9 -122 4 -175 -13 l-60
-18 50 -7 c110 -15 164 -29 226 -57 35 -17 91 -33 124 -37 82 -9 109 -14 136
-23 33 -12 100 5 124 31 18 21 30 24 53 17 4 -1 11 -2 15 -1 4 1 17 -3 27 -9
12 -7 20 -7 20 -1 0 5 -8 12 -17 14 -14 4 -15 5 -2 6 8 0 26 -9 39 -21 18 -17
22 -18 17 -5 -4 11 -1 17 9 17 9 0 12 -5 8 -12 -5 -9 -2 -9 9 1 14 11 17 11
17 0 0 -10 3 -10 11 -2 6 6 19 9 28 6 14 -4 14 -3 1 6 -13 9 -13 11 0 12 8 1
17 1 20 1 3 0 6 9 7 21 0 12 -1 17 -4 10 -2 -7 -11 -9 -19 -6 -13 5 -13 8 -2
15 10 8 9 9 -4 4 -25 -7 -48 36 -27 50 5 3 7 10 4 15 -6 9 14 13 45 10 13 -2
13 -1 0 8 -13 9 -13 12 0 24 21 20 74 32 64 15 -5 -8 3 -6 19 5 14 9 31 17 37
17 17 0 42 29 35 40 -9 15 -25 12 -25 -5z m-822 -149 c6 -4 17 -4 22 -1 16 10
40 -14 41 -39 0 -20 1 -20 8 -1 5 11 7 23 5 27 -2 3 5 4 16 1 11 -3 20 -10 20
-15 0 -5 5 -6 11 -3 5 4 18 0 28 -9 10 -9 33 -18 51 -21 31 -4 55 -15 32 -15
-7 0 -12 -8 -13 -17 0 -14 -2 -15 -6 -3 -7 17 -23 30 -38 30 -5 -1 -1 -7 9
-15 11 -8 15 -15 9 -15 -7 0 -18 6 -26 14 -11 11 -17 12 -26 3 -9 -9 -14 -9
-20 2 -5 8 -16 11 -25 8 -10 -4 -24 1 -35 12 -11 11 -23 16 -26 13 -4 -4 -4 4
-1 18 6 22 6 23 -7 8 -12 -15 -14 -15 -25 2 -7 11 -18 17 -27 14 -8 -3 -13 -9
-10 -13 2 -4 -6 -6 -18 -5 -12 1 -28 3 -34 3 -7 1 -13 6 -13 11 0 7 6 7 18 2
19 -10 45 -5 38 7 -6 10 25 8 42 -3z"/>
<path d="M1110 2841 c8 -6 24 -11 35 -11 17 0 18 -2 5 -11 -12 -9 -11 -10 8
-6 14 3 22 0 22 -8 0 -7 10 -15 23 -18 20 -5 20 -5 5 7 -10 7 -18 18 -18 24 0
7 -12 14 -27 18 -16 3 -37 8 -48 11 -16 3 -17 2 -5 -6z"/>
<path d="M1248 2832 c8 -5 13 -12 13 -16 -3 -21 4 -26 55 -41 31 -9 58 -14 61
-11 3 2 -15 10 -38 16 -55 13 -74 24 -74 40 0 7 -7 15 -15 17 -12 4 -12 3 -2
-5z"/>
<path d="M1286 2826 c3 -9 9 -15 12 -14 11 3 83 -23 172 -64 l85 -38 -38 34
c-50 44 -97 66 -161 75 -28 4 -57 10 -64 15 -8 5 -10 2 -6 -8z"/>
<path d="M2993 2800 c-18 -4 -39 -13 -47 -19 -9 -8 -66 -14 -153 -16 -79 -3
-163 -11 -196 -20 -32 -8 -60 -15 -62 -15 -3 0 -5 -4 -5 -9 0 -5 23 -17 50
-26 46 -15 55 -15 113 -1 37 9 69 24 80 37 11 14 17 17 17 7 0 -8 -6 -20 -12
-27 -18 -17 68 -4 99 15 26 16 47 18 38 4 -11 -18 11 -10 58 21 69 46 75 61
20 49z"/>
<path d="M1020 2760 c41 -22 16 -27 -26 -5 -33 17 -58 20 -49 6 3 -5 19 -12
35 -16 17 -4 30 -10 30 -15 0 -10 33 -7 42 4 3 5 14 2 23 -7 21 -21 21 -21 21
2 0 11 -4 17 -8 15 -4 -3 -24 5 -45 16 -21 11 -42 20 -48 20 -5 -1 6 -9 25
-20z"/>
<path d="M1140 2771 c0 -6 0 -14 0 -18 0 -4 6 -8 13 -8 38 -2 238 -84 267
-110 8 -7 40 -23 70 -35 30 -13 73 -37 94 -54 36 -27 135 -69 145 -60 12 10
-92 154 -112 154 -6 0 -2 -10 9 -22 11 -13 26 -31 33 -40 12 -16 11 -17 -18
-2 -32 16 -43 31 -15 20 14 -5 15 -4 4 9 -12 14 -15 13 -29 -9 -11 -16 -21
-22 -30 -17 -7 5 -12 11 -11 15 2 12 -29 36 -35 27 -3 -5 4 -13 16 -16 11 -4
18 -9 16 -11 -2 -3 -15 0 -29 6 -24 11 -35 40 -15 40 6 0 8 2 5 5 -3 3 -17 1
-32 -5 -19 -7 -25 -7 -21 1 4 6 1 10 -6 8 -33 -4 -40 1 -34 24 6 18 5 20 -6
10 -7 -7 -20 -13 -29 -13 -12 1 -12 2 3 11 9 5 17 15 17 22 0 8 -3 7 -9 -2 -5
-8 -16 -11 -26 -8 -9 4 -14 3 -10 -3 4 -6 -1 -7 -11 -3 -16 6 -16 7 0 18 15
12 34 12 81 1 11 -2 23 -5 27 -5 4 -1 5 -7 2 -15 -3 -8 -1 -17 5 -21 6 -3 11
1 11 9 0 9 5 16 10 16 6 0 10 -4 10 -10 0 -5 3 -9 8 -9 22 4 31 -3 25 -18 -5
-15 -3 -14 10 2 13 16 18 18 29 7 11 -11 10 -12 -3 -7 -10 4 -16 0 -16 -9 0
-8 6 -12 13 -9 6 2 15 0 19 -6 9 -16 24 -13 21 3 -4 27 -27 44 -99 69 -61 21
-113 32 -305 62 -12 2 -31 7 -42 10 -11 4 -20 2 -20 -4z m195 -45 c17 2 22 1
13 -2 -10 -3 -18 -9 -18 -14 0 -4 -13 -3 -30 3 -16 6 -30 15 -30 20 0 4 8 3
18 -2 9 -5 31 -7 47 -5z m311 -173 c-3 -7 3 -10 14 -8 11 2 23 -2 26 -8 4 -7
4 -9 -1 -5 -4 4 -14 3 -21 -3 -10 -8 -17 -5 -30 10 -10 11 -20 18 -24 16 -3
-2 -6 4 -7 14 -1 16 2 17 23 7 13 -6 22 -16 20 -23z"/>
<path d="M1056 2692 c-3 -6 1 -13 10 -16 10 -4 13 -2 8 6 -5 8 -1 9 12 4 10
-4 60 -16 109 -27 50 -11 107 -26 128 -34 20 -8 49 -15 63 -15 22 0 24 2 14
15 -14 17 -117 48 -135 41 -7 -2 -33 1 -57 8 -64 20 -145 29 -152 18z"/>
<path d="M2790 2685 c-36 -7 -80 -13 -97 -14 -51 -2 -35 -31 17 -31 24 0 142
38 154 50 11 11 14 12 -74 -5z"/>
<path d="M920 2672 c0 -18 7 -20 63 -19 34 0 73 -3 87 -7 24 -7 24 -7 5 7 -24
17 -56 26 -112 33 -38 5 -43 3 -43 -14z"/>
<path d="M2068 2669 c-39 -15 -54 -80 -29 -127 12 -23 113 -102 130 -102 7 0
17 13 22 30 14 40 25 30 45 -38 9 -31 23 -68 31 -80 8 -13 13 -25 11 -28 -8
-7 -67 41 -77 63 -7 14 -16 20 -26 17 -8 -3 -15 -1 -15 5 0 6 -5 11 -11 11 -5
0 -8 -3 -6 -7 3 -5 -8 -8 -24 -9 -37 -1 -38 12 -1 21 l27 8 -28 12 c-16 6 -32
18 -37 25 -6 9 -11 7 -20 -9 -8 -15 -8 -26 -1 -35 6 -6 8 -21 5 -32 -7 -28 22
-53 39 -34 9 9 9 11 0 6 -6 -3 -14 -2 -17 3 -6 10 26 21 61 21 12 0 25 -5 29
-12 5 -7 2 -8 -7 -3 -8 4 -3 -3 11 -17 14 -13 30 -24 35 -24 6 1 9 -5 7 -13
-2 -8 3 -11 12 -8 9 4 17 -2 21 -14 7 -21 7 -21 22 1 8 11 24 52 34 90 l20 69
-29 73 c-28 69 -43 86 -101 114 -7 4 -17 1 -23 -7 -8 -11 -9 -11 -5 2 12 36
-44 50 -105 28z m81 -17 c7 -1 11 -8 7 -17 -5 -14 10 -19 52 -18 7 1 18 -10
24 -23 6 -13 18 -24 26 -24 9 0 12 -3 9 -7 -4 -3 1 -12 11 -20 15 -13 15 -14
1 -10 -13 4 -15 1 -12 -14 3 -10 9 -17 13 -14 4 3 13 -2 20 -10 11 -13 10 -14
-2 -10 -12 5 -14 0 -11 -19 3 -14 9 -26 14 -26 5 0 9 -5 9 -11 0 -5 -5 -7 -11
-3 -8 4 -9 -1 -4 -17 7 -22 6 -23 -9 -10 -10 8 -15 23 -13 33 3 10 1 18 -4 18
-5 0 -9 -8 -10 -17 0 -12 -2 -13 -6 -5 -3 7 0 19 7 27 15 18 4 36 -17 28 -10
-4 -14 -2 -10 4 11 18 -25 24 -43 8 -14 -12 -20 -13 -25 -4 -6 8 -10 7 -17 -5
-5 -9 -14 -14 -19 -10 -6 4 -6 10 1 19 8 10 6 13 -7 11 -10 0 -18 5 -18 12 0
15 -26 33 -37 26 -5 -3 -7 -2 -6 3 1 4 -3 17 -9 29 -15 27 -10 57 10 60 10 1
14 -3 10 -12 -3 -8 -1 -14 5 -14 6 0 9 10 8 23 -3 23 5 25 63 19z"/>
<path d="M2206 2669 c3 -5 9 -9 14 -9 5 0 44 -24 87 -54 43 -29 102 -65 130
-79 45 -21 108 -78 108 -96 0 -3 11 -32 25 -64 21 -48 30 -58 59 -67 46 -13
48 -8 11 23 -16 14 -30 28 -30 30 0 3 -13 19 -28 35 -16 17 -29 36 -29 44 0 7
-4 20 -7 29 -14 32 24 15 71 -33 38 -38 43 -48 28 -48 -19 -1 -19 -2 3 -19 30
-26 94 -36 124 -20 13 7 30 14 38 15 8 2 27 5 42 8 15 3 30 2 32 -3 6 -9 -70
-34 -82 -27 -4 3 -14 1 -20 -3 -8 -5 2 -8 24 -9 20 -1 39 -4 42 -7 3 -3 14 3
25 12 11 10 17 12 13 5 -6 -9 5 -11 46 -8 29 2 60 6 68 9 32 11 101 17 96 8
-3 -5 0 -13 7 -19 9 -8 12 -2 14 24 1 19 -2 34 -7 34 -5 0 -7 -6 -4 -13 4 -10
-3 -12 -26 -9 -31 4 -31 5 -8 16 13 7 22 19 20 29 -2 12 2 15 15 10 14 -5 16
-3 6 7 -8 9 -9 19 -3 31 7 12 6 20 -1 25 -8 5 -8 9 1 14 9 5 9 9 1 14 -6 4
-11 3 -11 -3 0 -5 -13 -12 -30 -16 -28 -6 -52 -25 -31 -25 5 0 17 -3 27 -7 11
-4 15 -3 11 4 -4 6 0 13 8 17 8 3 17 1 20 -5 4 -5 -1 -12 -9 -15 -9 -3 -16
-12 -16 -19 0 -8 -8 -16 -17 -18 -17 -4 -17 -5 0 -6 9 0 17 -6 17 -11 0 -6
-16 -8 -37 -5 -21 3 -73 10 -116 16 -43 6 -81 8 -85 5 -3 -3 5 -6 17 -6 27 0
98 -37 104 -55 3 -7 -8 -11 -29 -12 -19 -1 -34 4 -34 9 0 6 7 8 15 4 8 -3 15
-3 15 1 0 11 -35 32 -55 33 -11 0 -71 18 -133 39 -67 23 -115 35 -118 29 -4
-6 -9 -7 -13 -1 -12 19 -137 126 -171 147 -19 12 -53 29 -75 39 l-40 17 30
-26 c63 -55 75 -64 129 -90 52 -25 74 -48 57 -58 -4 -3 -23 8 -42 23 -19 15
-45 31 -59 34 -14 3 -52 31 -84 62 -32 30 -61 55 -65 55 -3 1 -25 5 -48 9 -24
5 -40 4 -37 0z m550 -278 c14 -19 -1 -36 -34 -38 -22 -2 -22 -1 -4 15 10 9 12
13 5 8 -7 -4 -19 -6 -27 -3 -8 3 -17 1 -20 -6 -3 -7 -4 -1 -3 13 1 14 8 24 14
23 7 -2 10 4 6 13 -4 11 -9 12 -16 5 -6 -6 -16 -11 -21 -11 -6 0 -3 7 7 14 15
12 23 12 50 -2 18 -9 37 -22 43 -31z m34 -2 c0 -6 9 -8 23 -3 29 9 20 1 -23
-21 -19 -9 -30 -12 -23 -5 6 7 9 19 6 26 -3 8 0 14 6 14 6 0 11 -5 11 -11z"/>
<path d="M2878 2663 c17 -2 47 -2 65 0 17 2 3 4 -33 4 -36 0 -50 -2 -32 -4z"/>
<path d="M1146 2639 c4 -6 -1 -10 -12 -8 -11 1 -26 -1 -34 -4 -8 -3 -22 -8
-30 -10 -8 -3 2 -6 22 -6 20 -1 43 2 52 5 18 7 22 34 5 34 -5 0 -7 -5 -3 -11z"/>
<path d="M898 2620 c-9 -6 -42 -11 -74 -11 -51 -2 -55 -3 -39 -15 15 -11 20
-11 27 -1 4 7 8 8 8 1 0 -6 -3 -14 -7 -18 -13 -12 -10 -46 4 -46 8 0 11 5 8
10 -7 12 2 12 30 0 11 -5 14 -9 7 -9 -7 -1 -10 -5 -7 -11 3 -5 0 -10 -8 -10
-9 0 -14 -9 -13 -22 1 -14 -4 -22 -12 -20 -8 1 -11 -2 -7 -8 3 -5 -1 -10 -10
-10 -9 0 -19 -9 -22 -20 -6 -23 -19 -26 -26 -7 -2 6 -7 -3 -11 -21 -4 -18 -11
-30 -16 -27 -5 3 -12 0 -16 -6 -4 -8 -3 -9 4 -5 7 4 12 2 12 -4 0 -6 -7 -13
-15 -16 -8 -4 -15 -11 -15 -16 0 -6 7 -5 16 3 12 10 17 10 23 1 4 -7 15 -10
23 -7 9 4 18 0 21 -9 4 -9 2 -16 -3 -16 -6 0 -10 5 -10 11 0 8 -4 8 -13 0 -10
-7 -17 -7 -24 0 -7 7 -13 7 -17 0 -10 -15 24 -29 66 -28 27 1 35 5 33 17 -2 8
3 24 11 34 11 15 22 18 60 13 25 -2 49 -10 53 -15 4 -6 12 -7 20 -3 16 11 -6
20 -74 31 -86 14 -90 16 -90 36 0 14 6 18 23 16 12 -2 22 0 23 5 1 4 2 22 3
38 0 17 9 39 18 49 16 18 19 18 43 2 14 -9 23 -21 20 -25 -2 -5 14 -2 36 5 22
8 45 12 50 8 6 -3 44 -6 85 -6 41 0 74 -3 74 -6 0 -4 21 -8 48 -9 26 -1 57 -5
70 -8 12 -3 22 -2 22 3 0 12 -124 50 -151 47 -126 -16 -139 -17 -139 -7 0 5
17 13 38 16 131 24 184 17 259 -35 23 -16 52 -29 65 -29 39 -1 148 -55 192
-97 54 -51 122 -71 166 -48 37 19 68 64 52 74 -8 5 -5 12 8 24 30 25 25 33
-32 45 -49 10 -78 15 -178 27 -94 11 -152 38 -71 34 47 -3 59 4 42 25 -20 23
-99 45 -186 52 -141 10 -159 10 -195 -4 -19 -8 -48 -15 -65 -17 -16 -1 -71 -8
-120 -15 -53 -8 -111 -10 -140 -6 l-50 8 34 14 c18 8 49 14 68 14 28 0 34 3
29 16 -3 9 -6 18 -6 20 0 7 -14 4 -32 -6z m336 -40 c34 13 69 13 61 1 -3 -6 9
-7 31 -4 24 4 35 3 31 -4 -4 -6 7 -10 28 -9 19 0 35 4 35 9 0 4 8 7 18 7 15 0
15 -2 2 -11 -11 -8 -6 -9 20 -4 32 5 33 5 17 -9 -17 -13 -15 -14 22 -10 23 2
43 -1 47 -8 4 -6 3 -8 -3 -5 -5 3 -27 2 -47 -4 -29 -8 -35 -13 -27 -23 6 -7 8
-15 6 -18 -3 -3 7 -3 22 -1 26 4 27 3 9 -11 -18 -14 -18 -15 3 -13 11 1 21 4
21 8 0 11 94 -3 102 -15 5 -7 8 -7 8 3 0 10 6 10 26 -4 15 -9 24 -13 21 -8 -3
5 7 7 24 5 16 -2 29 -9 29 -14 0 -5 9 -7 19 -3 22 7 37 -10 20 -21 -8 -5 -9
-3 -4 6 5 8 4 11 -3 6 -6 -4 -9 -13 -5 -21 3 -9 -1 -23 -8 -32 -12 -15 -12
-16 4 -10 11 4 16 3 12 -3 -3 -6 -13 -10 -21 -10 -8 0 -14 -4 -14 -9 0 -4 -12
-6 -26 -3 -19 3 -25 1 -20 -7 4 -6 1 -11 -8 -11 -8 0 -18 5 -22 12 -5 7 -3 8
6 3 8 -5 11 -4 7 3 -4 5 -16 8 -27 5 -23 -6 -68 27 -62 46 3 8 0 11 -7 7 -6
-4 -11 -1 -11 9 0 9 -6 15 -12 14 -22 -4 -48 13 -41 25 4 6 -2 4 -12 -4 -15
-12 -17 -12 -10 -1 6 11 4 13 -7 9 -8 -4 -21 -2 -29 4 -11 8 -10 9 4 4 20 -6
23 9 3 17 -8 3 -25 4 -38 1 -21 -4 -21 -4 -3 5 15 7 16 10 5 10 -9 1 -21 -4
-28 -11 -9 -9 -12 -8 -12 6 0 15 -3 16 -15 6 -15 -12 -16 -11 -19 12 -1 15
-26 23 -26 8 0 -6 5 -8 12 -4 7 5 8 3 4 -5 -6 -10 -12 -9 -24 2 -10 8 -25 17
-34 20 -10 4 -18 11 -18 16 0 5 -8 10 -17 10 -39 0 -83 8 -90 15 -4 5 2 5 14
2 19 -6 22 -4 17 11 -4 13 -3 14 3 5 7 -10 16 -10 37 -2z m-184 -35 c0 -2 -12
-11 -27 -20 -22 -15 -25 -15 -20 -2 4 11 2 14 -8 10 -8 -3 -12 -9 -9 -14 3 -5
2 -9 -3 -8 -4 1 -16 -1 -25 -5 -11 -5 -26 -1 -40 9 -14 11 -16 15 -6 12 9 -3
19 -1 21 6 2 7 8 8 13 4 5 -4 2 -12 -6 -17 -8 -6 -11 -10 -7 -10 5 0 20 9 33
19 20 15 84 27 84 16z m-258 -175 c14 -10 28 -16 32 -12 4 3 4 -1 0 -11 -6
-18 -44 -24 -44 -7 0 5 -6 7 -14 4 -8 -3 -17 -1 -21 5 -3 6 -2 11 4 11 6 0 8
7 5 15 -8 21 9 19 38 -5z"/>
<path d="M1040 2610 c0 -7 -3 -11 -6 -8 -3 4 -18 3 -34 -2 -18 -5 -32 -4 -40
3 -10 9 -11 8 -8 -3 4 -10 17 -14 44 -13 38 3 63 17 51 30 -4 3 -7 0 -7 -7z"/>
<path d="M2855 2582 c2 -11 -3 -19 -10 -19 -8 0 -11 7 -7 15 4 12 -1 11 -21
-4 l-26 -19 22 -9 c67 -26 82 -35 62 -37 -11 0 -3 -5 18 -9 52 -10 117 4 161
33 27 19 32 26 20 31 -8 3 -13 2 -10 -3 3 -5 -6 -12 -21 -16 -16 -3 -32 -12
-36 -18 -6 -9 -10 -9 -14 1 -6 16 -27 16 -20 -1 3 -8 -1 -14 -9 -14 -8 0 -14
4 -14 8 0 3 -20 10 -45 13 -41 7 -45 9 -41 31 3 14 1 27 -4 30 -5 3 -7 -3 -5
-13z"/>
<path d="M2300 2583 c0 -35 101 -140 129 -135 14 2 14 2 1 -7 -12 -9 -8 -18
29 -53 40 -40 42 -41 28 -13 -8 17 -18 46 -22 65 -9 45 -20 57 -69 82 -23 11
-53 32 -68 46 -16 14 -28 21 -28 15z m109 -98 c3 0 5 -4 3 -9 -2 -5 4 -6 13
-3 8 4 15 2 15 -3 0 -6 -6 -10 -12 -10 -14 1 -68 45 -68 56 0 4 9 -1 21 -12
12 -10 24 -19 28 -19z"/>
<path d="M2536 2558 c16 -13 42 -34 57 -48 26 -22 47 -30 157 -60 51 -14 329
-23 310 -11 -8 6 -52 11 -98 11 -64 0 -95 5 -140 24 -31 13 -82 29 -112 36
-30 6 -67 20 -81 30 -23 16 -90 40 -113 40 -5 0 4 -10 20 -22z"/>
<path d="M2640 2562 c0 -11 126 -52 160 -52 53 0 -32 37 -106 46 -20 2 -41 7
-45 10 -5 3 -9 1 -9 -4z"/>
<path d="M3100 2541 c0 -6 -7 -11 -15 -11 -9 0 -30 -10 -46 -22 -26 -20 -43
-23 -116 -22 -53 0 -79 -3 -69 -8 28 -16 129 -10 184 10 60 21 91 46 73 56 -6
4 -11 2 -11 -3z"/>
<path d="M1960 2515 c-14 -8 -32 -14 -40 -15 -25 0 -85 -71 -103 -120 -8 -25
-19 -65 -22 -90 -4 -25 -11 -52 -15 -60 -5 -9 -16 -60 -25 -115 -10 -55 -27
-127 -40 -160 -33 -90 -45 -123 -72 -205 -14 -41 -29 -84 -33 -95 -5 -11 -12
-42 -15 -70 -3 -27 -13 -75 -20 -106 -8 -31 -15 -69 -15 -83 0 -14 -4 -26 -10
-26 -5 0 -10 -4 -10 -10 0 -5 9 -10 21 -10 16 0 20 -4 14 -17 -5 -14 -4 -15 6
-6 9 9 9 16 1 25 -8 11 -10 53 -2 53 1 0 3 21 5 47 2 25 8 55 14 66 6 12 11
36 11 54 1 18 10 58 21 88 11 30 20 63 20 73 0 9 4 17 10 17 5 0 9 -8 10 -17
0 -12 2 -13 6 -5 3 7 0 19 -7 27 -13 16 -4 56 12 52 13 -2 30 62 21 77 -4 5
-1 6 7 1 10 -6 12 -3 8 13 -4 14 -2 20 4 16 6 -4 8 2 3 16 -5 16 -4 20 4 16 7
-5 10 -2 9 6 -2 7 2 12 8 11 6 -1 11 8 11 20 1 75 5 101 12 83 7 -19 8 -19 13
1 3 12 1 26 -6 33 -8 8 -7 15 7 24 21 16 23 30 2 22 -20 -7 -19 6 4 32 10 12
22 18 26 14 5 -4 5 -1 1 6 -4 7 -12 10 -17 7 -5 -4 -9 1 -9 10 0 9 5 13 11 9
8 -4 9 0 4 15 -5 16 -3 20 8 15 8 -3 17 2 20 10 4 10 1 13 -9 9 -7 -3 -14 0
-14 6 0 6 6 11 13 11 9 0 8 3 -2 9 -8 5 -11 16 -6 30 3 12 10 19 14 16 5 -2 6
7 3 21 -3 17 0 24 9 22 8 -2 15 7 17 20 2 12 10 22 19 22 9 0 13 6 10 14 -3 8
4 22 15 33 12 10 18 13 15 7 -7 -12 21 -29 31 -19 3 3 0 5 -7 5 -7 0 -3 9 10
19 22 18 25 18 33 3 5 -10 14 -21 20 -25 6 -5 -2 -6 -19 -3 -25 5 -27 4 -12
-5 10 -6 25 -8 34 -5 12 5 13 9 3 21 -7 9 -10 18 -7 21 3 3 11 -4 17 -16 8
-16 8 -25 0 -35 -7 -8 -9 -38 -6 -79 3 -36 2 -66 -3 -66 -4 0 -8 -7 -8 -15 0
-8 4 -12 9 -9 4 3 8 -2 8 -11 0 -10 -5 -13 -12 -9 -9 5 -8 2 1 -9 12 -15 12
-17 -3 -11 -9 3 -16 1 -16 -5 0 -6 5 -11 11 -11 5 0 7 -5 4 -10 -4 -6 -10 -8
-15 -5 -5 3 -12 0 -16 -6 -4 -8 -3 -9 4 -5 7 4 12 2 12 -3 0 -6 -6 -11 -14
-11 -8 0 -14 -6 -13 -12 0 -7 -1 -22 -2 -33 -1 -19 -2 -19 -12 -2 -5 9 -7 23
-3 30 4 7 3 9 -2 4 -5 -5 -10 -26 -10 -48 -3 -74 -3 -76 -15 -59 -8 12 -9 10
-4 -7 5 -17 3 -22 -8 -17 -11 4 -13 -2 -10 -23 4 -27 4 -27 -12 -8 -12 14 -16
15 -14 5 3 -23 -12 -51 -25 -43 -7 3 -6 1 1 -7 11 -12 16 -11 29 6 15 18 15
18 4 -3 -6 -13 -16 -23 -23 -23 -17 0 -50 -76 -41 -92 6 -10 5 -11 -7 -1 -14
11 -16 9 -14 -17 1 -19 -3 -30 -11 -30 -7 0 -16 -4 -19 -10 -3 -6 1 -7 9 -4
11 4 16 0 16 -11 0 -9 -4 -13 -10 -10 -5 3 -10 -3 -10 -14 0 -12 -6 -21 -12
-21 -9 0 -10 -3 -2 -8 8 -5 5 -16 -7 -37 -11 -16 -21 -37 -25 -45 -19 -49 -23
-55 -19 -25 5 27 4 27 -4 7 -6 -12 -8 -29 -5 -37 7 -18 -12 -20 -20 -2 -3 6
-3 -1 -1 -17 4 -28 -16 -61 -30 -48 -4 4 -4 -3 -1 -15 6 -19 4 -21 -15 -18
-17 4 -20 2 -11 -7 17 -17 15 -38 -3 -32 -8 4 -15 1 -15 -6 0 -6 5 -8 10 -5
14 9 13 -8 -2 -23 -7 -7 -8 -12 -4 -12 5 0 2 -8 -5 -17 -13 -16 -12 -17 4 -4
14 11 20 11 32 1 8 -7 15 -18 15 -24 0 -6 -7 -3 -14 7 -8 11 -17 14 -20 8 -4
-5 3 -16 14 -24 11 -7 17 -18 12 -23 -4 -5 -3 -6 2 -2 5 4 14 4 20 -1 14 -12
78 -17 93 -8 14 9 45 97 34 97 -4 0 -14 -18 -21 -41 -14 -43 -37 -68 -27 -30
4 18 3 20 -9 10 -8 -6 -14 -8 -14 -3 0 4 -7 -1 -15 -12 -21 -28 -18 -3 6 53
31 71 67 183 58 183 -8 0 -57 -117 -79 -187 -7 -24 -17 -43 -22 -43 -11 0 -10
27 2 50 7 13 7 21 -2 26 -6 4 -8 3 -5 -2 3 -6 2 -16 -3 -23 -6 -11 -10 -9 -19
7 -12 23 -14 19 95 227 61 117 104 222 108 268 2 15 6 30 11 35 4 4 4 -4 0
-17 -5 -16 -4 -21 4 -17 11 7 62 110 116 231 14 33 33 68 43 78 21 24 32 205
12 217 -10 6 -8 14 9 35 27 36 27 42 -9 60 -35 18 -38 18 -70 0z"/>
<path d="M2460 2499 c0 -4 7 -20 15 -35 8 -16 15 -37 15 -47 0 -25 30 -68 43
-60 6 4 7 1 3 -6 -5 -7 0 -18 10 -26 24 -18 40 -19 27 -2 -6 6 -18 32 -27 57
-15 39 -85 137 -86 119z"/>
<path d="M2343 2474 c8 -13 -18 -116 -39 -158 -16 -34 -19 -60 -3 -32 9 15 13
16 21 5 7 -11 8 -9 4 5 -4 11 1 30 11 45 9 14 16 37 15 51 -2 20 -1 22 7 10
10 -13 15 -7 12 13 -2 11 17 9 24 -3 3 -5 1 -10 -4 -10 -14 0 -14 -27 -1 -35
6 -4 9 -3 8 2 -2 4 2 8 7 8 6 0 9 -3 8 -7 -2 -5 -4 -11 -5 -15 -2 -5 2 -8 7
-8 6 0 9 5 7 10 -1 6 4 2 12 -9 11 -13 12 -24 6 -37 -15 -26 -12 -36 3 -14 11
14 16 15 22 5 5 -9 4 -11 -3 -6 -7 4 -12 3 -12 -2 0 -5 9 -12 20 -15 13 -3 18
-11 15 -26 -2 -12 -1 -20 3 -17 4 2 18 0 31 -5 18 -7 21 -13 13 -21 -8 -8 -15
-8 -26 1 -10 8 -16 9 -21 1 -3 -5 -5 -10 -3 -11 27 -7 44 -6 54 2 7 6 15 5 22
-3 8 -10 -1 -14 -39 -16 -34 -2 -49 1 -49 10 0 9 -3 8 -10 -2 -6 -10 -10 -11
-10 -2 0 6 -5 12 -11 12 -5 0 -8 -4 -5 -9 4 -5 -3 -7 -14 -4 -11 3 -20 8 -20
12 0 3 -26 6 -57 6 -42 0 -57 4 -55 13 1 8 -5 11 -22 6 -13 -3 -27 -1 -30 5
-4 5 -14 7 -23 4 -11 -4 -14 -3 -9 5 5 8 -3 12 -25 12 -25 0 -29 3 -20 13 8
10 7 14 -4 14 -8 0 -12 -4 -9 -9 3 -4 0 -8 -5 -8 -6 0 -11 5 -11 11 0 5 -4 8
-8 5 -5 -3 -16 3 -24 13 -12 14 -13 22 -5 30 8 8 7 11 -5 11 -9 0 -18 10 -21
22 -10 36 -15 16 -8 -27 5 -33 13 -43 46 -62 61 -34 214 -86 236 -80 11 3 43
-1 70 -9 41 -12 64 -13 132 -4 45 7 83 13 84 14 3 3 -79 66 -112 85 -18 11
-44 43 -62 77 -18 32 -51 77 -74 99 -23 22 -39 35 -36 29z"/>
<path d="M1064 2463 c9 -10 106 -11 100 -1 -3 4 -28 8 -56 8 -28 0 -48 -3 -44
-7z"/>
<path d="M902 2453 c14 -3 16 -8 8 -24 -8 -15 -8 -17 5 -13 8 4 15 1 15 -5 0
-6 3 -10 8 -10 22 4 42 -3 40 -13 -2 -6 6 -13 17 -15 l20 -3 -20 9 -20 10 20
0 c23 1 47 -12 45 -25 0 -5 10 -10 22 -11 15 -1 17 0 6 3 -33 10 -18 22 17 14
19 -4 33 -4 30 0 -3 5 9 11 27 13 18 2 8 3 -22 1 -51 -2 -162 22 -115 25 12 1
-5 12 -39 26 -33 14 -64 24 -70 24 -6 -1 -3 -3 6 -6z"/>
<path d="M1084 2429 c-2 -5 -12 -6 -22 -3 -14 5 -14 4 -3 -4 8 -6 20 -8 28 -5
7 3 13 0 13 -6 0 -6 -8 -11 -17 -12 -13 0 -14 -2 -4 -6 8 -3 19 1 26 10 13 18
75 21 240 12 l100 -5 -50 15 c-53 16 -301 19 -311 4z"/>
<path d="M1195 2390 c-4 -6 7 -10 24 -10 17 0 31 5 31 10 0 6 -11 10 -24 10
-14 0 -28 -4 -31 -10z"/>
<path d="M1270 2367 c-24 -12 -71 -20 -137 -21 -33 -1 -36 -16 -2 -16 11 0 36
-7 57 -16 28 -13 64 -16 145 -15 93 1 219 20 234 34 2 3 -8 14 -23 26 -24 19
-40 21 -138 21 -71 0 -120 -5 -136 -13z m104 -12 c3 -8 11 -15 18 -14 10 0 10
2 1 6 -20 7 -15 22 6 20 11 0 17 -5 15 -9 -3 -4 0 -8 5 -8 6 0 11 4 11 8 0 4
8 8 19 9 13 1 19 -5 19 -23 0 -18 -4 -22 -11 -15 -13 13 -30 15 -23 2 3 -5 -1
-11 -9 -14 -10 -4 -12 -1 -8 10 5 13 3 14 -16 3 -19 -10 -25 -9 -37 7 -13 17
-14 17 -7 -1 5 -15 3 -18 -10 -13 -10 4 -17 1 -17 -6 0 -8 -3 -8 -9 2 -7 11
-9 11 -13 0 -4 -12 -7 -12 -21 0 -10 7 -17 10 -17 5 0 -5 -12 -10 -28 -10 -15
-1 -21 1 -14 3 6 3 10 9 7 14 -4 5 1 6 9 3 8 -3 30 1 48 9 67 30 74 31 82 12z"/>
<path d="M957 2357 c24 -9 30 -16 23 -27 -6 -11 -2 -15 16 -16 14 -1 35 -10
46 -20 12 -11 18 -13 14 -6 -4 6 -3 12 1 12 5 0 15 -6 22 -12 7 -7 12 -8 11
-3 -6 31 0 38 20 20 11 -10 20 -13 20 -7 0 13 -13 22 -37 27 -10 2 -27 6 -38
9 -16 5 -15 4 3 -5 12 -7 22 -16 22 -21 0 -5 -9 -4 -19 2 -11 5 -29 10 -40 10
-11 0 -23 5 -27 12 -5 8 0 9 14 6 12 -4 22 -4 22 -2 0 8 -68 34 -87 33 -10 0
-4 -6 14 -12z"/>
<path d="M2474 2339 c24 -37 84 -76 129 -84 21 -3 46 -9 54 -12 10 -4 14 -2
10 4 -4 6 -1 14 5 17 7 3 0 3 -15 1 -37 -5 -81 11 -71 27 4 7 3 8 -4 4 -10 -6
-65 17 -82 34 -3 3 -14 12 -24 20 -19 15 -19 14 -2 -11z"/>
<path d="M834 2319 c-5 -9 36 -24 55 -20 8 1 10 -2 6 -10 -6 -8 -3 -9 10 -2
28 16 63 4 63 -22 0 -18 -5 -22 -22 -18 -19 4 -19 3 -3 -7 21 -13 41 -4 33 16
-3 8 0 14 7 13 25 -3 38 1 32 11 -3 5 -13 6 -22 3 -10 -4 -14 -2 -10 4 3 5 1
10 -6 11 -62 7 -106 16 -103 21 3 4 -4 7 -15 7 -11 0 -22 -3 -25 -7z"/>
<path d="M3074 2305 c1 -24 16 -37 16 -14 0 8 6 7 17 -2 14 -12 14 -10 -1 14
-23 34 -34 35 -32 2z"/>
<path d="M1740 2295 c-51 -31 -89 -51 -142 -75 -26 -11 -90 -47 -142 -80 -53
-33 -100 -60 -106 -60 -6 0 -25 -7 -42 -16 -24 -12 -28 -18 -17 -25 8 -5 15
-4 17 2 3 6 10 5 20 -3 13 -11 14 -11 7 1 -6 11 -2 13 19 9 23 -5 25 -3 14 11
-10 12 -6 11 17 -3 l30 -19 -20 23 c-17 20 -18 23 -3 17 11 -4 17 -2 15 5 -1
6 4 13 12 16 8 2 11 0 7 -6 -3 -6 -1 -14 5 -18 8 -4 9 -3 5 5 -4 6 0 14 11 18
10 4 27 16 38 27 18 17 15 16 -20 -3 -22 -13 -31 -15 -20 -6 33 28 53 36 60
25 9 -15 57 20 50 38 -4 11 0 13 20 8 18 -5 24 -3 23 6 -2 8 7 13 24 13 14 0
30 4 34 8 5 4 0 5 -11 2 -16 -6 -17 -5 -5 4 8 6 23 8 34 5 13 -5 16 -3 11 7
-6 9 -4 11 8 6 17 -6 41 15 30 27 -4 4 1 4 11 0 13 -5 17 -4 12 4 -3 6 -2 13
3 16 5 4 8 -2 7 -11 -2 -9 -8 -19 -14 -21 -7 -2 -9 -9 -6 -14 4 -6 3 -9 -2 -5
-5 3 -20 -11 -33 -31 -15 -23 -18 -32 -8 -23 21 17 22 7 1 -24 -9 -14 -20 -22
-25 -19 -12 7 -60 -26 -53 -37 9 -15 -3 -10 -22 8 -16 16 -16 16 -10 -5 8 -25
-6 -30 -56 -19 -7 1 -12 -3 -11 -9 3 -14 -32 -24 -70 -19 -15 2 -25 -1 -22 -5
3 -5 2 -11 -2 -13 -17 -11 -116 -16 -132 -8 -12 7 -26 4 -47 -10 -16 -10 -38
-19 -49 -20 -11 0 -14 -3 -7 -6 6 -2 9 -10 6 -16 -5 -8 -2 -8 7 1 7 6 27 12
43 12 92 0 398 85 432 120 30 30 105 170 102 188 -3 19 -4 19 -38 -3z"/>
<path d="M691 2283 c-1 -24 -6 -33 -18 -33 -13 -1 -11 -4 7 -13 18 -9 25 -21
26 -42 3 -53 3 -54 32 -49 l27 4 -25 -15 -25 -16 35 6 c19 4 42 9 52 11 9 3
19 0 23 -6 3 -5 -1 -10 -9 -10 -8 0 -17 -3 -19 -7 -3 -5 5 -8 18 -8 13 0 21 3
18 7 -2 5 7 13 21 20 25 11 26 11 6 25 -11 8 -20 19 -20 25 0 7 4 7 13 1 6 -5
23 -6 37 -2 23 7 23 7 -7 8 -18 1 -33 6 -33 12 0 6 8 8 18 5 9 -3 24 -1 32 4
14 9 -5 9 -63 1 -5 0 -5 -6 -1 -12 4 -7 1 -10 -7 -7 -8 3 -13 10 -12 16 1 5
-4 13 -12 16 -24 9 -17 -8 14 -38 17 -16 27 -35 24 -43 -5 -13 -18 -9 -18 5
-1 17 -17 31 -30 26 -10 -4 -12 0 -8 15 4 17 1 21 -21 21 -32 0 -35 -20 -3
-21 21 0 21 -1 2 -9 l-20 -9 20 -2 c11 -1 25 -3 32 -3 21 -2 27 -16 6 -16 -38
0 -82 21 -76 36 3 8 -1 14 -8 14 -21 0 -2 12 33 20 l33 8 -34 1 c-41 1 -31 17
14 24 21 3 15 4 -18 6 -27 0 -46 4 -44 9 3 4 1 16 -4 27 -6 16 -8 14 -8 -12z"/>
<path d="M1470 2279 c-47 -17 -105 -36 -130 -44 -45 -14 -236 -98 -247 -109
-7 -6 51 -10 127 -9 49 1 259 67 275 86 6 7 26 18 45 24 30 10 84 29 140 49
20 7 -56 34 -95 33 -16 0 -68 -14 -115 -30z m80 -11 c0 -4 -4 -8 -9 -8 -5 0
-17 -7 -25 -16 -15 -14 -16 -14 -16 0 0 9 -4 16 -10 16 -5 0 -7 -7 -4 -15 4
-8 1 -15 -5 -15 -20 0 -11 31 12 39 26 11 57 10 57 -1z m-79 -48 c6 0 7 -5 4
-10 -5 -8 -12 -7 -23 2 -13 11 -15 10 -9 -4 7 -20 -9 -25 -16 -5 -3 7 -6 5 -6
-5 -1 -10 -4 -18 -7 -18 -4 0 -13 8 -20 18 -11 16 -12 16 -11 0 1 -9 -2 -17
-8 -18 -5 -1 -18 -9 -28 -18 -15 -13 -21 -14 -39 -3 -11 7 -17 8 -13 2 7 -13
-35 -31 -71 -31 -33 0 -26 20 16 47 43 27 44 28 100 41 29 7 49 7 56 1 8 -6
14 -7 18 0 3 5 0 12 -6 15 -7 3 1 3 17 1 17 -3 24 -2 16 1 -11 5 -11 8 0 15
10 6 15 3 17 -11 2 -11 8 -20 13 -20z"/>
<path d="M2745 2300 c25 -11 92 -12 98 -2 3 4 -23 8 -57 9 -41 1 -54 -2 -41
-7z"/>
<path d="M3057 2303 c-4 -4 -48 -6 -97 -4 -91 2 -132 -6 -95 -19 11 -4 38 -3
60 2 32 7 42 6 51 -7 6 -8 18 -13 27 -9 8 3 18 1 22 -5 10 -18 21 -13 34 15
12 26 11 40 -2 27z"/>
<path d="M1171 2287 c-6 -8 -8 -17 -4 -20 3 -4 -5 -7 -19 -7 -15 0 -29 6 -32
13 -3 6 -4 3 -3 -8 2 -17 -4 -20 -45 -20 -27 0 -48 4 -48 9 0 4 -7 3 -16 -5
-14 -12 -14 -14 6 -21 27 -10 17 -28 -13 -22 -21 4 -21 4 2 -8 19 -10 25 -10
28 -1 3 7 12 10 21 7 15 -5 15 -4 0 6 -24 15 -23 29 2 27 11 -1 20 -5 20 -10
0 -4 5 -5 12 -1 6 4 16 0 22 -8 19 -25 44 -28 91 -10 57 21 58 32 3 21 -60
-11 -88 -11 -88 2 0 6 9 8 23 4 18 -5 19 -4 7 5 -12 9 -11 10 8 5 20 -6 24 -2
21 21 0 3 8 12 18 20 10 7 13 14 7 14 -6 0 -17 -6 -23 -13z"/>
<path d="M2680 2290 c0 -5 5 -10 11 -10 5 0 8 -4 5 -8 -9 -14 62 -34 81 -23
17 9 17 10 -2 16 -11 4 -34 13 -52 21 -37 17 -43 17 -43 4z"/>
<path d="M1300 2269 c-15 -4 -3 -6 34 -4 32 2 60 6 63 9 8 7 -68 4 -97 -5z"/>
<path d="M821 2259 c14 -9 106 -13 98 -5 -2 3 -29 7 -58 9 -34 3 -49 2 -40 -4z"/>
<path d="M2050 2239 c0 -17 5 -39 11 -51 6 -11 12 -37 13 -58 2 -22 14 -52 31
-75 19 -24 25 -39 17 -44 -12 -7 6 -76 38 -146 10 -22 30 -69 44 -105 15 -36
38 -87 51 -113 14 -26 23 -52 20 -57 -3 -6 0 -7 8 -5 9 4 22 -13 40 -49 29
-59 34 -86 15 -86 -9 0 -9 -3 0 -12 7 -7 12 -20 12 -31 0 -10 4 -16 9 -13 10
6 32 -39 24 -48 -13 -13 -24 -5 -18 14 4 12 2 20 -5 20 -6 0 -8 -5 -4 -12 4
-7 3 -8 -5 -4 -6 4 -8 12 -5 18 5 7 2 9 -7 6 -10 -4 -15 5 -17 36 -3 44 -37
127 -68 164 l-19 23 0 -25 c0 -13 3 -22 8 -19 4 2 8 -6 9 -19 3 -47 5 -54 18
-93 16 -50 27 -65 68 -100 24 -20 36 -25 44 -17 8 8 14 7 22 -4 7 -8 19 -12
27 -9 18 7 18 37 -1 59 -7 9 -10 20 -6 23 4 4 12 1 17 -7 8 -11 12 -12 16 -2
2 6 10 9 15 6 7 -5 8 -2 4 5 -5 7 -15 10 -23 7 -9 -4 -13 -1 -11 6 3 7 11 13
19 13 9 0 15 12 16 35 3 78 0 72 27 55 26 -18 41 -66 23 -77 -9 -6 -9 -8 0 -8
20 0 60 44 55 60 -2 9 2 7 11 -5 8 -10 12 -26 9 -34 -3 -8 -1 -12 5 -8 6 4 14
0 17 -9 3 -8 2 -12 -4 -9 -6 3 -10 1 -10 -4 0 -6 9 -11 21 -11 11 0 17 -4 14
-10 -4 -6 2 -7 16 -2 30 12 31 46 2 85 -14 18 -35 52 -48 77 -37 72 -112 163
-119 144 -3 -8 -2 -13 3 -10 4 3 14 -7 22 -22 8 -15 33 -53 56 -85 46 -63 98
-165 89 -175 -8 -7 -8 -8 -61 91 -26 48 -49 87 -50 85 -2 -2 1 -25 5 -53 8
-54 -2 -109 -13 -70 -3 11 -8 47 -12 80 -7 61 -21 99 -33 91 -4 -2 -8 3 -9 12
-4 77 -154 347 -237 428 -18 18 -57 59 -86 93 -43 49 -96 91 -117 91 -1 0 -3
-14 -3 -31z m72 -29 c18 -16 28 -30 21 -30 -6 0 -15 5 -18 10 -5 8 -11 7 -21
-1 -11 -9 -11 -13 1 -25 18 -18 26 -18 19 0 -4 11 0 13 15 9 20 -5 20 -6 4
-18 -16 -12 -15 -13 8 -8 21 4 31 -2 50 -29 13 -18 23 -35 21 -38 -2 -3 7 -7
20 -10 13 -3 23 -12 24 -20 2 -33 5 -38 24 -43 11 -3 20 -10 20 -16 0 -7 -10
-5 -25 5 -14 9 -33 13 -42 10 -15 -5 -15 -4 1 9 20 15 19 15 -1 15 -23 0 -47
23 -35 34 4 4 -2 12 -12 18 -15 8 -16 12 -5 20 10 7 8 8 -8 5 -13 -3 -26 -1
-29 4 -3 5 -11 9 -17 9 -7 -1 -2 -9 9 -18 12 -10 29 -32 37 -49 9 -16 26 -39
39 -51 57 -51 98 -83 98 -76 0 4 9 -1 20 -11 20 -19 28 -9 10 13 -5 7 -3 6 6
-2 9 -8 13 -19 9 -26 -5 -8 -12 -6 -26 6 -23 21 -24 12 -2 -22 10 -16 19 -21
23 -14 5 8 9 6 13 -5 4 -9 3 -13 -3 -10 -19 12 -10 -6 33 -63 42 -56 49 -67
76 -113 14 -24 14 -24 -6 -6 -20 18 -21 17 -19 -15 1 -26 6 -33 24 -34 32 -2
34 -3 27 -14 -5 -8 -12 -7 -23 2 -16 12 -16 11 0 -12 9 -14 20 -24 25 -23 4 1
9 -10 10 -25 1 -25 0 -24 -33 14 -37 42 -37 42 -19 -39 4 -19 2 -26 -5 -22 -5
3 -10 16 -10 28 0 15 -3 18 -11 10 -9 -9 -6 -20 11 -43 12 -17 19 -34 16 -37
-9 -9 -43 35 -68 88 -13 27 -27 48 -31 49 -5 0 -6 -3 -4 -7 3 -5 15 -30 27
-58 12 -27 29 -58 38 -68 8 -9 12 -20 8 -25 -5 -4 -16 4 -25 17 -9 14 -24 34
-33 45 -17 20 -17 19 -2 -24 9 -25 25 -64 36 -88 11 -23 18 -48 16 -54 -7 -21
-61 82 -65 125 -3 23 -19 63 -40 96 -20 31 -35 57 -34 59 5 5 -12 67 -20 72
-4 3 -11 21 -14 40 -3 19 -10 50 -15 68 -4 17 -6 32 -4 32 2 0 -4 17 -14 38
-10 20 -19 52 -20 71 -4 51 -41 129 -73 152 -16 11 -34 30 -40 42 -12 22 -12
22 10 3 11 -11 24 -16 27 -13 4 4 -4 15 -16 25 -21 17 -38 68 -19 56 4 -2 10
0 14 6 6 9 -7 14 -27 11 -5 0 -8 4 -8 9 0 18 19 11 52 -20z m64 -285 c1 -13
-2 -27 -7 -30 -5 -4 -9 4 -9 17 0 18 -2 20 -10 8 -13 -20 -13 -4 1 22 13 23
21 18 25 -17z"/>
<path d="M2224 1944 c8 -23 31 -76 51 -118 28 -56 36 -84 32 -105 -4 -21 -2
-31 9 -35 8 -3 12 -10 9 -16 -4 -6 -11 -8 -16 -5 -14 9 -11 -19 6 -41 17 -23
19 -38 4 -28 -8 4 -8 0 0 -15 14 -25 23 -28 14 -4 -5 11 -3 14 6 9 7 -5 11
-17 8 -27 -3 -10 -2 -21 3 -24 10 -6 6 53 -5 79 -6 14 -5 17 3 12 8 -5 10 -2
5 9 -4 13 -7 14 -14 3 -6 -10 -11 -10 -20 -1 -10 10 -9 14 4 19 20 7 22 33 4
40 -9 3 -12 16 -9 34 4 27 -28 126 -51 157 -5 7 -6 16 -4 20 3 5 -8 24 -24 43
l-29 35 14 -41z"/>
<path d="M2309 1862 c-4 -28 -4 -32 4 -29 4 1 20 -26 36 -59 16 -34 33 -64 38
-67 9 -5 -62 151 -73 162 -2 2 -5 -1 -5 -7z"/>
<path d="M2266 1785 c4 -16 8 -40 9 -52 1 -13 4 -26 8 -29 11 -11 0 72 -12 92
-11 17 -11 15 -5 -11z"/>
<path d="M2370 1797 c0 -11 39 -87 45 -87 3 0 5 3 5 8 0 10 -49 89 -50 79z"/>
<path d="M2340 1728 c0 -17 69 -168 77 -168 10 0 -10 66 -28 92 -11 14 -19 32
-19 40 0 7 -7 22 -15 32 -12 16 -15 17 -15 4z"/>
<path d="M2400 1687 c0 -5 5 -18 12 -30 6 -12 13 -37 15 -57 5 -47 13 -51 13
-7 0 20 -9 51 -20 69 -11 18 -20 29 -20 25z"/>
<path d="M2940 2259 c0 -7 -14 -9 -37 -6 -21 3 -62 -2 -90 -10 -55 -15 -73
-28 -25 -18 15 4 54 8 87 11 34 2 65 10 74 19 10 10 11 15 3 15 -7 0 -12 -5
-12 -11z"/>
<path d="M2589 2237 c7 -10 19 -17 26 -17 7 0 18 -6 24 -14 10 -12 18 -12 51
2 37 16 53 32 31 32 -5 0 -18 3 -28 6 -13 4 -14 3 -5 -4 21 -14 -12 -24 -43
-12 -14 5 -25 7 -25 4 0 -2 -10 1 -22 7 -21 11 -22 11 -9 -4z"/>
<path d="M2964 2234 c4 -10 1 -14 -6 -11 -7 2 -24 -4 -37 -14 -13 -11 -31 -19
-40 -19 -14 -1 -14 -2 2 -11 9 -6 30 -9 45 -8 41 3 62 0 62 -10 0 -8 -101 -5
-127 4 -6 2 -62 -5 -125 -16 -93 -17 -123 -19 -167 -10 -65 13 -71 13 -71 3 0
-13 131 -31 182 -25 26 3 75 0 110 -6 35 -6 99 -13 143 -16 45 -2 88 -7 98
-11 26 -9 21 -27 -5 -20 -30 9 -153 18 -146 11 3 -3 15 -8 28 -10 12 -2 28 -9
34 -15 7 -5 15 -7 18 -4 6 6 68 -23 68 -32 0 -3 -15 -2 -32 1 -18 3 -51 2 -73
-3 l-40 -8 37 -8 c21 -4 40 -11 44 -17 8 -13 -57 -2 -105 17 -18 8 -40 14 -49
14 -8 0 -54 18 -101 41 -47 23 -90 42 -96 43 -5 1 -40 8 -77 16 -37 7 -65 16
-63 20 2 3 -4 6 -13 6 -9 1 -30 5 -47 9 -16 4 -27 4 -23 0 9 -10 167 -66 190
-68 9 -1 15 -4 13 -7 -2 -4 33 -21 78 -39 45 -19 96 -39 112 -46 17 -7 55 -23
85 -35 30 -12 62 -28 70 -35 8 -6 24 -15 35 -20 13 -5 16 -9 7 -12 -7 -3 -28
4 -46 15 -27 16 -36 18 -40 7 -4 -12 10 -29 44 -50 9 -6 2 2 -15 17 -38 35
-17 37 24 2 42 -35 41 -55 -1 -48 -18 4 -43 13 -55 20 -12 8 -29 11 -38 8 -14
-6 -11 -12 16 -40 22 -23 28 -34 18 -34 -9 0 -29 19 -46 43 -29 40 -43 49
-165 109 -12 6 -15 4 -11 -10 9 -32 183 -148 233 -155 19 -3 75 -45 69 -52 -7
-6 -79 27 -79 37 0 4 -7 5 -16 1 -9 -3 -20 0 -25 8 -6 10 -9 10 -9 2 0 -13 94
-66 121 -69 9 -1 24 13 33 30 11 19 12 24 3 13 -12 -15 -15 -15 -20 -3 -4 9
-1 18 4 22 6 4 1 11 -12 18 -27 13 -35 33 -14 33 9 0 14 -6 11 -14 -3 -7 -1
-13 4 -13 6 0 10 5 10 11 0 5 4 8 9 4 5 -3 9 7 9 22 -1 48 1 53 20 46 14 -5
13 -3 -3 10 -11 9 -15 17 -8 17 20 0 4 26 -23 39 -15 6 -23 7 -19 1 9 -14 -8
-13 -23 2 -15 15 -15 28 -1 28 5 0 7 -5 3 -12 -5 -8 -2 -9 10 -5 10 4 20 7 22
7 8 0 4 36 -6 46 -6 6 -2 10 12 11 15 2 18 -1 10 -6 -10 -6 -9 -11 4 -22 10
-8 15 -9 11 -3 -4 7 0 15 9 18 8 3 12 2 9 -3 -3 -5 0 -13 7 -17 7 -4 10 -4 6
0 -4 5 -3 19 3 33 6 16 6 22 -1 18 -6 -3 -10 -2 -10 4 0 5 -9 13 -21 16 -11 4
-18 9 -16 12 3 2 14 0 24 -5 13 -7 24 -6 37 3 17 13 17 15 3 29 -9 9 -25 16
-36 16 -11 0 -22 4 -25 9 -3 4 -17 6 -32 3 -16 -3 -29 1 -35 9 -5 8 -9 9 -9 4
0 -13 -37 -17 -44 -6 -6 9 8 12 68 14 55 2 79 29 43 48 -12 7 -24 12 -27 12
-3 -1 -7 1 -9 3 -2 2 3 4 12 4 9 0 20 7 25 15 4 9 18 17 29 18 35 2 15 17 -24
17 -28 0 -34 -3 -29 -16z m-29 -450 c14 -19 24 -34 21 -34 -7 0 -96 89 -96 95
0 12 51 -29 75 -61z"/>
<path d="M923 2208 c-2 -15 1 -18 6 -10 6 10 10 10 21 -3 7 -8 18 -15 25 -15
10 0 25 -20 25 -33 0 -1 -26 0 -57 1 -32 2 -55 0 -50 -4 4 -4 28 -7 52 -5 25
1 45 -2 45 -8 0 -5 -12 -10 -27 -10 -16 -1 -39 -2 -53 -4 -14 -2 -31 2 -39 7
-11 9 -13 7 -9 -4 4 -11 20 -15 64 -14 32 1 47 0 32 -3 -16 -2 -28 -8 -28 -13
0 -5 12 -5 28 -1 15 4 33 6 40 4 6 -3 12 0 12 7 0 6 -4 8 -10 5 -5 -3 -10 -1
-10 4 0 6 5 11 10 11 6 0 9 3 9 8 -4 21 3 30 20 25 11 -3 30 3 43 12 19 15 20
16 3 10 -41 -15 -96 1 -123 38 -18 23 -27 22 -29 -5z"/>
<path d="M2793 2210 c-50 -11 -117 -29 -150 -40 l-58 -21 50 5 c141 13 265 45
265 68 0 10 6 10 -107 -12z"/>
<path d="M2176 2196 c22 -35 134 -126 153 -126 8 0 43 -16 78 -36 60 -33 97
-38 74 -10 -6 7 -8 16 -4 19 3 4 1 7 -5 7 -7 0 -12 -7 -12 -16 0 -8 -4 -12
-10 -9 -6 4 -4 15 6 30 14 22 14 25 -8 39 -13 8 -50 25 -83 37 -33 13 -62 26
-65 30 -3 4 -28 16 -55 27 -28 11 -58 23 -69 27 -18 8 -18 7 0 -19z m138 -67
c-2 -4 0 -10 6 -14 5 -3 10 0 10 7 0 11 2 11 9 0 4 -7 12 -12 17 -11 22 4 33
-2 31 -20 -1 -21 -35 -17 -44 6 -4 10 -8 11 -13 3 -5 -7 -12 -3 -23 13 -12 19
-13 24 -2 24 8 0 12 -4 9 -8z"/>
<path d="M1724 2145 c-13 -31 -24 -62 -24 -70 0 -8 -4 -15 -10 -15 -5 0 -10
-5 -10 -12 0 -7 9 -4 20 8 19 18 65 144 54 144 -3 0 -16 -25 -30 -55z"/>
<path d="M2022 2184 c-5 -11 -13 -49 -17 -86 -6 -59 -5 -70 15 -97 11 -17 18
-36 14 -42 -4 -7 -3 -9 4 -5 5 3 12 0 15 -6 2 -7 4 4 4 24 -1 21 -4 33 -8 27
-5 -8 -8 -8 -13 0 -4 6 -2 11 4 11 6 0 8 5 4 11 -5 8 -9 8 -14 -1 -5 -9 -9 -9
-14 -1 -4 6 -3 11 1 11 5 0 7 15 5 34 -2 18 1 36 6 40 10 6 47 -62 38 -71 -3
-3 -8 6 -12 21 -8 34 -23 34 -16 0 3 -15 12 -29 21 -31 9 -2 18 -13 18 -24 1
-11 -2 -17 -8 -14 -5 4 -9 1 -9 -4 0 -6 5 -11 10 -11 6 0 10 -9 10 -20 0 -11
-7 -20 -16 -20 -8 0 -12 -4 -9 -10 7 -11 25 -137 32 -224 4 -44 2 -57 -7 -51
-8 5 -10 22 -7 46 3 22 1 37 -4 33 -13 -8 -11 -68 3 -82 22 -22 26 -13 32 61
14 165 8 232 -34 372 -10 33 -18 71 -18 84 -1 34 -18 48 -30 25z"/>
<path d="M1261 2092 c-11 -8 -21 -20 -21 -27 0 -8 -6 -16 -12 -18 -10 -4 -10
-6 0 -6 8 -1 16 8 19 19 5 17 8 18 21 8 12 -10 14 -10 9 -1 -5 8 1 15 18 19
14 3 25 9 25 13 0 12 -37 7 -59 -7z"/>
<path d="M720 2090 c0 -5 7 -6 17 -3 10 4 14 2 10 -4 -9 -14 18 -24 41 -16 9
3 14 3 10 -2 -4 -4 -3 -16 2 -25 10 -18 22 -17 148 16 6 2 12 9 12 15 0 8 -4
8 -15 -1 -9 -7 -18 -10 -22 -7 -3 4 -14 2 -24 -3 -9 -6 -35 -12 -56 -15 -21
-2 -32 -2 -25 1 6 3 10 9 7 14 -3 4 3 6 14 3 10 -3 22 0 25 6 4 7 1 8 -8 5 -9
-3 -16 -2 -16 2 0 5 -13 9 -30 9 -16 0 -30 -3 -30 -7 0 -5 -4 -8 -10 -8 -5 0
-7 7 -4 15 5 11 -1 15 -20 15 -14 0 -26 -4 -26 -10z"/>
<path d="M2664 2091 c4 -6 23 -13 44 -17 20 -4 42 -10 47 -14 26 -19 113 -40
144 -34 39 8 31 15 -57 45 -64 22 -188 36 -178 20z"/>
<path d="M1033 2083 c-12 -2 -27 -11 -33 -19 -13 -15 0 -20 16 -5 13 12 117
24 110 12 -4 -5 2 -12 11 -14 16 -4 15 -6 -4 -12 -17 -6 -19 -10 -10 -20 14
-15 31 -9 21 7 -7 10 8 9 41 -3 6 -2 11 1 12 6 1 6 -5 9 -13 7 -8 -2 -19 9
-26 23 -10 22 -17 25 -57 24 -25 -1 -56 -4 -68 -6z"/>
<path d="M1621 2054 c-66 -40 -92 -64 -85 -76 3 -4 2 -8 -3 -7 -21 4 -34 -2
-27 -13 4 -6 3 -8 -3 -5 -11 7 -123 -43 -123 -55 0 -4 12 0 28 8 15 7 35 14
45 14 28 0 95 38 107 60 6 11 17 20 24 20 15 0 104 76 96 82 -3 3 -29 -10 -59
-28z"/>
<path d="M2496 2081 c41 -39 154 -116 213 -145 40 -19 86 -45 102 -57 17 -12
33 -19 35 -16 3 3 -4 11 -16 17 -12 6 -19 14 -17 17 3 2 19 -3 36 -12 17 -8
31 -13 31 -11 0 3 -14 13 -30 21 -18 9 -28 21 -25 28 4 7 0 4 -8 -6 -14 -17
-17 -16 -66 13 -29 16 -55 30 -58 30 -4 0 -27 17 -52 38 -57 48 -187 122 -145
83z"/>
<path d="M962 2056 c-15 -17 -19 -27 -11 -31 8 -6 7 -10 -2 -16 -11 -7 -10 -9
5 -9 12 0 16 5 13 15 -4 8 -2 17 3 20 4 3 10 1 12 -5 3 -11 48 -2 48 10 0 4
-12 5 -27 2 -23 -4 -25 -2 -20 17 6 26 7 26 -21 -3z"/>
<path d="M1967 2057 c-10 -27 -9 -39 4 -31 7 4 10 1 7 -7 -3 -8 -11 -13 -17
-11 -13 3 -13 4 -2 -55 6 -26 12 -71 15 -99 3 -28 13 -64 21 -80 8 -16 15 -35
15 -41 0 -7 3 -13 8 -13 6 0 9 -15 15 -71 1 -9 6 -16 12 -16 8 0 9 15 4 46 -4
25 -5 49 -3 53 11 18 -16 201 -31 218 -9 10 -22 43 -29 72 -9 39 -14 48 -19
35z m55 -179 c-2 -10 -8 -18 -13 -18 -5 0 -9 -5 -9 -11 0 -6 7 -9 15 -5 9 3
15 0 15 -9 0 -18 -12 -19 -28 -3 -15 15 -16 58 -1 58 6 0 8 9 4 23 -7 21 -6
21 8 3 8 -11 12 -28 9 -38z"/>
<path d="M2479 2057 c6 -8 7 -18 3 -22 -4 -5 -1 -5 6 -1 8 5 12 0 12 -13 0
-10 -5 -21 -12 -23 -15 -5 46 -41 106 -61 58 -20 56 -20 56 -8 0 6 -38 39 -84
75 -80 63 -112 82 -87 53z"/>
<path d="M775 2041 c3 -6 -3 -14 -12 -20 -10 -6 -12 -11 -5 -11 6 0 12 -7 12
-15 0 -8 5 -15 10 -15 6 0 10 -5 10 -11 0 -5 -4 -7 -10 -4 -13 8 -13 2 2 -30
6 -14 16 -25 21 -25 5 0 4 -6 -2 -14 -13 -16 2 -32 19 -21 21 13 54 14 79 1
14 -7 32 -11 40 -8 12 4 12 3 0 -11 -8 -8 -17 -13 -21 -10 -5 2 -8 0 -8 -6 0
-14 41 -51 50 -46 5 3 11 -2 14 -11 3 -8 2 -12 -4 -9 -6 3 -10 2 -10 -4 0 -5
4 -12 10 -16 6 -4 6 -15 0 -31 -17 -43 0 -54 40 -26 l35 25 -30 -8 c-16 -3
-33 -12 -37 -18 -6 -9 -8 -9 -8 -1 0 18 22 32 55 36 43 5 45 -13 5 -40 -33
-22 -47 -45 -25 -39 6 1 9 6 7 11 -2 5 4 6 13 2 10 -3 14 -2 9 5 -4 7 1 10 12
7 9 -1 17 -6 16 -10 -1 -5 -2 -18 -3 -30 0 -22 -1 -22 -9 -3 -6 16 -8 14 -7
-13 0 -42 9 -47 38 -22 13 11 20 19 15 20 -5 0 -18 -7 -28 -17 -10 -9 -18 -11
-18 -5 0 10 71 62 84 62 2 0 3 -8 1 -17 -1 -10 0 -12 2 -5 5 14 53 36 61 28 2
-3 -7 -8 -22 -12 -14 -3 -26 -10 -26 -16 0 -5 6 -6 13 -2 6 4 1 -5 -12 -19
-14 -15 -30 -27 -37 -27 -6 0 -27 -7 -45 -15 l-34 -15 38 2 c31 2 48 11 88 51
27 26 49 44 49 38 0 -5 -6 -11 -12 -14 -7 -2 -10 -7 -7 -11 4 -4 14 1 23 10
26 26 27 12 1 -18 -20 -24 -24 -25 -28 -10 -4 16 -5 16 -6 0 0 -10 -5 -18 -11
-18 -5 0 -18 -10 -29 -21 -11 -12 -26 -19 -35 -16 -24 9 -31 -14 -10 -31 13
-10 15 -16 6 -19 -6 -3 -10 -9 -6 -14 3 -5 12 -2 21 7 11 11 18 12 23 4 5 -8
10 -7 18 2 8 10 5 13 -15 14 -37 3 -38 10 -7 38 20 17 31 21 36 13 5 -8 8 -6
8 6 0 10 4 16 9 12 5 -3 12 -1 16 5 3 5 11 10 16 10 6 0 7 -4 4 -10 -4 -6 1
-7 12 -3 16 6 16 4 -2 -16 -11 -12 -21 -18 -23 -12 -4 13 -22 15 -22 2 0 -18
33 -21 46 -4 10 14 15 16 25 6 11 -11 9 -13 -6 -13 -17 0 -18 -2 -5 -10 14 -9
13 -11 -9 -14 -5 0 -13 -5 -18 -10 -5 -5 -3 -6 5 -2 6 4 12 3 12 -3 0 -12 -21
-20 -38 -13 -11 4 -11 6 -1 12 9 6 9 12 -3 23 -16 16 -58 12 -58 -5 0 -5 9 -6
20 -3 15 5 20 2 20 -13 0 -11 7 -23 16 -26 8 -3 12 -11 8 -17 -5 -8 -3 -9 6
-4 10 6 12 4 7 -9 -4 -9 -3 -15 2 -12 12 8 33 -19 23 -29 -4 -5 -1 -5 6 -1 7
4 10 11 7 16 -3 4 4 10 15 13 13 3 20 0 20 -8 0 -23 20 -28 41 -9 16 14 19 15
19 2 0 -9 -13 -21 -30 -28 -30 -13 -44 -37 -14 -26 12 5 15 2 10 -9 -4 -11 -2
-14 6 -9 7 5 9 2 5 -9 -4 -12 -2 -14 10 -10 12 5 14 3 8 -7 -5 -9 -4 -11 4 -6
6 4 18 3 25 -3 10 -8 18 -6 31 9 13 14 25 18 39 14 33 -11 86 -13 92 -3 3 5 0
9 -7 9 -10 0 -10 3 -1 12 16 16 15 25 -3 25 -8 0 -15 -5 -14 -11 3 -23 -1 -36
-11 -36 -5 0 -10 12 -10 26 l0 26 -21 -23 c-23 -26 -24 -31 11 61 30 79 52
124 68 143 14 16 14 17 0 12 -8 -3 -24 -25 -34 -47 -17 -39 -19 -40 -25 -17
-7 23 -7 23 -8 2 -1 -28 -17 -38 -25 -16 -4 10 2 28 14 45 11 15 20 31 20 37
0 5 20 31 45 59 25 27 45 58 44 68 0 16 -1 16 -9 -2 -11 -28 -30 -40 -30 -20
0 9 5 16 12 16 6 0 9 2 6 5 -3 3 -12 3 -21 0 -17 -7 -29 -43 -16 -47 5 -2 2
-13 -7 -26 -15 -21 -34 -22 -34 -1 0 6 3 8 8 6 4 -3 8 6 9 20 0 15 -2 22 -5
17 -4 -5 -14 -9 -22 -9 -8 1 -23 -2 -32 -7 -15 -7 -16 -12 -6 -28 11 -17 14
-18 21 -4 8 14 11 13 23 -4 14 -20 9 -56 -5 -47 -4 2 -8 -1 -8 -8 0 -7 -10
-29 -23 -50 -16 -26 -26 -35 -33 -28 -9 9 10 46 58 110 9 12 7 12 -12 0 -13
-8 -23 -17 -23 -21 0 -16 -63 -107 -71 -102 -5 3 -6 -1 -3 -9 6 -16 -23 -44
-33 -33 -10 10 21 62 35 59 6 -2 9 4 6 12 -5 11 -16 6 -50 -22 -61 -52 -104
-56 -70 -8 7 11 14 23 15 28 0 4 2 6 4 5 1 -1 12 4 25 11 12 7 22 8 22 2 0 -5
-9 -12 -19 -16 -11 -3 -22 -13 -25 -21 -5 -14 67 37 78 55 7 11 -26 7 -51 -7
-34 -19 -28 -4 15 36 20 19 28 28 17 21 -11 -8 -23 -18 -26 -23 -4 -5 -12 -5
-18 -1 -8 4 0 15 21 29 18 13 32 28 30 34 -1 7 4 12 10 12 16 1 72 49 66 56
-3 2 -11 -2 -18 -11 -7 -8 -17 -15 -23 -15 -6 0 0 12 14 26 23 25 22 25 -25
-5 -28 -17 -54 -31 -59 -31 -13 0 13 30 27 30 6 1 24 11 40 24 24 20 33 22 53
13 19 -8 23 -16 18 -35 -5 -20 -4 -21 8 -10 8 7 12 19 10 25 -3 7 0 13 7 13 6
0 8 5 5 10 -4 6 -11 8 -16 5 -12 -8 -49 4 -49 15 0 6 10 6 24 0 17 -6 28 -5
35 4 6 7 8 15 5 19 -3 3 7 12 23 20 15 9 46 37 68 64 21 26 32 42 23 35 -10
-8 -23 -10 -29 -6 -7 4 -9 3 -5 -4 10 -17 -52 -82 -71 -75 -14 6 -14 9 5 21
12 8 22 19 22 24 0 5 -12 0 -26 -11 -32 -25 -54 -18 -48 15 4 22 3 23 -16 12
-18 -12 -19 -13 -2 -20 9 -3 12 -7 6 -7 -6 -1 -11 -7 -11 -15 0 -8 6 -12 13
-9 15 6 58 -16 49 -25 -4 -4 -11 -8 -16 -8 -30 -4 -31 -7 -9 -15 21 -7 19 -8
-12 -4 -27 3 -38 0 -38 -10 0 -7 -7 -16 -16 -19 -22 -9 -26 -8 -18 5 4 7 0 9
-13 5 -24 -8 -55 2 -47 15 3 5 10 9 15 9 6 0 7 -5 3 -11 -4 -7 2 -7 17 1 35
18 38 23 9 16 -24 -7 -24 -6 -6 8 18 14 21 14 36 1 15 -14 20 -13 41 5 l24 20
-29 -10 c-20 -7 -32 -7 -42 0 -14 12 -43 1 -76 -28 -10 -8 -18 -12 -18 -8 0 4
-13 -1 -30 -10 -21 -13 -26 -20 -17 -26 9 -6 9 -8 0 -8 -7 0 -10 -6 -7 -14 8
-21 -62 -61 -84 -47 -15 9 66 94 111 118 18 9 38 24 44 33 7 10 31 25 53 34
36 14 39 18 30 36 -12 22 -5 44 11 35 5 -4 9 -1 9 6 0 11 -27 9 -64 -6 -13 -6
-17 -5 -13 2 5 7 -1 9 -15 6 -22 -4 -22 -3 2 11 14 8 42 18 62 21 21 4 40 11
44 16 7 11 10 12 -56 -6 -66 -18 -63 -18 -54 -3 5 7 3 8 -5 4 -7 -5 -10 -10
-7 -14 3 -3 -2 -11 -12 -18 -10 -8 -12 -13 -4 -14 26 0 10 -18 -38 -40 -27
-13 -50 -27 -50 -32 0 -8 83 34 104 54 6 4 15 8 20 8 6 -1 1 -9 -12 -19 -15
-13 -18 -21 -10 -24 8 -3 6 -6 -4 -6 -10 -1 -18 -5 -18 -11 0 -15 9 -12 58 16
24 15 43 21 40 14 -2 -7 -26 -24 -54 -39 -34 -18 -49 -31 -46 -41 3 -8 1 -12
-3 -8 -4 4 -20 -1 -35 -12 -30 -22 -51 -27 -33 -9 8 8 8 18 1 35 -13 29 -21
30 -39 7 -12 -16 -12 -17 2 -6 25 20 31 3 6 -18 -12 -10 -17 -18 -10 -19 6 0
15 5 18 10 3 6 12 10 18 10 7 -1 1 -10 -12 -21 -21 -18 -26 -18 -41 -4 -19 17
-36 19 -44 6 -4 -5 4 -7 16 -5 13 2 17 2 10 -2 -17 -8 -5 -24 13 -17 8 3 15 0
15 -6 0 -6 -4 -11 -9 -11 -5 0 -17 -7 -26 -16 -21 -21 -32 -10 -14 13 13 17
13 17 -5 3 -18 -13 -19 -13 -14 1 6 14 1 15 -30 8 -38 -8 -52 -5 -52 13 0 5 8
7 17 4 14 -6 12 -2 -5 17 -22 24 -21 40 3 31 7 -3 16 -1 20 5 3 7 0 8 -9 5 -9
-3 -16 -3 -16 0 0 4 25 18 55 32 30 14 55 29 55 34 0 5 6 7 14 4 8 -3 17 0 22
7 5 9 2 10 -9 6 -10 -3 -17 -3 -17 1 0 5 24 16 53 26 28 11 56 23 61 27 15 14
-7 11 -40 -5 -46 -22 -78 -30 -70 -17 4 6 14 11 22 11 8 0 14 5 14 11 0 5 -5
7 -12 3 -8 -5 -9 -2 -5 9 3 10 2 17 -3 17 -6 0 -10 -9 -10 -19 0 -11 -4 -22
-9 -25 -14 -9 -21 20 -8 33 8 8 8 11 -1 11 -7 0 -12 -4 -12 -10 0 -5 -7 -6
-17 -3 -12 5 -14 3 -8 -7 6 -10 3 -12 -15 -7 -27 7 -80 -2 -80 -14 0 -4 14 -3
31 3 16 6 33 8 36 4 12 -11 -8 -20 -46 -21 -27 0 -37 -4 -34 -13 8 -20 -15
-39 -44 -38 -20 1 -27 6 -25 18 4 28 -14 29 -53 2 -45 -30 -55 -26 -20 9 14
14 22 28 17 31 -6 3 -12 -1 -16 -9 -3 -8 -10 -15 -17 -15 -6 0 -8 7 -5 16 4 9
2 13 -5 8 -7 -4 -10 -1 -7 7 3 8 14 15 26 17 30 5 17 22 -16 22 -19 0 -23 3
-15 11 12 12 6 49 -9 49 -5 0 -7 -4 -3 -9z m332 -100 c10 -16 7 -20 -26 -30
-21 -6 -48 -11 -59 -11 -11 0 -23 -4 -26 -9 -4 -5 4 -7 16 -4 22 4 22 3 -2
-11 -40 -24 -17 -18 40 10 28 14 54 23 57 21 3 -3 -19 -18 -49 -33 -29 -15
-59 -35 -66 -45 -7 -11 -20 -19 -29 -19 -13 0 -13 3 -3 15 11 13 10 14 -4 9
-9 -3 -16 -2 -16 4 0 5 9 12 20 15 11 3 20 10 20 17 0 6 -4 8 -10 5 -14 -8
-12 7 3 26 7 9 17 14 22 12 6 -1 28 8 50 22 48 30 47 29 62 6z m247 -25 c-5
-12 -45 -36 -61 -36 -14 0 31 34 64 49 1 1 0 -5 -3 -13z m-192 -179 c-12 -12
-31 -33 -42 -47 -15 -19 -22 -22 -28 -12 -5 8 -13 13 -18 12 -5 -1 -10 3 -12
9 -5 14 0 14 33 1 18 -7 24 -7 19 1 -3 6 9 23 27 39 39 32 54 30 21 -3z m128
8 c0 -6 -9 -20 -20 -30 -15 -14 -23 -16 -32 -7 -8 8 -5 17 13 32 l24 21 -25
-11 c-23 -10 -24 -10 -7 4 21 16 47 11 47 -9z m51 -18 c-6 -8 -36 -26 -67 -41
-40 -20 -59 -25 -67 -17 -6 6 -9 11 -6 12 56 9 112 37 103 51 -3 4 7 8 22 8
21 0 24 -3 15 -13z m5 -62 c-11 -8 -24 -15 -29 -15 -4 0 -6 -4 -3 -8 2 -4 1
-14 -3 -21 -6 -9 -11 -10 -15 -2 -4 6 -1 11 6 11 10 0 9 3 -2 9 -20 13 -33 2
-19 -16 10 -12 10 -16 -2 -24 -18 -11 -21 -11 -39 1 -12 7 -12 12 4 29 13 15
15 21 6 21 -20 0 -2 14 20 15 11 1 20 -3 20 -8 0 -5 10 -2 23 6 29 21 60 22
33 2z m128 -180 c3 10 9 16 12 13 9 -10 -44 -133 -56 -130 -6 1 -19 -7 -29
-19 -18 -22 -41 -19 -41 5 0 21 51 51 60 36 5 -8 10 -9 14 -2 8 13 -29 26 -46
16 -7 -4 -3 3 9 15 24 23 43 27 43 9 0 -6 2 -9 5 -6 3 3 1 17 -4 32 -6 14 -8
33 -4 42 5 14 8 13 18 -6 11 -20 13 -21 19 -5z m-73 -50 c-15 -16 -34 -43 -41
-59 -14 -28 -15 -28 -18 -7 -2 13 4 31 13 41 11 13 13 20 5 25 -8 5 -5 11 7
21 10 7 14 14 9 14 -5 0 -3 7 4 15 11 14 15 14 30 -2 17 -17 17 -19 -9 -48z"/>
<path d="M2329 2033 c5 -10 22 -30 38 -44 146 -136 200 -199 187 -220 -4 -7
-3 -9 4 -5 6 3 23 -7 39 -23 35 -35 118 -160 111 -167 -3 -3 -26 23 -51 58
-75 102 -86 115 -87 97 0 -24 91 -160 128 -191 33 -28 39 -38 22 -38 -6 0 -31
21 -56 48 -26 26 -41 37 -35 25 6 -12 16 -25 22 -29 6 -3 22 -29 34 -57 23
-48 24 -49 30 -24 4 15 11 27 17 27 5 0 6 -6 2 -12 -4 -7 1 -5 11 4 17 16 19
16 36 -3 11 -12 20 -16 24 -9 3 5 2 10 -3 10 -10 0 -152 213 -152 227 0 22 93
-90 121 -146 39 -79 38 -76 45 -69 3 4 1 16 -6 27 -6 12 -7 28 -3 36 7 12 14
10 37 -12 26 -24 28 -24 21 -4 -5 17 -2 21 17 22 13 1 30 0 38 -1 8 -1 -4 15
-28 35 -23 21 -40 40 -38 43 3 2 12 -3 21 -12 9 -9 21 -16 28 -16 6 0 2 7 -9
16 -19 15 -19 15 3 11 16 -4 20 -1 16 11 -4 10 -2 13 5 8 6 -3 14 -1 17 5 4 5
13 8 21 5 8 -3 14 -2 14 2 0 8 -71 41 -99 45 -10 2 -30 10 -44 20 -15 9 -31
17 -37 17 -6 0 -8 5 -5 11 4 6 14 8 24 5 14 -5 0 8 -44 42 -5 4 -30 24 -55 43
-25 20 -65 46 -90 58 -51 25 -44 18 83 -74 48 -35 83 -66 77 -70 -5 -3 -31 9
-56 27 -26 18 -56 39 -68 47 -11 8 -37 29 -56 46 -37 34 -108 83 -150 105 -27
14 73 -81 160 -151 60 -49 96 -70 150 -90 47 -17 140 -78 140 -92 0 -7 -4 -7
-12 1 -14 14 -32 16 -24 4 10 -17 -35 -5 -52 13 -16 19 -16 19 3 3 12 -10 26
-14 34 -9 9 6 -6 18 -48 40 -73 37 -90 39 -57 6 26 -26 42 -33 30 -13 -5 7 -3
8 5 4 7 -5 10 -11 6 -14 -3 -3 20 -33 52 -65 32 -33 50 -57 41 -54 -9 3 -18 1
-21 -6 -4 -12 -57 26 -145 105 -29 26 -57 47 -61 45 -4 -1 -33 27 -65 62 -38
43 -56 71 -53 83 3 10 1 16 -4 12 -5 -3 -9 -1 -9 4 0 12 -134 143 -163 159
-31 17 -39 16 -28 -4z"/>
<path d="M1038 2023 c-16 -8 -28 -18 -28 -22 0 -5 -12 -12 -26 -15 -15 -4 -24
-9 -22 -12 7 -7 68 17 68 27 0 5 9 9 19 9 10 0 21 7 25 15 6 18 0 18 -36 -2z"/>
<path d="M865 2018 c-5 -13 -14 -16 -34 -13 -25 5 -25 5 -3 -5 13 -5 28 -8 32
-5 5 3 11 -3 14 -13 6 -18 46 -28 46 -11 0 5 -3 8 -7 8 -20 -3 -34 2 -28 11 3
5 2 18 -4 27 -9 17 -10 17 -16 1z"/>
<path d="M1670 2013 c-8 -13 -13 -14 -16 -6 -4 8 -18 -1 -41 -23 -19 -19 -33
-37 -30 -40 2 -2 10 2 17 11 7 8 17 15 23 15 7 0 7 -4 -1 -12 -7 -7 -8 -17 -2
-28 7 -13 4 -25 -11 -44 -11 -14 -25 -24 -30 -21 -5 4 -6 -1 -3 -9 3 -9 2 -16
-4 -16 -6 0 -24 -22 -41 -50 -63 -102 12 -32 85 80 16 25 35 45 41 45 6 0 15
4 20 9 5 5 3 6 -4 2 -19 -11 -16 -2 17 54 29 49 31 66 3 33 -14 -17 -14 -17
-9 0 3 9 3 17 1 17 -2 0 -9 -8 -15 -17z m-4 -51 c-9 -17 -21 -34 -27 -38 -8
-4 -9 -3 -5 4 4 7 2 12 -5 12 -8 0 -8 4 -1 13 6 6 10 16 10 22 1 9 34 25 40
20 2 -2 -4 -17 -12 -33z"/>
<path d="M2640 2016 c23 -21 160 -89 167 -82 3 3 -2 8 -11 12 -9 3 -13 11 -9
17 3 6 1 7 -6 3 -6 -4 -40 9 -75 28 -67 38 -90 45 -66 22z"/>
<path d="M910 2000 c-13 -8 -13 -10 1 -10 9 0 19 -6 22 -14 7 -18 -18 -40 -34
-30 -8 5 -9 3 -5 -5 5 -7 14 -10 21 -7 7 2 17 0 23 -6 7 -7 10 -1 8 18 -3 43
-18 65 -36 54z"/>
<path d="M1909 1933 c-12 -27 -23 -66 -24 -88 -2 -22 -6 -87 -9 -145 l-5 -105
17 75 c10 41 26 90 36 108 13 25 16 52 14 117 -1 47 -4 85 -5 85 -1 0 -12 -21
-24 -47z"/>
<path d="M2410 1917 c0 -18 75 -139 97 -157 15 -11 22 -24 17 -31 -4 -7 -3 -9
3 -6 11 7 28 -20 24 -36 -1 -5 3 -6 8 -3 11 7 -19 80 -54 136 -23 36 -95 109
-95 97z"/>
<path d="M1633 1849 c-15 -33 -26 -48 -34 -43 -8 4 -9 3 -5 -4 4 -6 -1 -24
-11 -39 -17 -28 -17 -28 2 -12 11 9 27 14 35 12 12 -4 12 -3 2 5 -11 8 -11 15
4 43 30 55 44 89 36 89 -4 0 -17 -23 -29 -51z"/>
<path d="M1212 1846 c-21 -11 -22 -14 -7 -26 8 -7 18 -10 22 -6 3 3 1 6 -5 6
-7 0 -12 4 -12 10 0 5 6 7 14 4 7 -3 16 2 19 10 8 19 0 20 -31 2z"/>
<path d="M2556 1849 c23 -37 126 -135 179 -170 58 -38 56 -35 -45 62 -100 96
-153 139 -134 108z"/>
<path d="M2142 1800 c0 -30 3 -64 8 -75 11 -26 11 70 0 105 -6 19 -8 12 -8
-30z"/>
<path d="M1050 1814 c-40 -22 -38 -25 5 -8 8 3 15 1 15 -5 0 -8 6 -9 18 -3 9
5 24 7 32 5 8 -2 5 2 -8 10 -12 7 -19 16 -16 20 12 12 1 7 -46 -19z"/>
<path d="M1855 1822 c-5 -4 -10 -11 -10 -17 -2 -26 -18 -113 -26 -141 -5 -17
-12 -41 -14 -53 -3 -11 -8 -31 -11 -43 -3 -13 -10 -42 -15 -66 -4 -23 -13 -52
-20 -63 -6 -11 -8 -23 -5 -26 8 -9 37 68 56 152 10 44 23 93 29 108 6 16 11
46 11 67 0 21 4 50 10 64 10 28 10 29 -5 18z"/>
<path d="M1956 1782 c-4 -7 -4 -12 1 -12 4 0 9 -30 9 -68 1 -73 11 -294 13
-302 1 -3 8 12 15 32 17 47 15 215 -4 278 -21 75 -26 85 -34 72z"/>
<path d="M1937 1753 c-13 -23 -37 -158 -36 -209 1 -85 -10 -213 -22 -259 -18
-70 -20 -75 -30 -69 -5 3 -7 15 -3 26 4 15 3 18 -6 13 -9 -6 -9 -3 -1 13 14
26 14 32 0 32 -5 0 -7 -4 -4 -10 3 -5 -1 -10 -9 -10 -9 0 -16 -4 -16 -10 0 -5
-4 -10 -10 -10 -5 0 -7 6 -4 13 8 23 10 86 2 81 -4 -3 -8 -11 -8 -19 0 -7 -6
-15 -14 -18 -8 -3 -14 -15 -13 -26 0 -11 5 -17 9 -15 4 3 8 -2 8 -10 0 -9 8
-16 19 -16 11 0 23 -9 26 -20 3 -11 11 -20 16 -20 5 0 9 -8 9 -17 1 -13 5 -10
16 10 8 15 20 27 26 27 7 0 7 4 -1 14 -7 9 -8 17 -2 20 5 3 12 0 14 -6 3 -7 3
3 0 22 -3 24 -2 31 5 22 5 -8 11 -13 13 -12 9 3 39 -13 39 -22 0 -5 -4 -6 -10
-3 -5 3 -10 4 -10 2 0 -8 51 -38 72 -42 11 -2 27 -10 34 -16 26 -22 36 5 35
92 -1 86 15 195 32 217 6 8 6 12 -2 12 -6 0 -11 18 -11 45 0 25 -4 45 -9 45
-5 0 -8 -29 -7 -65 0 -36 -3 -65 -7 -65 -5 0 -6 -9 -2 -19 6 -21 -10 -38 -20
-21 -4 6 1 22 9 35 11 16 12 25 5 25 -8 0 -10 12 -6 35 3 19 2 35 -3 35 -5 0
-11 10 -13 23 -2 12 -5 -18 -6 -68 0 -49 3 -106 8 -125 13 -49 21 -200 11
-200 -17 0 -24 47 -29 188 -2 59 -21 33 -22 -30 0 -35 -7 -79 -14 -98 -15 -39
-17 -37 -24 50 -2 23 -3 23 -10 5 -5 -11 -6 -24 -3 -30 3 -5 -2 -4 -11 4 -9 7
-17 20 -17 27 0 7 -6 11 -14 8 -11 -4 -12 3 -4 38 20 90 27 166 26 253 0 50 2
100 6 113 7 21 2 31 -7 15z"/>
<path d="M1792 1686 c-7 -20 -17 -36 -21 -36 -3 0 -7 -10 -8 -22 -1 -15 7 -7
23 25 14 27 24 53 22 58 -2 6 -9 -6 -16 -25z"/>
<path d="M1600 1704 c0 -6 -8 -19 -17 -30 -25 -28 -58 -90 -40 -76 8 7 18 8
22 4 5 -4 5 -1 1 6 -5 8 3 29 20 53 15 22 24 42 20 46 -3 3 -6 2 -6 -3z"/>
<path d="M2127 1700 c-3 -8 -4 -26 -3 -40 2 -14 4 -36 5 -50 1 -22 3 -23 12
-8 6 11 6 35 1 65 -5 27 -12 42 -15 33z"/>
<path d="M2190 1691 c15 -29 12 -61 -5 -61 -8 0 -23 -17 -34 -37 -17 -35 -18
-42 -4 -93 9 -30 19 -68 23 -85 7 -28 8 -28 9 -5 0 14 -4 59 -9 100 -12 92 -7
114 26 106 19 -5 24 -2 24 12 0 28 -21 82 -31 82 -6 0 -5 -8 1 -19z"/>
<path d="M1380 1655 c-13 -14 -20 -25 -16 -25 5 0 2 -8 -5 -17 -13 -17 -13
-17 5 -3 18 14 19 13 13 -2 -4 -12 -2 -15 8 -12 15 6 9 34 -8 34 -8 0 -8 3 0
11 13 13 36 3 28 -12 -4 -5 -2 -9 4 -9 6 0 8 -8 5 -17 -5 -15 -4 -16 5 -3 7
11 6 21 -4 36 -10 16 -11 24 -2 33 7 7 7 11 1 11 -6 0 -21 -11 -34 -25z"/>
<path d="M1839 1623 c-3 -18 -2 -33 2 -33 5 0 13 -15 19 -32 9 -32 10 -32 4
-3 -3 17 -8 46 -13 65 l-7 35 -5 -32z"/>
<path d="M2211 1550 c0 -14 4 -34 9 -45 7 -17 9 -16 9 10 0 17 -4 37 -9 45 -8
12 -10 10 -9 -10z"/>
<path d="M1845 1530 c3 -19 8 -49 11 -67 5 -23 1 -36 -15 -52 -23 -23 -26 -37
-10 -46 6 -4 9 0 7 11 -2 11 2 18 8 17 5 -1 15 15 20 35 8 30 6 48 -8 87 -15
41 -18 44 -13 15z"/>
<path d="M1540 1515 c-16 -41 -29 -105 -21 -105 8 0 43 121 37 128 -3 2 -10
-8 -16 -23z"/>
<path d="M2196 1492 c-2 -4 0 -29 6 -55 5 -26 6 -56 2 -65 -9 -20 -11 -29 -13
-56 -1 -12 -4 -16 -9 -10 -10 10 -33 88 -37 120 -1 11 -7 28 -12 39 -9 16 -12
13 -17 -21 -3 -21 -7 -72 -9 -111 -1 -40 -5 -73 -9 -73 -5 0 -8 -7 -8 -15 0
-8 5 -15 11 -15 5 0 8 4 4 9 -3 5 -1 12 5 16 5 3 10 24 10 46 0 24 4 38 10 34
6 -4 8 7 5 27 -5 30 -4 29 8 -7 11 -33 11 -41 0 -43 -18 -5 -16 -29 3 -36 14
-5 15 -4 4 9 -10 12 -10 15 4 15 9 0 16 -6 16 -14 0 -8 4 -18 10 -21 5 -3 7 0
5 8 -3 7 3 21 14 31 11 10 17 25 15 34 -3 10 2 5 11 -10 18 -32 31 -38 15 -8
-7 13 -7 20 -1 20 12 0 27 -47 23 -70 -2 -12 -1 -12 6 -2 7 11 10 9 15 -7 3
-12 11 -21 19 -21 9 0 9 3 2 8 -6 4 -17 30 -24 58 -9 36 -18 51 -29 50 -11 -1
-19 15 -29 59 -7 33 -14 66 -14 73 -2 14 -5 15 -12 4z"/>
<path d="M2302 1308 c6 -18 15 -42 20 -53 8 -19 8 -19 4 2 -2 12 1 24 6 25 6
2 -1 16 -15 32 l-26 28 11 -34z"/>
<path d="M2270 448 c0 -9 6 -18 13 -21 9 -3 8 -12 -5 -35 -10 -16 -18 -33 -18
-36 0 -12 30 7 44 29 15 23 14 26 -9 52 -18 21 -24 24 -25 11z"/>
<path d="M2314 449 c-4 -7 -2 -15 4 -17 16 -5 15 -33 -3 -56 -8 -10 -12 -23
-9 -27 2 -4 -4 -8 -13 -8 -10 0 -42 -2 -72 -3 -36 -2 -55 1 -58 10 -6 14 14
42 29 42 6 0 5 -7 -2 -15 -19 -23 -6 -28 14 -6 22 24 12 44 -17 35 -20 -6 -20
-5 -8 10 8 9 11 19 7 23 -3 3 -6 0 -6 -7 0 -9 -6 -8 -19 4 -11 10 -26 16 -33
13 -8 -4 -7 -6 5 -6 18 -1 25 -21 6 -21 -5 0 -7 -4 -4 -10 10 -16 -7 -11 -19
6 -12 16 -91 29 -81 13 4 -5 2 -9 -4 -9 -5 0 -13 -9 -16 -21 -4 -11 -12 -18
-19 -16 -7 3 -13 -1 -13 -9 0 -7 4 -11 8 -9 4 3 6 -3 4 -12 -2 -10 -4 -25 -5
-33 -1 -11 -3 -11 -7 -2 -2 6 -10 10 -16 6 -7 -3 -3 2 7 10 11 9 14 16 8 16
-7 0 -12 7 -12 15 0 20 -14 19 -31 -2 -12 -15 -12 -16 4 -10 13 5 17 3 15 -5
-3 -9 -32 -12 -99 -11 -139 2 -132 0 -126 23 3 11 1 18 -4 14 -5 -3 -9 -12 -9
-20 0 -8 -5 -14 -11 -14 -6 0 -8 9 -4 23 6 21 6 21 -15 -3 -21 -24 -21 -24
-15 -2 9 32 -2 27 -21 -10 -15 -30 -15 -32 2 -45 10 -7 13 -13 7 -13 -7 0 -15
5 -18 10 -4 6 -11 7 -17 4 -7 -5 -3 -11 11 -16 29 -10 46 -1 31 17 -8 9 -6 14
6 19 24 9 31 7 14 -5 -12 -8 -10 -9 8 -4 28 8 64 -3 56 -17 -4 -7 -2 -8 5 -4
6 4 9 12 6 17 -4 5 1 9 10 9 10 0 13 -5 9 -12 -5 -7 -3 -8 5 -3 7 4 28 8 47
10 29 2 32 0 21 -13 -10 -13 -9 -14 10 -4 12 7 25 16 28 22 3 5 11 7 18 5 7
-2 25 -6 40 -10 20 -4 27 -10 23 -20 -3 -8 -2 -15 2 -16 4 0 15 -2 24 -4 12
-2 19 6 23 26 4 16 11 29 16 29 6 0 7 -6 3 -12 -6 -10 -4 -10 7 0 7 6 19 12
27 12 8 0 10 -5 6 -12 -5 -9 -2 -9 9 1 9 7 17 10 17 5 0 -5 11 -9 24 -9 20 0
22 3 13 14 -10 12 -9 12 10 3 12 -7 29 -9 39 -5 12 4 15 3 10 -5 -9 -16 7 -15
22 0 9 9 12 8 12 -8 0 -16 2 -17 10 -4 5 8 10 11 10 5 0 -5 5 -3 10 5 5 8 10
10 10 3 0 -7 14 -10 40 -7 29 3 39 0 34 -8 -4 -6 -3 -8 4 -4 5 3 13 0 16 -6 3
-7 4 -4 1 7 -4 16 0 20 18 20 31 -2 49 -14 41 -28 -3 -7 1 -4 10 7 8 10 19 15
25 11 6 -3 11 -1 11 6 0 7 3 9 8 5 4 -4 7 -13 7 -19 0 -7 9 -13 20 -14 19 -3
19 -3 1 5 -14 6 -16 11 -8 16 7 4 16 4 22 1 6 -4 7 1 3 11 -5 12 -3 15 6 9 10
-6 11 -3 1 14 -8 16 -17 20 -31 16 -16 -5 -19 -1 -19 23 0 35 -21 57 -37 41
-7 -7 -17 -8 -25 -3 -19 12 -39 14 -32 3 3 -5 12 -9 20 -9 8 0 14 -4 14 -9 0
-4 11 -6 25 -3 28 5 29 3 15 -32 -8 -21 -7 -24 8 -19 15 6 15 5 3 -11 -10 -12
-25 -16 -50 -14 -41 3 -55 16 -39 35 6 8 8 16 4 20 -3 4 -13 -2 -20 -13 -8
-10 -10 -21 -5 -22 17 -6 -2 -22 -26 -22 -12 0 -26 7 -29 16 -5 12 -2 15 13
11 14 -3 17 0 14 14 -3 11 0 20 6 20 6 1 16 3 21 4 6 1 17 3 26 4 8 0 12 6 9
11 -3 6 -18 8 -32 5 -20 -3 -23 -1 -15 7 7 7 12 17 12 23 0 5 -5 3 -10 -5 -9
-13 -12 -13 -24 3 -11 14 -16 15 -22 6z m-250 -46 c-10 -8 -18 -19 -16 -24 1
-5 -2 -9 -6 -9 -5 0 -14 -18 -21 -40 -6 -21 -16 -42 -21 -45 -14 -9 -12 7 5
49 8 20 12 36 8 36 -4 0 6 13 22 30 15 16 33 27 38 23 6 -3 2 -12 -9 -20z
m102 -1 c0 -10 -13 -30 -27 -46 -22 -23 -27 -25 -32 -12 -4 9 -1 15 5 13 6 -1
13 5 15 13 4 12 3 12 -5 2 -5 -8 -13 -14 -18 -14 -5 0 -8 -4 -6 -9 1 -5 -9 -9
-23 -9 -14 0 -25 6 -25 13 0 18 18 42 26 34 4 -3 3 -12 -2 -20 -5 -7 -2 -5 7
4 8 9 28 16 45 15 22 -1 28 3 26 17 -2 9 1 17 6 17 5 0 9 -8 8 -18z"/>
<path d="M1503 436 c0 -6 -4 -19 -8 -28 -4 -11 -3 -18 5 -18 6 0 14 9 17 20 3
11 10 20 15 20 5 0 7 -9 4 -20 -3 -11 -8 -30 -12 -42 -5 -22 -4 -22 10 -4 8
10 17 23 19 29 2 6 9 7 16 3 7 -5 10 -14 7 -22 -3 -8 -1 -14 4 -14 12 0 24 46
15 59 -3 6 -1 11 5 11 17 0 22 -24 10 -54 -8 -21 -7 -27 2 -23 7 2 12 11 10
21 -2 9 2 16 8 16 5 0 10 -6 10 -12 0 -10 3 -9 9 1 5 8 28 14 57 14 42 2 49
-1 46 -17 -2 -10 1 -15 6 -12 6 3 12 1 14 -5 5 -14 38 0 38 16 0 7 11 13 25
13 20 0 24 -4 20 -19 -4 -11 -2 -19 4 -19 5 0 13 9 16 20 9 28 28 25 20 -2 -6
-23 -6 -23 13 1 11 13 24 21 31 17 6 -4 11 -3 11 2 0 6 -7 12 -15 16 -8 3 -12
12 -9 21 8 19 -23 32 -39 16 -9 -10 -8 -15 6 -25 23 -18 21 -25 -5 -18 -27 6
-41 24 -27 33 7 4 4 9 -6 12 -9 4 -14 3 -10 -2 3 -5 -1 -12 -7 -14 -10 -4 -10
-6 0 -6 7 -1 10 -6 7 -11 -5 -8 -12 -7 -23 2 -12 10 -14 10 -8 1 9 -17 3 -16
-41 2 -45 19 -55 19 -23 -1 16 -10 18 -13 5 -8 -11 4 -35 7 -53 6 -24 -2 -31
1 -26 10 4 7 -2 5 -13 -5 -23 -20 -39 -11 -20 11 6 9 7 13 2 10 -6 -4 -17 -3
-25 2 -19 12 -40 -7 -33 -28 4 -13 3 -14 -5 -3 -6 8 -15 10 -23 6 -8 -5 -7 -1
3 11 16 18 15 19 -21 20 -22 1 -38 -3 -38 -10z"/>
<path d="M2246 423 c-3 -10 -5 -21 -3 -24 1 -4 -7 -16 -17 -28 -11 -12 -15
-21 -9 -21 17 0 45 38 37 51 -4 8 -3 10 4 5 7 -4 12 -1 12 8 0 22 -18 29 -24
9z"/>
<path d="M1445 410 c-3 -5 0 -10 7 -10 10 0 9 -3 -2 -9 -8 -6 -17 -8 -21 -5
-4 2 -11 -1 -15 -7 -5 -9 1 -10 20 -5 24 6 26 5 17 -13 -12 -21 9 -48 29 -36
14 9 13 -8 -2 -25 -11 -12 -10 -12 4 -2 9 7 18 9 20 5 3 -4 3 -3 2 4 -2 9 3 9
21 1 14 -6 25 -15 25 -21 0 -5 6 -7 14 -4 7 3 19 0 25 -6 12 -12 51 -17 51 -6
0 4 -13 12 -30 18 -16 5 -30 15 -30 20 0 15 17 14 22 -1 3 -8 9 -5 16 9 12 21
11 21 -58 18 -68 -4 -70 -3 -59 17 6 11 8 22 5 25 -9 9 -26 -8 -26 -28 0 -10
-5 -19 -11 -19 -10 0 -8 20 7 73 6 18 -20 25 -31 7z"/>
<path d="M2434 390 c-12 -4 -24 -15 -27 -24 -9 -24 6 -19 33 9 26 27 25 28 -6
15z"/>
<path d="M1460 220 c0 -4 20 -10 45 -12 24 -1 40 1 36 5 -11 11 -81 17 -81 7z"/>
</g>
</svg>
