 <svg  version="1.0" xmlns="http://www.w3.org/2000/svg"  width="300.000000pt" height="191.000000pt" viewBox="0 0 300.000000 191.000000"  preserveAspectRatio="xMidYMid meet">  <g transform="translate(0.000000,191.000000) scale(0.050000,-0.050000)" fill="#c6d9bb" stroke="none"> <path d="M3218 3638 c173 -34 71 -41 -140 -10 -28 4 -96 1 -150 -8 -54 -9 -165 -27 -248 -40 -82 -14 -163 -33 -180 -44 -24 -15 -22 -16 8 -7 32 10 34 8 11 -20 -17 -20 -43 -27 -74 -20 -28 8 -77 -3 -121 -26 -41 -20 -105 -52 -144 -70 -38 -18 -110 -64 -160 -102 -97 -74 -142 -91 -97 -38 24 30 23 31 -17 10 -57 -30 -80 -66 -32 -51 20 7 -11 -35 -69 -92 -100 -98 -132 -178 -42 -104 82 67 135 132 123 151 -7 10 -2 13 10 6 11 -8 27 -4 34 7 18 29 130 84 130 64 0 -26 -123 -145 -139 -134 -19 11 -221 -198 -221 -229 0 -26 -13 -50 -129 -243 -50 -83 -91 -169 -91 -190 0 -21 -14 -77 -31 -126 -38 -109 -22 -128 43 -51 l51 59 -13 -54 c-8 -29 -5 -69 6 -89 18 -31 23 -27 39 34 13 48 28 67 52 63 20 -3 41 13 51 40 23 62 5 87 -32 42 -28 -35 -29 -35 -18 1 7 20 12 45 12 56 0 11 52 73 115 137 63 64 132 141 154 172 24 34 42 46 47 30 5 -14 -12 -46 -37 -73 -24 -26 -55 -68 -67 -93 -13 -25 -34 -46 -47 -46 -12 0 -35 -13 -49 -29 -22 -25 -21 -25 9 -3 43 33 44 9 5 -85 -39 -93 -38 -98 11 -83 22 7 53 4 67 -8 20 -17 47 13 120 137 148 250 566 584 698 558 13 -3 42 4 64 16 125 68 644 58 601 -11 -4 -7 24 -13 62 -14 37 0 78 -11 90 -23 17 -17 10 -20 -25 -11 -26 7 -42 6 -36 -2 7 -7 43 -16 80 -19 178 -15 595 -423 668 -654 18 -55 43 -48 61 16 24 90 22 145 -5 145 -14 0 -25 7 -24 15 10 59 -6 105 -35 105 -19 0 -28 5 -22 12 6 6 -25 47 -69 90 -44 43 -70 78 -57 78 13 0 18 9 12 19 -7 11 -25 14 -42 8 -18 -7 -29 1 -29 20 0 16 -18 36 -40 43 -21 7 -37 21 -35 31 3 9 -26 35 -65 57 -38 21 -68 48 -65 60 2 11 -7 16 -20 11 -14 -5 -56 11 -95 35 -70 44 -81 49 -121 54 -12 1 -15 13 -6 27 11 18 6 18 -18 -1 -28 -23 -37 -19 -66 25 -27 41 -40 47 -62 29 -30 -26 -38 3 -8 33 12 12 -24 19 -98 19 -64 0 -113 -7 -108 -15 5 -8 -3 -15 -19 -15 -16 0 -70 -6 -121 -13 -58 -8 -93 -5 -93 8 0 11 37 21 82 21 45 1 87 7 93 13 7 6 -12 11 -42 11 -29 0 -53 8 -53 19 0 10 56 15 126 11 69 -5 138 1 155 11 28 18 -23 29 -93 21 -12 -1 -20 24 -18 56 2 42 -5 56 -28 53 -22 -3 -30 -22 -26 -58 7 -55 -76 -81 -106 -33 -7 11 -1 20 14 20 19 1 18 6 -4 20 -20 13 -22 19 -5 20 14 0 25 10 25 22 0 12 -30 2 -67 -20 -67 -42 -139 -20 -98 29 8 10 0 6 -18 -8 -24 -18 -37 -19 -47 -3 -20 33 -1 44 79 47 39 1 71 9 71 17 0 9 10 16 21 16 12 0 16 -8 10 -19 -7 -10 6 -17 29 -16 22 2 40 12 40 21 0 10 16 12 35 4 50 -20 165 -24 165 -5 0 24 90 17 117 -10 20 -20 29 -19 44 5 12 20 18 22 19 5 0 -14 19 -25 41 -25 23 0 36 -9 29 -20 -11 -18 15 -29 54 -23 37 6 294 -104 284 -121 -7 -10 5 -16 25 -12 24 4 36 -5 34 -27 -1 -19 9 -30 22 -24 33 12 214 -152 198 -179 -9 -13 -1 -16 22 -7 26 10 32 6 24 -16 -7 -19 -1 -25 18 -18 16 6 29 1 29 -12 0 -12 22 -46 49 -76 27 -29 45 -59 40 -67 -5 -8 8 -21 30 -28 24 -7 35 -23 28 -41 -6 -16 0 -29 13 -29 13 0 19 -13 13 -30 -7 -18 0 -30 18 -30 16 0 29 -10 29 -21 0 -12 -9 -16 -20 -9 -29 18 -24 -8 8 -40 15 -16 32 -23 38 -17 6 6 21 -26 33 -71 13 -45 32 -82 43 -82 11 0 15 -9 9 -19 -19 -30 10 -121 38 -121 16 0 22 20 17 55 -8 54 -7 54 21 -8 51 -109 81 -107 64 5 -8 54 -15 109 -16 123 -1 14 -9 25 -18 25 -9 0 -17 11 -17 25 0 32 -87 197 -163 311 -31 47 -57 99 -57 115 0 16 -7 29 -15 30 -8 0 -69 51 -135 112 -67 61 -98 100 -70 87 33 -15 19 4 -40 57 -60 54 -102 77 -126 70 -25 -7 -40 2 -47 28 -5 21 -66 71 -133 110 -133 77 -251 118 -226 78 20 -32 -1 -29 -62 11 -28 19 -62 37 -74 40 -12 3 -71 19 -131 36 -61 16 -137 29 -170 28 -51 -2 -46 -5 27 -20z m-349 -299 c-6 -11 -36 -19 -65 -20 -30 0 -117 -23 -194 -50 -77 -28 -156 -56 -176 -62 -44 -15 -166 -127 -137 -127 11 0 26 9 33 20 20 32 70 23 70 -13 0 -19 -6 -28 -12 -21 -23 23 -163 -64 -282 -173 -89 -83 -129 -107 -169 -103 -40 5 -58 -6 -76 -45 -18 -40 -28 -46 -47 -27 -19 19 -16 29 11 44 19 11 35 29 35 40 0 12 52 67 115 124 63 57 147 137 187 179 71 74 129 106 75 42 -32 -39 -14 -33 88 30 41 26 75 60 75 75 0 15 10 28 21 28 12 0 16 -9 9 -20 -18 -29 95 16 120 47 27 35 86 55 94 32 3 -11 48 -8 106 8 103 26 139 24 119 -8z m-458 -17 c-13 -22 -193 -107 -203 -96 -9 8 173 113 198 114 9 0 11 -8 5 -18z m503 -67 c-30 -10 -54 -26 -54 -36 0 -20 -159 -67 -175 -51 -6 6 11 19 37 29 121 44 114 45 -76 15 -14 -2 -31 -10 -39 -18 -7 -8 -33 -14 -56 -14 -24 0 -53 -10 -65 -22 -13 -13 -26 -14 -33 -3 -13 21 145 72 347 113 134 27 210 19 114 -13z m-830 -154 c-35 -32 -64 -53 -64 -47 0 7 -18 -4 -40 -24 -22 -20 -40 -28 -40 -18 0 19 23 42 128 123 81 63 93 36 16 -34z"/> <path d="M2123 3005 c-56 -41 -103 -87 -103 -101 0 -29 56 7 180 114 99 86 45 77 -77 -13z"/> <path d="M1652 2962 c-18 -20 -37 -55 -41 -78 -11 -56 -67 -138 -103 -152 -17 -7 -25 -21 -17 -33 7 -12 -2 -32 -20 -46 -45 -33 -136 -288 -115 -325 11 -20 30 14 60 110 25 76 58 149 74 162 17 14 30 40 30 57 0 18 18 60 40 93 32 48 40 52 40 22 0 -45 25 -27 33 23 2 19 7 53 11 75 3 22 23 54 44 72 23 19 30 37 18 44 -11 7 -36 -3 -54 -24z"/> <path d="M240 1990 l0 -250 130 -3 c72 -2 141 -4 155 -5 14 -1 25 16 25 38 0 35 -13 40 -110 40 l-110 0 1 215 c1 211 0 215 -45 215 -46 0 -46 -3 -46 -250z"/> <path d="M701 2165 c-28 -100 -27 -105 17 -105 23 0 46 21 58 55 11 30 26 71 34 90 11 28 4 35 -37 35 -42 0 -55 -13 -72 -75z"/> <path d="M1055 2205 c-198 -123 -125 -440 110 -478 232 -38 377 275 207 445 -79 79 -219 94 -317 33z m244 -89 c55 -59 63 -195 15 -253 -99 -120 -274 -31 -274 139 0 132 172 208 259 114z"/> <path d="M1740 1979 c0 -260 0 -262 45 -255 39 5 46 20 51 111 8 136 46 138 113 8 30 -61 66 -102 94 -110 69 -17 71 1 15 106 l-51 95 47 42 c130 115 25 264 -187 264 l-127 0 0 -261z m237 164 c60 -39 19 -133 -62 -139 l-75 -6 0 81 c0 84 60 112 137 64z"/> <path d="M2498 2210 c-76 -41 -125 -156 -113 -264 19 -168 191 -274 322 -198 33 19 65 26 71 16 53 -78 82 -40 82 107 l0 149 -110 0 c-97 0 -110 -5 -110 -40 0 -32 13 -40 71 -40 l70 0 -30 -58 c-50 -96 -199 -99 -250 -4 -91 170 80 355 224 242 112 -88 175 -37 77 62 -67 66 -209 80 -304 28z"/> <path d="M3298 2186 c-61 -158 -158 -433 -158 -448 0 -52 84 -12 111 52 42 99 198 107 232 11 19 -55 86 -99 111 -74 33 34 -171 503 -222 509 -41 5 -56 -5 -74 -50z m131 -221 c12 -41 7 -45 -58 -45 -39 0 -71 3 -71 6 0 4 15 51 34 105 l33 99 24 -60 c13 -33 30 -80 38 -105z"/> <path d="M3880 1979 c0 -260 0 -262 45 -255 43 6 45 14 42 181 -4 212 -11 211 115 15 96 -150 145 -200 197 -200 14 0 21 89 21 260 l0 260 -52 0 -52 0 7 -170 c9 -208 11 -208 -122 0 -169 265 -201 250 -201 -91z"/> <path d="M4728 2220 c-178 -71 -172 -386 9 -472 220 -104 440 134 333 360 -54 112 -213 165 -342 112z m223 -109 c85 -85 54 -251 -54 -289 -115 -40 -197 26 -197 157 0 168 141 242 251 132z"/> <path d="M5384 1987 c6 -245 7 -253 51 -260 44 -7 45 -2 45 178 l0 185 113 -170 c62 -94 114 -171 115 -173 1 -2 23 -6 49 -10 l47 -7 3 255 c3 251 2 255 -41 255 -42 0 -45 -10 -50 -173 l-6 -173 -115 173 c-94 141 -125 173 -166 173 l-50 0 5 -253z"/> <path d="M1290 1660 c-8 -14 -7 -30 2 -37 10 -7 19 -55 20 -107 2 -52 22 -130 45 -176 24 -44 43 -100 43 -123 0 -42 118 -253 184 -328 20 -23 36 -51 36 -62 0 -11 26 -45 58 -76 33 -30 55 -66 50 -80 -5 -13 9 -40 32 -61 41 -37 41 -37 29 1 -10 31 -3 29 34 -13 156 -172 416 -338 637 -404 314 -95 349 -101 580 -101 555 1 1026 246 1375 717 160 216 277 491 253 600 -13 58 -12 59 26 25 39 -34 40 -34 37 34 -5 142 -111 152 -111 12 0 -45 9 -81 21 -81 11 0 -16 -36 -61 -80 -45 -44 -76 -80 -69 -80 6 0 -2 -14 -20 -32 -17 -17 -26 -39 -20 -50 6 -10 2 -18 -10 -18 -11 0 -21 -13 -21 -29 0 -15 -13 -41 -28 -57 -16 -15 -46 -63 -67 -106 -20 -43 -49 -76 -63 -73 -14 4 -19 -3 -12 -15 16 -27 -209 -263 -236 -246 -11 6 -15 3 -8 -7 12 -20 -55 -91 -71 -75 -5 4 -25 -10 -45 -32 -20 -22 -44 -40 -54 -40 -10 0 -43 -19 -75 -42 -31 -24 -66 -37 -78 -30 -11 7 -26 -6 -34 -30 -9 -29 -19 -36 -33 -22 -24 24 -81 8 -65 -18 6 -10 -12 -18 -40 -18 -28 0 -51 -8 -51 -19 0 -10 -35 -18 -77 -17 -42 0 -94 -8 -115 -19 -51 -27 -483 -18 -554 12 -31 12 -51 15 -45 5 6 -10 -7 -14 -29 -8 -22 6 -40 19 -40 29 0 10 -11 17 -25 16 -61 -8 -97 2 -83 24 8 13 6 18 -5 11 -10 -6 -59 8 -108 31 -49 23 -96 40 -104 38 -8 -2 -15 6 -15 17 0 11 -7 19 -15 18 -40 -7 -66 4 -55 22 7 11 -5 20 -26 20 -50 0 -113 70 -92 104 12 20 8 20 -18 -1 -29 -24 -34 -23 -34 6 0 18 -7 29 -15 24 -15 -9 -53 23 -62 52 -17 58 -32 76 -54 67 -14 -5 -31 4 -37 21 -7 16 -21 24 -32 17 -11 -7 -20 -3 -20 9 0 28 26 27 61 -4 16 -14 3 4 -29 39 -32 36 -66 60 -75 54 -9 -6 -17 8 -17 31 0 22 -10 41 -21 41 -12 0 -16 8 -10 18 6 9 -5 16 -24 15 -19 -2 -35 6 -35 17 -3 42 -59 170 -74 170 -9 0 -16 14 -16 31 0 18 -9 25 -23 17 -13 -8 -18 -3 -13 14 5 15 -9 44 -31 64 -39 34 -43 34 -54 2 -12 -36 -99 139 -99 202 0 19 -9 27 -23 18 -16 -10 -19 6 -10 54 14 75 -11 140 -37 98z m270 -584 c0 -8 -12 -10 -27 -4 -26 10 -74 93 -72 124 1 18 99 -101 99 -120z m222 -344 c64 -70 92 -113 68 -103 -22 8 -51 17 -64 19 -14 2 -32 12 -40 21 -9 10 -5 11 9 3 49 -28 23 27 -55 118 -72 83 -118 161 -53 89 14 -16 75 -82 135 -147z"/> <path d="M1392 1645 c-6 -19 -7 -53 -3 -75 4 -22 9 -69 9 -105 2 -49 11 -65 38 -65 95 0 117 127 29 164 -30 13 -58 26 -62 28 -3 3 4 23 16 46 13 25 15 42 3 42 -11 0 -24 -16 -30 -35z m98 -155 c0 -22 -16 -42 -35 -46 -26 -5 -35 6 -35 46 0 40 9 51 35 46 19 -4 35 -24 35 -46z"/> <path d="M4834 1580 c-56 -66 -46 -180 16 -180 28 0 50 9 50 20 0 11 -18 20 -40 20 -55 0 -51 35 5 46 l45 9 -45 2 c-25 2 -45 12 -45 23 0 11 20 21 45 22 25 0 33 6 19 12 -20 7 -20 16 -2 38 12 15 15 28 5 28 -10 0 -34 -18 -53 -40z"/> <path d="M293 1567 c-40 -41 -12 -167 37 -167 28 0 50 9 50 20 0 11 -18 20 -40 20 -55 0 -51 35 5 46 l45 9 -45 2 c-56 4 -60 43 -5 43 22 0 40 9 40 20 0 22 -66 27 -87 7z"/> <path d="M465 1565 c-39 -13 -30 -57 20 -94 l45 -33 -45 9 c-25 5 -45 1 -45 -10 0 -31 59 -43 89 -18 33 28 19 81 -21 81 -15 0 -28 10 -28 22 0 12 14 17 30 11 17 -7 30 -4 30 5 0 23 -43 38 -75 27z"/> <path d="M613 1567 c-20 -21 -15 -143 7 -157 11 -7 20 1 20 17 0 17 18 36 40 43 48 15 53 81 8 98 -40 15 -58 15 -75 -1z"/> <path d="M951 1549 c-36 -37 -38 -58 -10 -110 24 -46 84 -51 119 -9 22 26 16 28 -39 17 -59 -12 -64 -9 -58 35 5 35 19 48 52 46 52 -1 60 22 13 40 -42 16 -41 16 -77 -19z"/> <path d="M1126 1547 c-25 -65 4 -137 59 -143 30 -4 55 3 55 15 0 11 -18 21 -40 21 -49 0 -53 34 -5 46 33 9 33 9 0 12 -49 3 -44 42 6 42 23 0 36 8 30 19 -16 26 -94 17 -105 -12z"/> <path d="M1593 1567 c-40 -41 -12 -167 37 -167 28 0 50 9 50 20 0 11 -13 20 -30 20 -42 0 -38 35 5 46 33 9 33 9 0 12 -49 3 -44 42 6 42 23 0 36 9 29 20 -14 23 -76 27 -97 7z"/> <path d="M2033 1567 c-40 -41 -12 -167 37 -167 28 0 50 9 50 20 0 11 -18 20 -40 20 -55 0 -51 35 5 46 l45 9 -45 2 c-56 4 -60 43 -5 43 22 0 40 9 40 20 0 22 -66 27 -87 7z"/> <path d="M2215 1558 c-77 -44 -20 -175 64 -148 60 19 50 48 -14 44 -43 -3 -55 5 -55 36 0 32 12 39 57 36 47 -3 52 1 32 25 -28 34 -37 35 -84 7z"/> <path d="M2380 1490 c0 -60 7 -88 21 -79 12 7 17 26 11 41 -7 18 3 28 27 28 24 0 42 -17 47 -45 5 -25 9 0 9 55 0 55 -4 80 -9 55 -10 -49 -66 -63 -66 -16 0 16 -9 34 -20 41 -12 8 -20 -24 -20 -80z"/> <path d="M2584 1563 c-46 -29 -22 -152 31 -159 25 -4 45 3 45 15 0 11 -13 21 -30 21 -42 0 -38 35 5 46 33 9 33 9 0 12 -49 3 -44 42 6 42 23 0 36 9 29 20 -15 24 -51 25 -86 3z"/> <path d="M2750 1553 c-19 -63 -23 -135 -7 -145 9 -6 17 4 17 21 0 40 19 40 48 0 19 -26 24 -17 27 48 3 78 -65 140 -85 76z"/> <path d="M2935 1558 c-77 -44 -20 -175 64 -148 60 19 50 48 -14 44 -43 -3 -55 5 -55 36 0 32 12 39 57 36 47 -3 52 1 32 25 -28 34 -37 35 -84 7z"/> <path d="M3105 1490 c0 -55 4 -80 9 -55 5 27 23 45 46 45 23 0 41 -18 46 -45 5 -25 9 0 9 55 0 55 -4 80 -9 55 -5 -27 -23 -45 -46 -45 -23 0 -41 18 -46 45 -5 25 -9 0 -9 -55z"/> <path d="M3293 1567 c-46 -46 -12 -167 47 -167 33 0 60 9 60 20 0 11 -18 20 -40 20 -49 0 -53 34 -5 46 33 9 33 9 0 12 -49 3 -44 42 6 42 23 0 36 9 29 20 -14 23 -76 27 -97 7z"/> <path d="M3548 1552 c-27 -70 1 -142 57 -148 30 -4 55 3 55 15 0 11 -18 21 -40 21 -49 0 -53 34 -5 46 33 9 33 9 0 12 -49 3 -44 42 6 42 23 0 36 9 29 20 -18 30 -90 24 -102 -8z"/> <path d="M3710 1560 c-7 -11 -3 -20 9 -20 11 0 21 -26 21 -59 0 -32 9 -64 20 -71 12 -7 20 16 20 59 0 39 9 71 20 71 11 0 20 9 20 20 0 11 -22 20 -49 20 -27 0 -54 -9 -61 -20z"/> <path d="M3980 1490 c0 -72 7 -90 35 -90 85 1 122 83 65 140 -68 68 -100 52 -100 -50z m96 -5 c5 -34 -3 -45 -35 -45 -31 0 -41 13 -41 51 0 66 67 60 76 -6z"/> <path d="M4185 1567 c-14 -6 -25 -43 -25 -82 0 -299 -670 -785 -1081 -785 -50 0 -102 -11 -115 -24 -19 -19 -24 -18 -24 1 0 14 -9 20 -20 13 -11 -7 -20 -5 -20 4 0 9 -56 28 -125 41 -262 49 -795 417 -795 548 0 38 -76 119 -90 97 -21 -33 -27 -160 -7 -148 9 6 17 -4 17 -21 0 -55 2 -61 32 -77 16 -9 23 -25 17 -36 -7 -10 -1 -17 13 -13 13 3 30 -16 36 -41 7 -26 19 -44 27 -40 8 3 66 -43 129 -104 63 -60 107 -96 99 -80 -9 17 -4 15 13 -5 16 -19 36 -35 46 -35 10 0 44 -23 76 -50 63 -54 82 -63 61 -28 -8 13 6 11 34 -4 26 -15 52 -28 57 -29 77 -18 132 -38 141 -53 43 -64 679 -58 679 7 0 10 28 3 63 -15 58 -30 62 -30 50 1 -7 20 -3 31 12 29 49 -6 77 2 67 19 -14 23 85 67 113 50 12 -8 15 -4 7 10 -8 13 -6 23 4 23 10 0 49 27 86 60 38 33 78 60 90 60 12 0 33 23 48 50 15 28 39 50 55 50 15 0 41 14 58 30 23 23 24 30 3 30 -20 1 -19 5 3 19 16 10 38 13 48 7 11 -7 13 -1 4 13 -9 14 -7 31 4 38 65 42 120 164 105 233 -15 68 -14 70 42 70 32 0 58 9 58 20 0 11 -18 20 -40 20 -49 0 -53 34 -5 46 33 9 33 9 0 12 -49 3 -44 42 6 42 23 0 36 9 29 20 -13 21 -43 24 -85 7z"/> <path d="M4451 1549 c-36 -37 -38 -58 -10 -110 24 -46 84 -51 119 -9 22 26 16 28 -39 17 -59 -12 -64 -9 -58 35 5 35 19 48 52 46 52 -1 60 22 13 40 -42 16 -41 16 -77 -19z"/> <path d="M5120 1560 c0 -11 9 -20 20 -20 11 0 20 -31 20 -70 0 -38 9 -70 20 -70 11 0 20 32 20 70 0 39 9 70 20 70 11 0 20 9 20 20 0 11 -27 20 -60 20 -33 0 -60 -9 -60 -20z"/> <path d="M5412 1554 c-75 -55 5 -191 83 -142 47 30 54 96 15 136 -40 39 -52 40 -98 6z m88 -64 c0 -37 -11 -50 -40 -50 -29 0 -40 13 -40 50 0 37 11 50 40 50 29 0 40 -13 40 -50z"/> <path d="M5603 1490 c2 -64 6 -79 12 -42 l8 59 48 -59 48 -58 -2 100 c-2 95 -3 96 -17 30 -8 -38 -16 -61 -18 -50 -2 11 -20 43 -42 70 l-39 50 2 -100z"/> <path d="M780 1509 c-27 -71 -27 -131 0 -89 15 25 26 26 59 5 47 -29 50 -17 19 72 -27 76 -52 80 -78 12z"/> <path d="M1840 1481 c0 -44 9 -81 20 -81 11 0 20 15 20 34 0 26 5 29 24 10 37 -37 46 -29 46 41 0 56 -8 66 -55 71 -52 6 -55 2 -55 -75z"/> <path d="M4982 1498 c-31 -90 -28 -102 21 -73 34 20 44 20 51 0 5 -14 17 -25 27 -25 23 0 -29 146 -55 155 -12 4 -31 -22 -44 -57z"/> </g> </svg> 