<?xml version="1.0" standalone="no"?>
<!DOCTYPE svg PUBLIC "-//W3C//DTD SVG 20010904//EN"
 "http://www.w3.org/TR/2001/REC-SVG-20010904/DTD/svg10.dtd">
<svg version="1.0" xmlns="http://www.w3.org/2000/svg"
 width="300.000000pt" height="191.000000pt" viewBox="0 0 300.000000 191.000000"
 preserveAspectRatio="xMidYMid meet">
<metadata>
Created by potrace 1.10, written by Peter Selinger 2001-2011
</metadata>
<g transform="translate(0.000000,191.000000) scale(0.100000,-0.100000)"
fill="#000000" stroke="none">
<path d="M1609 1820 c25 -4 47 -12 49 -18 2 -7 14 -12 27 -12 12 0 44 -9 70
-21 25 -11 49 -19 51 -16 17 16 -154 78 -210 76 -25 -1 -23 -3 13 -9z"/>
<path d="M1385 1799 c-33 -5 -61 -13 -63 -18 -2 -5 -15 -7 -30 -5 -15 3 -23 2
-19 -2 4 -4 2 -13 -4 -21 -13 -14 1 -18 17 -4 19 17 112 33 222 39 62 2 114 8
117 11 6 10 -172 10 -240 0z"/>
<path d="M1831 1762 c13 -10 43 -26 66 -36 23 -10 54 -31 69 -47 34 -35 46
-37 31 -5 -7 15 -42 41 -88 65 -79 43 -119 54 -78 23z"/>
<path d="M1156 1725 c-20 -13 -36 -22 -36 -19 0 2 -18 -5 -40 -16 -22 -11 -40
-24 -40 -29 0 -5 -13 -14 -30 -19 -39 -14 -199 -170 -205 -201 -2 -12 -10 -30
-17 -39 -12 -13 -10 -14 10 -3 21 11 27 28 22 61 -1 8 1 12 6 8 9 -9 36 11 29
22 -3 4 8 16 23 25 31 21 67 56 67 67 0 5 4 8 8 7 5 0 24 11 43 26 19 15 40
23 47 19 6 -4 9 -4 5 1 -5 5 8 19 28 33 29 20 38 22 45 11 5 -8 9 -9 9 -3 0
15 45 45 70 47 10 1 16 7 13 14 -7 18 -15 16 -57 -12z"/>
<path d="M2020 1661 c0 -4 38 -48 85 -97 46 -49 87 -98 91 -108 4 -11 14 -28
23 -38 29 -30 89 -160 101 -216 12 -54 30 -79 30 -41 0 90 -115 299 -219 397
-28 27 -38 41 -26 37 12 -3 1 11 -25 34 -45 40 -60 48 -60 32z"/>
<path d="M1000 1580 c-33 -42 -31 -48 10 -26 15 9 25 24 26 40 0 14 0 26 -2
26 -1 0 -17 -18 -34 -40z"/>
<path d="M1041 1539 c-18 -16 -30 -33 -26 -37 4 -4 15 3 25 15 9 12 20 19 24
16 3 -3 8 2 12 11 11 28 -1 27 -35 -5z"/>
<path d="M1381 1555 c-18 -8 -41 -15 -50 -15 -36 0 -178 -80 -237 -133 -70
-64 -151 -180 -160 -229 -5 -26 4 -16 42 49 53 90 121 166 188 212 51 35 151
81 177 81 10 0 20 4 24 9 5 9 64 19 156 25 61 4 196 -35 277 -80 110 -62 211
-169 281 -299 l22 -40 -6 35 c-6 39 -67 132 -129 199 -40 42 -179 141 -198
141 -6 0 -24 6 -41 14 -18 8 -54 22 -80 30 -62 21 -219 21 -266 1z"/>
<path d="M894 1497 c-35 -39 -47 -57 -38 -57 11 0 68 70 62 76 -3 2 -13 -6
-24 -19z"/>
<path d="M1035 1480 c-16 -16 -26 -32 -23 -35 3 -3 17 8 31 24 13 16 27 28 30
25 3 -3 8 -1 12 5 14 24 -23 9 -50 -19z"/>
<path d="M830 1388 c-12 -23 -30 -53 -41 -66 -10 -14 -19 -31 -19 -38 0 -8 -4
-14 -9 -14 -5 0 -12 -15 -16 -32 -4 -18 -13 -53 -21 -77 -9 -26 -11 -48 -6
-53 11 -11 28 31 37 89 4 23 15 53 24 65 10 13 25 43 35 67 10 25 26 57 37 73
11 15 16 28 11 28 -6 0 -20 -19 -32 -42z"/>
<path d="M753 1345 c-9 -19 -20 -32 -24 -30 -9 6 -21 -24 -13 -36 3 -5 1 -9
-5 -9 -14 0 -43 -94 -34 -116 5 -14 10 -7 19 31 7 27 11 52 8 57 -3 4 -2 8 3
8 7 0 30 39 65 113 5 9 6 17 3 17 -3 0 -13 -16 -22 -35z"/>
<path d="M120 995 l0 -125 80 0 c64 0 80 3 80 15 0 12 -13 15 -60 15 l-60 0 0
110 c0 103 -1 110 -20 110 -19 0 -20 -7 -20 -125z"/>
<path d="M356 1093 c-4 -16 -9 -36 -12 -45 -4 -13 0 -18 13 -18 13 0 24 13 33
38 8 20 16 40 18 45 2 4 -7 7 -21 7 -19 0 -26 -7 -31 -27z"/>
<path d="M521 1095 c-79 -68 -58 -197 38 -226 81 -24 161 34 161 117 0 85 -47
134 -129 134 -28 0 -48 -8 -70 -25z m114 -21 c26 -10 48 -62 41 -99 -11 -58
-65 -86 -114 -61 -34 17 -42 34 -42 80 0 64 56 102 115 80z"/>
<path d="M870 995 l0 -125 26 0 c25 0 26 2 22 48 -3 41 0 47 17 50 15 2 25 -9
41 -47 16 -36 28 -49 48 -53 32 -6 32 -1 1 53 -30 53 -30 55 -5 62 23 6 36 51
24 86 -13 35 -48 51 -116 51 l-58 0 0 -125z m125 45 c0 -34 -1 -35 -40 -38
l-40 -3 0 41 0 41 40 -3 c39 -3 40 -4 40 -38z"/>
<path d="M1241 1094 c-89 -75 -47 -229 64 -229 28 0 50 7 64 19 19 17 21 17
21 3 0 -10 8 -17 20 -17 18 0 20 7 20 68 l0 67 -55 2 c-48 2 -55 0 -55 -18 0
-15 7 -19 35 -19 31 0 34 -2 26 -22 -10 -30 -49 -50 -81 -43 -37 9 -60 42 -60
87 0 73 81 117 125 68 17 -19 65 -28 65 -12 -1 13 -34 49 -57 61 -39 20 -99
13 -132 -15z"/>
<path d="M1655 1108 c-3 -7 -23 -62 -45 -122 -22 -60 -40 -110 -40 -112 0 -2
11 -4 24 -4 19 0 26 7 31 30 6 28 9 30 56 30 46 0 51 -2 60 -29 7 -19 19 -31
35 -34 13 -2 24 -1 24 2 0 3 -20 60 -44 126 -40 108 -47 120 -70 123 -15 2
-28 -2 -31 -10z m59 -125 c7 -21 4 -23 -28 -23 -20 0 -36 2 -36 4 0 3 18 59
27 86 5 15 21 -13 37 -67z"/>
<path d="M1940 995 l0 -125 26 0 27 0 -7 85 c-3 47 -3 85 1 85 5 -1 32 -39 61
-85 43 -68 59 -85 78 -85 l24 0 0 125 0 125 -26 0 -27 0 6 -90 c3 -49 4 -90 3
-90 -2 0 -30 40 -62 90 -45 69 -64 90 -81 90 -23 0 -23 -2 -23 -125z"/>
<path d="M2358 1104 c-61 -33 -79 -138 -32 -193 34 -41 89 -57 138 -41 130 42
99 251 -37 250 -23 -1 -54 -7 -69 -16z m121 -50 c47 -59 15 -148 -52 -148 -62
0 -99 59 -76 122 21 58 92 72 128 26z"/>
<path d="M2692 995 l-2 -125 24 0 c25 0 25 2 28 86 l3 86 55 -86 c45 -70 59
-86 80 -86 l25 0 -3 125 c-3 116 -5 125 -23 125 -17 0 -19 -8 -19 -92 l0 -92
-60 92 c-47 73 -64 92 -83 92 -23 0 -23 -1 -25 -125z"/>
<path d="M647 844 c-11 -11 -8 -46 3 -39 7 4 9 -2 5 -18 -7 -26 11 -108 26
-118 5 -3 13 -25 17 -50 9 -45 118 -225 161 -263 32 -29 25 -5 -11 40 -51 61
-78 102 -78 117 0 8 -6 20 -14 26 -7 6 -19 33 -27 59 -7 26 -21 61 -31 77 -10
17 -18 40 -18 53 0 12 -5 22 -11 22 -7 0 -9 12 -6 33 6 34 -4 73 -16 61z"/>
<path d="M2417 790 c-9 -11 -17 -36 -17 -55 0 -31 3 -35 25 -35 14 0 25 5 25
10 0 6 -9 10 -20 10 -27 0 -25 18 3 23 l22 4 -22 2 c-13 0 -23 6 -23 11 0 6
10 10 23 11 12 0 16 3 9 6 -10 4 -10 8 -1 19 6 8 7 14 2 14 -5 0 -16 -9 -26
-20z"/>
<path d="M230 780 c-16 -10 -6 -40 15 -40 8 0 15 -5 15 -11 0 -7 -9 -9 -21 -6
-13 3 -19 1 -16 -6 6 -19 36 -20 44 -1 4 11 -2 23 -18 36 -24 20 -24 20 -1 15
12 -3 22 -2 22 3 0 12 -25 19 -40 10z"/>
<path d="M476 771 c-11 -12 -15 -27 -11 -40 6 -21 38 -36 55 -26 19 12 10 22
-15 17 -22 -4 -25 -1 -25 23 0 24 3 27 25 23 28 -6 34 6 9 16 -21 8 -18 9 -38
-13z"/>
<path d="M1105 777 c-21 -16 -17 -56 7 -71 14 -8 22 -7 35 6 16 16 15 17 -13
15 -23 -2 -29 2 -29 18 0 16 6 20 28 18 32 -2 34 2 8 16 -13 7 -23 6 -36 -2z"/>
<path d="M1465 777 c-21 -16 -17 -56 7 -71 14 -8 22 -7 35 6 16 16 15 17 -13
15 -23 -2 -29 2 -29 18 0 16 6 20 28 18 32 -2 34 2 8 16 -13 7 -23 6 -36 -2z"/>
<path d="M1662 782 c-20 -3 -23 -9 -20 -40 2 -30 8 -38 26 -40 12 -2 22 1 22
7 0 6 -7 11 -15 11 -21 0 -19 18 3 23 16 4 16 5 0 6 -26 2 -22 19 5 23 12 2
18 5 12 9 -5 3 -20 3 -33 1z"/>
<path d="M2095 782 c-5 -4 -10 -21 -11 -39 -2 -75 -171 -258 -300 -325 -69
-36 -227 -81 -291 -82 -18 -1 -33 -5 -33 -10 0 -4 19 -5 43 -2 23 3 51 6 62 6
35 1 146 32 203 57 105 46 276 203 303 277 10 27 19 36 36 36 13 0 23 5 23 10
0 6 -7 10 -15 10 -21 0 -19 18 3 23 16 4 16 5 0 6 -25 1 -22 21 3 21 11 0 17
5 14 10 -7 12 -26 13 -40 2z"/>
<path d="M2229 771 c-15 -12 -20 -23 -15 -39 7 -22 39 -38 56 -27 19 12 10 22
-15 17 -22 -4 -25 -1 -25 23 0 24 3 27 25 23 27 -6 35 6 10 15 -7 3 -24 -2
-36 -12z"/>
<path d="M2708 779 c-31 -18 -17 -79 18 -79 17 0 44 28 44 45 0 14 -27 45 -38
45 -4 0 -15 -5 -24 -11z m42 -34 c0 -18 -5 -25 -19 -25 -11 0 -21 6 -24 13 -7
20 4 37 24 37 14 0 19 -7 19 -25z"/>
<path d="M140 740 c0 -36 3 -40 25 -40 14 0 25 5 25 10 0 6 -9 10 -20 10 -27
0 -25 18 3 23 l22 4 -22 2 c-13 0 -23 5 -23 10 0 5 10 12 23 14 19 4 18 4 -5
6 -26 1 -28 -2 -28 -39z"/>
<path d="M302 746 c0 -20 4 -39 9 -42 5 -3 9 4 9 14 0 12 9 22 21 25 28 8 19
31 -13 35 -24 3 -26 0 -26 -32z"/>
<path d="M392 755 c-7 -14 -12 -34 -11 -43 0 -10 3 -12 6 -4 6 15 43 16 43 0
0 -6 3 -9 6 -5 8 7 -15 77 -25 77 -4 0 -13 -11 -19 -25z"/>
<path d="M570 740 c0 -36 3 -40 25 -40 14 0 25 5 25 10 0 6 -9 10 -20 10 -25
0 -26 17 -2 23 16 4 16 5 0 6 -26 2 -22 19 5 24 19 4 18 4 -5 6 -26 1 -28 -2
-28 -39z"/>
<path d="M700 741 c0 -33 3 -41 19 -41 48 0 56 73 9 78 -27 3 -28 1 -28 -37z
m45 4 c0 -11 -8 -21 -17 -23 -14 -3 -18 3 -18 23 0 20 4 26 18 23 9 -2 17 -12
17 -23z"/>
<path d="M792 743 c2 -31 7 -39 26 -41 12 -2 22 1 22 7 0 6 -7 11 -15 11 -21
0 -19 18 3 23 16 4 16 5 0 6 -10 0 -18 5 -18 10 0 5 8 12 18 14 10 3 6 5 -11
6 -27 1 -28 -1 -25 -36z"/>
<path d="M920 746 c0 -19 5 -38 10 -41 6 -3 10 4 10 17 l0 23 20 -25 c11 -14
20 -20 20 -13 0 6 -5 15 -10 18 -8 5 -7 11 0 20 16 19 4 35 -26 35 -21 0 -24
-5 -24 -34z"/>
<path d="M1010 740 c0 -36 3 -40 25 -40 14 0 25 5 25 10 0 6 -9 10 -20 10 -27
0 -25 18 3 23 l22 4 -22 2 c-13 0 -23 5 -23 10 0 5 10 12 23 14 19 4 18 4 -5
6 -26 1 -28 -2 -28 -39z"/>
<path d="M1193 740 c0 -25 2 -35 4 -22 3 13 12 22 23 22 11 0 20 -9 23 -22 2
-13 4 -3 4 22 1 25 -1 37 -4 28 -2 -10 -13 -18 -23 -18 -10 0 -21 8 -23 18 -3
9 -5 -3 -4 -28z"/>
<path d="M1282 743 c2 -31 7 -39 26 -41 12 -2 22 1 22 7 0 6 -7 11 -15 11 -21
0 -19 18 3 23 16 4 16 5 0 6 -26 2 -22 19 5 24 15 3 12 5 -11 6 -32 1 -33 0
-30 -36z"/>
<path d="M1371 738 c1 -27 3 -34 6 -19 l5 25 17 -22 c16 -22 16 -22 17 18 1
36 -1 40 -22 40 -22 0 -24 -4 -23 -42z"/>
<path d="M1553 740 c0 -25 2 -35 4 -22 3 13 12 22 23 22 11 0 20 -9 23 -22 2
-13 4 -3 4 22 1 25 -1 37 -4 28 -2 -10 -13 -18 -23 -18 -10 0 -21 8 -23 18 -3
9 -5 -3 -4 -28z"/>
<path d="M1776 743 c1 -33 4 -38 27 -41 15 -2 27 1 27 7 0 6 -9 11 -20 11 -25
0 -26 17 -2 23 16 4 16 5 0 6 -26 2 -22 19 5 24 17 3 16 5 -8 6 -28 1 -30 -1
-29 -36z"/>
<path d="M1863 773 c14 -4 17 -11 12 -33 -3 -16 -2 -31 4 -35 7 -4 11 7 11 29
0 19 6 37 13 39 6 3 -4 5 -23 5 -19 0 -27 -2 -17 -5z"/>
<path d="M1990 740 c0 -33 3 -40 19 -40 11 0 27 10 35 22 20 28 4 58 -29 58
-22 0 -25 -4 -25 -40z m48 2 c3 -17 -2 -22 -17 -22 -16 0 -21 6 -21 26 0 33
33 30 38 -4z"/>
<path d="M2310 746 c0 -19 5 -38 10 -41 6 -3 10 4 10 16 0 21 0 21 20 -2 10
-13 19 -19 20 -12 0 6 -5 15 -10 18 -8 5 -7 11 0 20 16 19 4 35 -26 35 -21 0
-24 -5 -24 -34z"/>
<path d="M2490 744 c-7 -19 -9 -38 -6 -41 3 -4 6 -1 6 5 0 16 37 15 43 0 3 -8
6 -6 6 4 1 21 -20 68 -30 68 -4 0 -13 -16 -19 -36z"/>
<path d="M2568 773 c6 -2 12 -20 12 -39 0 -19 5 -34 10 -34 6 0 10 15 10 34 0
19 6 37 13 39 6 3 -4 5 -23 5 -19 0 -29 -2 -22 -5z"/>
<path d="M2319 664 c-87 -214 -189 -350 -339 -453 -84 -58 -197 -110 -275
-127 -186 -39 -290 -30 -500 44 -77 27 -188 95 -230 142 -28 31 -55 44 -55 27
0 -7 30 -35 68 -62 37 -27 69 -53 70 -58 5 -10 98 -57 114 -57 7 0 25 -6 40
-14 15 -8 67 -24 115 -37 175 -45 367 -25 539 56 110 51 178 101 259 186 103
109 167 211 199 319 17 58 14 80 -5 34z"/>
<path d="M960 667 c0 -26 92 -139 156 -190 52 -42 165 -106 198 -111 6 -1 17
-5 24 -9 6 -5 16 -6 21 -3 5 4 12 0 14 -6 4 -9 6 -8 6 2 1 10 -19 21 -52 32
-98 33 -169 79 -254 165 -46 46 -83 90 -83 97 0 8 -7 19 -15 26 -12 10 -15 10
-15 -3z"/>
<path d="M1400 351 c0 -12 39 -25 48 -16 7 7 -17 25 -35 25 -7 0 -13 -4 -13
-9z"/>
</g>
</svg>
